<svg width="105" height="54" viewBox="0 0 105 54" fill="none" xmlns="http://www.w3.org/2000/svg">
<path d="M97.0547 19.3559L91.7623 31.4526H82.0979L87.1109 20.3882H75.8851L72.7787 12.9731L74.8825 8.10237L75.5235 6.64843L75.5564 6.54665L77.0356 3.21713L77.1671 2.92634L81.1118 0.527344H94.1291V8.10237H84.0538L82.0157 12.8131H94.1784L94.162 12.8422L97.0547 19.3559Z" fill="white" fill-opacity="0.6"/>
<path d="M75.5234 6.64893L74.8825 8.10205H74.8661L75.5234 6.64893Z" fill="white" fill-opacity="0.6"/>
<path d="M74.8169 0.527344L71.4311 8.10237H60.7148L50.393 31.4526H41.1888L51.5106 8.10237H38.674L36.8496 4.0168V0.527344H74.8169Z" fill="white" fill-opacity="0.6"/>
<path d="M41.4025 22.2637H32.2147L30.9491 19.414L25.969 8.10237H24.3583L14.0365 31.4526H4.83228L18.5235 0.527344H31.8203L40.4492 20.0828L41.4025 22.2637Z" fill="white" fill-opacity="0.6"/>
<path d="M32.2146 22.2632H29.7656L28.4836 19.4141H30.949L32.2146 22.2632Z" fill="white" fill-opacity="0.6"/>
<path d="M41.4517 22.2642H41.4023L40.449 20.0835L41.4517 22.2642Z" fill="white" fill-opacity="0.6"/>
<path d="M5.5389 43.1421L5.19375 42.2116H2.46539L2.1038 43.1421H0L2.95846 35.4658H4.84859L7.6427 43.1421H5.5389ZM3.1557 40.4525H4.56918L3.87888 38.5916L3.1557 40.4525Z" fill="white" fill-opacity="0.6"/>
<path d="M10.4369 35.4368C11.0121 35.4659 11.5545 35.5822 12.064 35.8003C12.5735 36.0184 13.0173 36.2946 13.3953 36.6435C13.7734 36.9925 14.0692 37.3996 14.2829 37.8503C14.4966 38.3155 14.6116 38.7953 14.6116 39.3187C14.6116 39.8276 14.513 40.3219 14.2993 40.7726C14.0857 41.2233 13.7898 41.6159 13.4118 41.9648C13.0337 42.2992 12.6064 42.5754 12.0969 42.779C11.5874 42.9825 11.045 43.0989 10.4533 43.1279H8.43167V35.4077L10.4369 35.4368ZM10.4369 41.3687C10.7491 41.3396 11.0286 41.2669 11.2915 41.1506C11.5545 41.0343 11.7846 40.8889 11.9818 40.7145C12.1791 40.54 12.327 40.3364 12.4421 40.0893C12.5571 39.8567 12.6064 39.5949 12.6064 39.3332C12.6064 39.057 12.5571 38.7953 12.4421 38.5481C12.327 38.301 12.1791 38.0829 11.9818 37.8939C11.7846 37.7049 11.5545 37.545 11.2915 37.4286C11.0286 37.3123 10.7491 37.2251 10.4369 37.2106V41.3687Z" fill="white" fill-opacity="0.6"/>
<path d="M20.0191 43.1421L19.6739 42.2116H16.9455L16.5839 43.1421H14.4636L17.4221 35.4658H19.3123L22.1064 43.1421H20.0191ZM17.6194 40.4525H19.0329L18.3426 38.5916L17.6194 40.4525Z" fill="white" fill-opacity="0.6"/>
<path d="M28.2864 38.7079C28.2864 39.144 28.1878 39.5656 28.007 39.9436C27.8262 40.3362 27.5632 40.6706 27.2345 40.9613C26.9058 41.2521 26.5277 41.4847 26.1004 41.6592C25.6731 41.8336 25.1964 41.9209 24.7033 41.9209V43.1421H22.7146V35.4658H24.7033C25.1964 35.4658 25.6566 35.5676 26.1004 35.742C26.5277 35.9165 26.9058 36.1491 27.2345 36.4399C27.5632 36.7307 27.8097 37.065 28.007 37.4576C28.1878 37.8501 28.2864 38.2572 28.2864 38.7079ZM24.7033 40.1617C24.917 40.1617 25.1307 40.1181 25.3279 40.0309C25.5251 39.9436 25.6895 39.8419 25.8374 39.711C25.9853 39.5802 26.084 39.4348 26.1661 39.2603C26.2483 39.0859 26.2976 38.8969 26.2976 38.7079C26.2976 38.5189 26.2483 38.3299 26.1661 38.1554C26.084 37.981 25.9689 37.8356 25.8374 37.7047C25.6895 37.5739 25.5251 37.4721 25.3279 37.3849C25.1307 37.2977 24.9334 37.254 24.7033 37.254V40.1617Z" fill="white" fill-opacity="0.6"/>
<path d="M34.4335 35.436V37.2098H32.7734V43.1416H30.7847V37.2098H29.1246V35.436H34.4335Z" fill="white" fill-opacity="0.6"/>
<path d="M37.2933 43.1421H35.3046V35.4658H37.2933V43.1421Z" fill="white" fill-opacity="0.6"/>
<path d="M43.3911 35.4077H45.5114L42.5529 43.1421H40.6627L37.8686 35.4077H39.9724L41.6325 40.1472L43.3911 35.4077Z" fill="white" fill-opacity="0.6"/>
<path d="M51.7242 37.2393H48.1575V38.4026H51.0503V40.1765H48.1575V41.3833H51.7242V43.1572H46.1687V35.4945L51.7406 35.48V37.2393H51.7242Z" fill="white" fill-opacity="0.6"/>
<path d="M59.7449 35.436V37.2098H58.0848V43.1416H56.0961V37.2098H54.436V35.436H59.7449Z" fill="white" fill-opacity="0.6"/>
<path d="M63.2129 41.1652C63.1143 41.1797 63.0157 41.1942 62.9006 41.1942C62.802 41.1942 62.687 41.2088 62.5884 41.2088V43.1426H60.5996V35.4946H62.5884C63.0814 35.4946 63.5416 35.5819 63.9854 35.7418C64.4128 35.9017 64.7908 36.1053 65.1195 36.3525C65.4482 36.6142 65.6948 36.905 65.892 37.2539C66.0728 37.5884 66.1714 37.9664 66.1714 38.3444C66.1714 38.7516 66.0728 39.1296 65.8756 39.4931C65.6783 39.842 65.3989 40.1474 65.0538 40.4091L66.9603 43.1426H64.61L63.2129 41.1652ZM62.5884 39.4349C62.802 39.4349 62.9993 39.3913 63.1965 39.3331C63.3937 39.275 63.5581 39.2023 63.706 39.1005C63.8539 38.9987 63.969 38.8969 64.0512 38.7661C64.1333 38.6352 64.1827 38.5044 64.1827 38.359C64.1827 38.2136 64.1333 38.0827 64.0512 37.9519C63.969 37.821 63.8539 37.7192 63.706 37.6174C63.5581 37.5157 63.3937 37.443 63.1965 37.3848C62.9993 37.3266 62.802 37.2976 62.5884 37.283V39.4349Z" fill="white" fill-opacity="0.6"/>
<path d="M72.7951 43.1421L72.4499 42.2116H69.7216L69.36 43.1421H67.2397L70.1982 35.4658H72.0883L74.8824 43.1421H72.7951ZM70.4119 40.4525H71.8254L71.1351 38.5916L70.4119 40.4525Z" fill="white" fill-opacity="0.6"/>
<path d="M77.726 43.1421H75.7372V35.4658H77.726V43.1421Z" fill="white" fill-opacity="0.6"/>
<path d="M83.6593 35.4658H85.6481V43.1421H83.4785L80.6351 38.6643V43.1421H78.6464V35.4949H80.8488L83.6758 39.9582V35.4658H83.6593Z" fill="white" fill-opacity="0.6"/>
<path d="M88.5244 43.1421H86.5356V35.4658H88.5244V43.1421Z" fill="white" fill-opacity="0.6"/>
<path d="M94.4742 35.4658H96.463V43.1421H94.2934L91.45 38.6643V43.1421H89.4612V35.4949H91.6308L94.4578 39.9582V35.4658H94.4742Z" fill="white" fill-opacity="0.6"/>
<path d="M104.615 38.8534V43.1431H102.61V42.954C102.396 43.0267 102.166 43.0704 101.936 43.0994C101.706 43.1285 101.476 43.1431 101.246 43.1431C100.687 43.1431 100.145 43.0558 99.6023 42.8668C99.0599 42.6777 98.5833 42.4015 98.1559 42.0234C97.7286 41.6453 97.4163 41.2236 97.2027 40.7583C96.989 40.293 96.8904 39.7986 96.8904 39.3041C96.8904 38.8097 96.989 38.3299 97.2027 37.85C97.4163 37.3701 97.7286 36.9484 98.1559 36.5704C98.5833 36.1923 99.0599 35.916 99.6023 35.727C100.145 35.5379 100.687 35.4507 101.246 35.4507C101.805 35.4507 102.347 35.5379 102.889 35.727C103.432 35.916 103.909 36.1923 104.336 36.5704L102.922 37.8209C102.692 37.6173 102.429 37.4719 102.15 37.3701C101.854 37.2684 101.558 37.2247 101.262 37.2247C100.966 37.2247 100.671 37.2684 100.375 37.3701C100.079 37.4719 99.816 37.6173 99.6023 37.8209C99.3722 38.0245 99.2078 38.2572 99.0764 38.5044C98.9613 38.7661 98.8956 39.0279 98.8956 39.2896C98.8956 39.5513 98.9613 39.8131 99.0764 40.0748C99.1914 40.3366 99.3722 40.5692 99.6023 40.7583C99.7995 40.9328 100.03 41.0782 100.293 41.18C100.556 41.2818 100.819 41.3399 101.082 41.3545C101.361 41.369 101.624 41.3545 101.887 41.2818C102.15 41.2236 102.396 41.1073 102.626 40.9619V40.5692H100.884V38.8097H104.615V38.8534Z" fill="white" fill-opacity="0.6"/>
<path d="M35.0251 53.8867C34.7457 53.8867 34.4828 53.8576 34.2033 53.7849C33.9239 53.7122 33.6774 53.6105 33.4309 53.4796C33.0035 53.2324 32.6748 52.9271 32.4447 52.5346C32.2146 52.142 32.0831 51.7203 32.0831 51.2696H34.0719C34.0719 51.4732 34.1212 51.6476 34.2198 51.7494C34.3184 51.8657 34.417 51.9384 34.4992 51.9821C34.6471 52.0693 34.795 52.1129 34.9594 52.1129C35.1238 52.1129 35.2881 52.0984 35.436 52.0257C35.5511 51.9821 35.6333 51.9384 35.699 51.8657C35.7648 51.8076 35.8141 51.7349 35.8469 51.6767C35.8798 51.6186 35.8962 51.5604 35.9127 51.5023C35.9127 51.4441 35.9291 51.4005 35.9291 51.3714C35.9291 51.3423 35.9291 51.2842 35.9127 51.2405C35.9127 51.1824 35.8798 51.1242 35.8469 51.0661C35.8141 51.0079 35.7648 50.9352 35.699 50.8771C35.6333 50.8189 35.5511 50.7607 35.436 50.7171C35.3539 50.6881 35.2552 50.6444 35.1566 50.6299C35.058 50.6008 34.9594 50.5717 34.8443 50.5427C34.6471 50.4845 34.4499 50.4263 34.2362 50.3536C34.0226 50.2809 33.8089 50.1937 33.5952 50.0774C33.3158 49.9175 33.0857 49.7284 32.9049 49.4958C32.7241 49.2632 32.5762 49.016 32.494 48.7543C32.4118 48.4926 32.379 48.2164 32.4118 47.9401C32.4447 47.6639 32.5269 47.3876 32.6748 47.1259C32.8227 46.8933 32.9871 46.6897 33.2008 46.5152C33.4144 46.3408 33.6445 46.2099 33.9075 46.1081C34.1705 46.0064 34.4499 45.9482 34.7457 45.9191C35.0416 45.9046 35.3539 45.9191 35.6497 45.9918C35.9455 46.05 36.225 46.1518 36.4551 46.2826C36.6852 46.4135 36.9153 46.5879 37.0796 46.777C37.2604 46.966 37.3919 47.1841 37.4905 47.4167C37.5891 47.6493 37.6384 47.8965 37.6384 48.1582H35.6497C35.6497 47.9983 35.6004 47.8819 35.4853 47.8238C35.3703 47.7656 35.2717 47.722 35.1895 47.6929C35.1731 47.6929 35.1402 47.6929 35.0744 47.6784C35.0087 47.6639 34.943 47.6639 34.8772 47.6784C34.795 47.6929 34.7293 47.7075 34.6471 47.7511C34.5649 47.7947 34.4992 47.8529 34.4499 47.9401C34.3841 48.0564 34.3677 48.1727 34.417 48.289C34.4499 48.4054 34.5321 48.5071 34.6471 48.5798C34.7622 48.638 34.8772 48.6816 35.0087 48.7252C35.1402 48.7688 35.2881 48.8125 35.436 48.8561C35.5675 48.8852 35.699 48.9288 35.8469 48.9724C35.9784 49.016 36.1263 49.0596 36.2578 49.1178C36.7673 49.3213 37.1782 49.6267 37.4741 50.0338C37.7699 50.4409 37.9178 50.8916 37.9178 51.3859C37.9178 51.8803 37.7699 52.3165 37.4741 52.7236C37.1782 53.1307 36.7673 53.436 36.2578 53.6395C36.0606 53.7268 35.8469 53.7849 35.6333 53.8286C35.4525 53.8722 35.2388 53.8867 35.0251 53.8867Z" fill="white" fill-opacity="0.6"/>
<path d="M39.9066 53.7417L40.9092 51.5607L37.9507 46.0063H40.1531L41.9447 49.336L43.4732 46.0063H45.6428L42.0597 53.7417H39.9066Z" fill="white" fill-opacity="0.6"/>
<path d="M48.4369 53.8867C48.1575 53.8867 47.8945 53.8576 47.6151 53.7849C47.3357 53.7122 47.0891 53.6105 46.8426 53.4796C46.4153 53.2324 46.0866 52.9271 45.8565 52.5346C45.6264 52.142 45.4949 51.7203 45.4949 51.2696H47.4836C47.4836 51.4732 47.5329 51.6476 47.6315 51.7494C47.7301 51.8657 47.8288 51.9384 47.9109 51.9821C48.0589 52.0693 48.2068 52.1129 48.3711 52.1129C48.5355 52.1129 48.6999 52.0984 48.8478 52.0257C48.9628 51.9821 49.045 51.9384 49.1108 51.8657C49.1765 51.8076 49.2258 51.7349 49.2587 51.6767C49.2915 51.6186 49.308 51.5604 49.3244 51.5023C49.3244 51.4441 49.3409 51.4005 49.3409 51.3714C49.3409 51.3423 49.3409 51.2842 49.3244 51.2405C49.3244 51.1824 49.2915 51.1242 49.2587 51.0661C49.2258 51.0079 49.1765 50.9352 49.1108 50.8771C49.045 50.8189 48.9628 50.7607 48.8478 50.7171C48.7656 50.6881 48.667 50.6444 48.5684 50.6299C48.4698 50.6008 48.3711 50.5717 48.2561 50.5427C48.0589 50.4845 47.8616 50.4263 47.648 50.3536C47.4343 50.2809 47.2206 50.1937 47.007 50.0774C46.7276 49.9175 46.4975 49.7284 46.3167 49.4958C46.1194 49.2632 45.9879 49.016 45.9058 48.7543C45.8236 48.4926 45.7907 48.2164 45.8236 47.9401C45.8565 47.6639 45.9386 47.3876 46.0866 47.1259C46.2345 46.8933 46.3988 46.6897 46.6125 46.5152C46.8262 46.3408 47.0563 46.2099 47.3193 46.1081C47.5822 46.0064 47.8616 45.9482 48.1575 45.9191C48.4533 45.9046 48.7656 45.9191 49.0614 45.9918C49.3573 46.05 49.6367 46.1518 49.8668 46.2826C50.1133 46.4135 50.327 46.5879 50.4914 46.777C50.6722 46.966 50.8036 47.1841 50.9023 47.4167C51.0009 47.6493 51.0502 47.8965 51.0502 48.1582H49.0614C49.0614 47.9983 49.0121 47.8819 48.8971 47.8238C48.782 47.7656 48.6834 47.722 48.6012 47.6929C48.5848 47.6929 48.5519 47.6929 48.4862 47.6784C48.4205 47.6639 48.3547 47.6639 48.289 47.6784C48.2068 47.6929 48.141 47.7075 48.0589 47.7511C47.9767 47.7947 47.9109 47.8529 47.8616 47.9401C47.7959 48.0564 47.7795 48.1727 47.8288 48.289C47.8616 48.4054 47.9438 48.5071 48.0589 48.5798C48.1739 48.638 48.289 48.6816 48.4205 48.7252C48.5519 48.7688 48.6999 48.8125 48.8478 48.8561C48.9793 48.8852 49.1108 48.9288 49.2587 48.9724C49.3902 49.016 49.5381 49.0596 49.6696 49.1178C50.1791 49.3213 50.59 49.6267 50.8858 50.0338C51.1817 50.4409 51.3296 50.8916 51.3296 51.3859C51.3296 51.8803 51.1817 52.3165 50.8858 52.7236C50.59 53.1307 50.1791 53.436 49.6696 53.6395C49.4723 53.7268 49.2587 53.7849 49.045 53.8286C48.8642 53.8722 48.6505 53.8867 48.4369 53.8867Z" fill="white" fill-opacity="0.6"/>
<path d="M57.1809 46.0366V47.8105H55.5209V53.7427H53.5321V47.8105H51.8721V46.0366H57.1809Z" fill="white" fill-opacity="0.6"/>
<path d="M63.4595 47.8385H59.8928V49.0018H62.7856V50.7758H59.8928V51.9827H63.4595V53.7422H57.8876V46.079L63.4595 46.0645V47.8385Z" fill="white" fill-opacity="0.6"/>
<path d="M70.5269 46.0645H72.5814L73.0909 53.7422H71.1022L70.8885 50.6013L69.6722 53.7422H67.6835L66.4014 50.485L66.1713 53.7422H64.1661L64.725 46.0645H66.7795L68.6861 50.8776L70.5269 46.0645Z" fill="white" fill-opacity="0.6"/>
</svg>
