<svg width="92" height="108" viewBox="0 0 92 108" fill="none" xmlns="http://www.w3.org/2000/svg">
<g clip-path="url(#clip0_1_193)">
<path d="M0.380371 77.8384C0.380371 68.5113 0.380371 59.1843 0.380371 49.8572C0.380371 49.7336 0.442123 49.6719 0.565626 49.6719C3.03569 49.6719 4.27071 49.6719 6.74077 49.6719C10.2606 49.6719 12.5454 52.4515 12.5454 55.6017C12.5454 56.5282 12.5454 57.0224 12.5454 57.9489C12.5454 59.3696 11.8661 60.3579 11.0634 61.4079C11.0016 61.5315 11.0016 61.5932 11.1251 61.655C12.6689 62.7051 13.4099 64.9905 13.4099 67.3995C13.4099 68.1407 13.4099 68.5113 13.4099 69.2526C13.4099 73.144 10.9399 76.5413 7.04953 77.0972C4.51772 77.4678 3.22094 77.5913 0.689129 78.0237C0.442123 78.0237 0.380371 77.9002 0.380371 77.8384ZM6.30851 60.2961C7.91405 60.2343 8.65507 58.9372 8.65507 56.9606C8.65507 56.7135 8.65507 56.6517 8.65507 56.4047C8.65507 54.4898 7.91405 53.2545 6.30851 53.3162C5.62925 53.3162 5.32049 53.3162 4.64122 53.378C4.51772 53.378 4.45597 53.4398 4.45597 53.5633C4.45597 56.2194 4.45597 57.5165 4.45597 60.1726C4.45597 60.2961 4.51772 60.3579 4.64122 60.3579C5.32049 60.3579 5.62925 60.2961 6.30851 60.2961ZM6.37027 73.4528C7.9758 73.2675 9.14908 72.341 9.14908 69.9938C9.14908 68.7584 9.14908 68.079 9.14908 66.8436C9.14908 64.4964 8.03756 63.7552 6.43202 63.8787C5.87625 63.9405 5.62925 63.9405 5.07348 64.0022C4.94998 64.0022 4.88823 64.1258 4.88823 64.1875C4.88823 67.8937 4.88823 69.7467 4.88823 73.4528C4.88823 73.5764 4.94998 73.6381 5.07348 73.6381C5.5675 73.5146 5.8145 73.5146 6.37027 73.4528Z" fill="white" fill-opacity="0.6"/>
<path d="M15.88 75.8001C15.88 67.1524 15.9418 58.443 15.9418 49.7954C15.9418 49.6719 16.0035 49.6101 16.127 49.6101C18.6588 49.6101 19.9556 49.6101 22.5492 49.6101C26.069 49.6101 28.3538 52.2662 28.3538 55.2311C28.3538 56.4047 28.3538 57.0224 28.3538 58.196C28.3538 59.8637 27.4275 61.0991 26.1308 61.8403C26.0072 61.9021 26.0072 61.9639 26.1308 62.0874C27.2423 62.9522 27.7363 64.3111 27.7363 65.9171C27.7363 69.4996 27.7363 71.2909 27.7363 74.8118C27.7363 74.9353 27.6745 74.9971 27.551 74.9971C26.069 75.0588 25.3897 75.1206 23.9077 75.2441C23.7842 75.2441 23.7224 75.1824 23.7224 75.0588C23.7224 71.7851 23.7224 70.1173 23.7224 66.8436C23.7224 64.8052 23.0432 63.9405 21.0671 64.0022C20.6966 64.0022 20.5114 64.0022 20.2026 64.064C20.0791 64.064 20.0174 64.1258 20.0174 64.2493C20.0174 68.6967 20.0174 70.9203 20.0174 75.3677C20.0174 75.4912 19.9556 75.553 19.8321 75.553C18.3501 75.6765 17.6708 75.7383 16.1888 75.9236C15.9418 75.9854 15.88 75.9236 15.88 75.8001ZM21.8699 60.5432C23.4754 60.4814 24.2165 59.246 24.2165 57.393C24.2165 56.8988 24.2165 56.6517 24.2165 56.1576C24.2165 54.3045 23.4754 53.0692 21.8699 53.0692C21.1906 53.0692 20.8201 53.0692 20.1409 53.0692C20.0174 53.0692 19.9556 53.1309 19.9556 53.2545C19.9556 56.0958 19.9556 57.5783 19.9556 60.4196C19.9556 60.5432 20.0174 60.6049 20.1409 60.6049C20.8201 60.6049 21.1906 60.6049 21.8699 60.5432Z" fill="white" fill-opacity="0.6"/>
<path d="M31.0091 74.6882C31.0091 66.4112 31.0091 58.0724 31.0708 49.7954C31.0708 49.6719 31.1326 49.6101 31.2561 49.6101C32.7381 49.6101 33.4174 49.6101 34.8994 49.6101C35.0229 49.6101 35.0847 49.6719 35.0847 49.7954C35.0847 58.0107 35.0847 66.2877 35.0847 74.5029C35.0847 74.6265 35.0229 74.6882 34.8994 74.6882C33.4174 74.75 32.6764 74.75 31.2561 74.8735C31.1326 74.8735 31.0091 74.75 31.0091 74.6882Z" fill="white" fill-opacity="0.6"/>
<path d="M37.8018 70.1791C37.8018 69.3143 37.8018 68.9437 37.8018 68.079C37.8018 67.9554 37.8635 67.8937 37.987 67.8937C39.4073 67.8937 40.1483 67.8319 41.6304 67.8319C41.7539 67.8319 41.8156 67.8937 41.8156 68.0172C41.8156 68.6967 41.8156 69.0055 41.8156 69.685C41.8156 70.9203 42.3714 71.538 43.5447 71.538C44.7797 71.538 45.4589 70.8586 45.4589 69.685C45.4589 67.5848 42.9889 64.3111 40.8893 61.2844C39.0368 58.6901 37.8635 56.59 37.8635 54.181C37.8635 51.772 39.4073 49.2395 43.6064 49.2395C47.8055 49.2395 49.3493 51.6485 49.3493 53.9957C49.3493 54.4898 49.3493 54.6752 49.3493 55.1693C49.3493 55.2928 49.2875 55.3546 49.164 55.3546C47.7438 55.3546 47.0645 55.3546 45.6442 55.3546C45.5207 55.3546 45.4589 55.2928 45.4589 55.1693C45.4589 54.8605 45.4589 54.7369 45.4589 54.4281C45.4589 53.1927 44.9032 52.5132 43.6682 52.5132C42.4331 52.5132 41.9391 53.2545 41.9391 54.181C41.9391 55.9105 42.9889 57.1459 44.7179 59.4931C46.8792 62.3962 49.7198 66.4112 49.7198 70.1173C49.7198 72.5263 47.8673 74.8735 43.6682 74.9353C39.4073 74.8735 37.8018 72.5263 37.8018 70.1791Z" fill="white" fill-opacity="0.6"/>
<path d="M52.1281 74.3794C52.1281 66.1641 52.1281 58.0107 52.1281 49.7954C52.1281 49.6719 52.1899 49.6101 52.3134 49.6101C53.7954 49.6101 54.4747 49.6101 55.9567 49.6101C56.0802 49.6101 56.142 49.6719 56.142 49.7954C56.142 53.5015 56.142 55.3546 56.142 59.0607C56.142 59.246 56.3272 59.246 56.389 59.1225C58.0563 55.4164 58.859 53.5633 60.5263 49.7954C60.5881 49.7336 60.7116 49.6719 60.7733 49.6719C62.3171 49.6719 63.1199 49.6719 64.6637 49.6719C64.7872 49.6719 64.8489 49.7954 64.7872 49.919C62.8111 53.9339 61.8231 55.9105 59.847 59.802C59.7853 59.9255 59.7853 59.9255 59.847 60.049C61.8231 65.9788 62.8111 68.9437 64.8489 74.9971C64.9107 75.1206 64.7872 75.1824 64.6637 75.1824C63.1816 75.0588 62.3789 75.0588 60.8968 74.9971C60.7733 74.9971 60.7116 74.9353 60.7116 74.8735C59.4148 70.8586 58.7973 68.8202 57.5005 64.8052C57.4387 64.6199 57.3152 64.6199 57.1917 64.8052C56.8212 65.7318 56.636 66.1641 56.2037 67.0907C56.142 67.2142 56.142 67.2142 56.142 67.276C56.142 70.2409 56.142 71.6616 56.142 74.6265C56.142 74.75 56.0802 74.8118 55.9567 74.8118C54.4747 74.75 53.7336 74.75 52.3134 74.6882C52.2516 74.5647 52.1281 74.4411 52.1281 74.3794Z" fill="white" fill-opacity="0.6"/>
<path d="M67.5042 75.0588C67.5042 66.6583 67.4425 58.196 67.4425 49.7954C67.4425 49.6719 67.5042 49.6101 67.6277 49.6101C71.3946 49.6101 73.2471 49.6101 77.014 49.6101C77.1375 49.6101 77.1992 49.6719 77.1992 49.7954C77.1992 51.0926 77.1992 51.7102 77.1992 53.0074C77.1992 53.1309 77.1375 53.1927 77.014 53.1927C74.8527 53.1309 73.8029 53.1309 71.6416 53.1309C71.5181 53.1309 71.4563 53.1927 71.4563 53.3162C71.4563 55.787 71.4563 56.9606 71.4563 59.4313C71.4563 59.5549 71.5181 59.6167 71.6416 59.6167C73.0001 59.6784 73.6794 59.6784 75.0379 59.7402C75.1614 59.7402 75.2232 59.802 75.2232 59.9255C75.2232 61.1609 75.2232 61.8403 75.2232 63.0757C75.2232 63.1992 75.1614 63.261 75.0379 63.261C73.6794 63.1992 73.0001 63.1375 71.6416 63.0757C71.5181 63.0757 71.4563 63.1375 71.4563 63.261C71.4563 66.7201 71.4563 68.4496 71.4563 71.9086C71.4563 72.0322 71.5181 72.0939 71.6416 72.0939C73.8029 72.2792 74.8527 72.341 77.014 72.5263C77.1375 72.5263 77.1992 72.6499 77.1992 72.7116C77.1992 74.0088 77.1992 74.6265 77.1992 75.9236C77.1992 76.0471 77.1375 76.1089 77.014 76.1089C73.2471 75.7383 71.3946 75.553 67.6277 75.2441C67.566 75.2441 67.5042 75.1824 67.5042 75.0588Z" fill="white" fill-opacity="0.6"/>
<path d="M83.6214 77.0972C83.6214 69.3761 83.6214 61.2226 83.5596 53.4398C83.5596 53.3162 83.4979 53.2545 83.3743 53.2545C81.9541 53.2545 81.2131 53.1927 79.7928 53.1927C79.6693 53.1927 79.6075 53.1309 79.6075 53.0074C79.6075 51.7102 79.6075 51.0926 79.6075 49.7954C79.6075 49.6719 79.6693 49.6101 79.7928 49.6101C84.4241 49.6101 86.7707 49.6101 91.402 49.6101C91.5255 49.6101 91.5873 49.6719 91.5873 49.7954C91.5873 51.1543 91.5873 51.8338 91.5873 53.1927C91.5873 53.3162 91.5255 53.378 91.402 53.378C89.9818 53.3162 89.2407 53.3162 87.8205 53.3162C87.697 53.3162 87.6352 53.378 87.6352 53.5015C87.6352 61.4079 87.6352 69.685 87.6352 77.5914C87.6352 77.7149 87.5735 77.7767 87.4499 77.7767C86.0297 77.5914 85.2886 77.4678 83.8684 77.2825C83.6831 77.2825 83.6214 77.2207 83.6214 77.0972Z" fill="white" fill-opacity="0.6"/>
<path d="M33.1704 23.4202H28.3538L26.316 21.4436H17.7943L14.892 24.285L17.7943 27.1263H26.316L28.292 25.1497H33.6027L33.1704 23.4202ZM25.575 25.3968H18.5353L17.4238 24.285L18.5353 23.1731H25.575L26.6865 24.285L25.575 25.3968Z" fill="white" fill-opacity="0.6"/>
<path d="M66.2075 23.1731L65.0959 24.285L66.2075 25.3968H77.0757V27.1263H65.4665L63.4904 25.1497H58.1798L58.612 23.4202H63.4904L65.4665 21.4436H77.0757V23.1731H66.2075Z" fill="white" fill-opacity="0.6"/>
<path d="M32.8617 2.72757H29.8976V0.998047H32.8617C35.3935 0.998047 37.74 1.98635 39.5308 3.71587C41.0129 5.13655 42.9271 5.93955 44.9649 5.93955H46.941C48.9788 5.93955 50.8931 5.13655 52.3751 3.71587C54.1659 1.98635 56.5125 0.998047 59.0443 0.998047H62.0084V2.72757H59.0443C57.0065 2.72757 55.0922 3.53057 53.6101 4.95125C51.8194 6.74254 49.4728 7.66907 46.941 7.66907H44.9649C42.4331 7.66907 40.0866 6.68077 38.2958 4.95125C36.8137 3.53057 34.8995 2.72757 32.8617 2.72757Z" fill="white" fill-opacity="0.6"/>
<path d="M66.578 11.1899L64.7872 12.9195C62.4406 15.2667 59.4148 16.5638 56.142 16.7491L53.2396 27.0027C53.8572 28.6087 53.4867 30.4 52.2516 31.5736L48.0525 35.7121H43.7299L39.5308 31.5736C38.2958 30.3383 37.9253 28.547 38.5428 27.0027L35.6405 16.7491C32.3676 16.5638 29.3418 15.2667 26.9953 12.9195L25.2045 11.1899H66.578Z" fill="white" fill-opacity="0.6"/>
</g>
<defs>
<clipPath id="clip0_1_193">
<rect width="91.2687" height="106.366" fill="white" transform="translate(0.380371 0.998047)"/>
</clipPath>
</defs>
</svg>
