<svg xmlns="http://www.w3.org/2000/svg" viewBox="0 0 149.75 95.13">
  <defs>
    <style>
      .cls-1 {
        fill: #1e2118;
      }

      .cls-2 {
        fill: #c1891e;
      }

      .cls-3 {
        fill: #be851c;
      }
    </style>
  </defs>
  <title>brisket</title>
  <g id="Layer_2" data-name="Layer 2">
    <g id="Layer_1-2" data-name="Layer 1">
      <g>
        <g>
          <g>
            <path class="cls-1" d="M1.26,48.05a.74.74,0,0,1-.76-.78V2a.81.81,0,0,1,.83-.83l10,0a9.57,9.57,0,0,1,7,2.78,10.3,10.3,0,0,1,2.92,7.3v3.83a8.89,8.89,0,0,1-2.42,5.73c2.38,1.79,3.71,5.26,3.7,9.59v3c0,6.91-4.43,12.33-10.74,13.17C7.57,47.11,5.55,47.4,1.4,48Zm7.43-8.11,2-.24c2.73-.32,4-1.94,4-5.09V29.52A4.86,4.86,0,0,0,13.64,26a3.26,3.26,0,0,0-2.4-.84h-.45l-2.09.15ZM8.05,18.53l2.49-.14c2.75-.14,3.33-2.72,3.33-4.86v-.88a5.22,5.22,0,0,0-1.1-3.76,2.83,2.83,0,0,0-2.09-.77l-2.62.05Z"/>
            <path class="cls-2" d="M11.33,1.64a9.25,9.25,0,0,1,9.34,9.57v3.84c0,2.29-1.06,3.88-2.44,5.57-.13.2-.13.32.07.44C20.78,22.79,22,26.42,22,30.37v3c0,6.29-4,11.83-10.3,12.67-4.14.55-6.2.85-10.32,1.49H1.26A.25.25,0,0,1,1,47.27V2a.31.31,0,0,1,.33-.33l10,0h0M7.85,19h0l2.68-.15c2.63-.14,3.81-2.21,3.81-5.36v-.88c0-3.11-1.14-5-3.69-5h-.1l-2.69.06A.31.31,0,0,0,7.56,8c0,4.3,0,6.44,0,10.74a.28.28,0,0,0,.3.3m.61,21.43h0l2.23-.27c2.61-.31,4.45-1.82,4.46-5.59V29.52c0-3.53-1.6-4.86-4-4.86h-.49l-2.22.16a.34.34,0,0,0-.33.35c0,6,0,9,0,15a.26.26,0,0,0,.27.28M11.33.64h0l-10,0A1.31,1.31,0,0,0,0,2V47.27a1.24,1.24,0,0,0,1.26,1.28h.22c4.14-.65,6.16-.94,10.3-1.49,6.56-.87,11.15-6.49,11.17-13.66v-3c0-4.27-1.26-7.74-3.5-9.68a8.83,8.83,0,0,0,2.22-5.64V11.22A10.81,10.81,0,0,0,18.6,3.56,10.05,10.05,0,0,0,11.33.64Zm-2.77,8,2,0h.13a2.29,2.29,0,0,1,1.73.62,4.81,4.81,0,0,1,1,3.41v.88c0,2.79-1,4.26-2.86,4.36l-2,.11V8.66ZM9.2,25.79l1.63-.12h.41a2.75,2.75,0,0,1,2,.69,4.43,4.43,0,0,1,.91,3.17v5.09c0,2.89-1.11,4.31-3.58,4.6l-1.43.17V25.79Z"/>
          </g>
          <g>
            <path class="cls-1" d="M26.34,44.83a.79.79,0,0,1-.56-.22.74.74,0,0,1-.22-.55l.08-42.14a.8.8,0,0,1,.82-.81H36.77a10,10,0,0,1,7.17,2.81,9.51,9.51,0,0,1,2.77,6.79v4.82a7.11,7.11,0,0,1-3.49,6.16,8.2,8.2,0,0,1,2.54,6.39l0,14.42a.83.83,0,0,1-.8.82c-2.36.14-3.54.23-5.91.4h0a.84.84,0,0,1-.61-.2.76.76,0,0,1-.24-.57l0-13.33c0-1.66-.27-2.71-.88-3.32a3.28,3.28,0,0,0-2.43-.75h-.42l-1.3.06,0,17.83a.83.83,0,0,1-.79.82c-2.36.21-3.54.33-5.9.57ZM33.17,19l2.63-.1c2.75-.1,3.33-2.56,3.33-4.62v-2A5.18,5.18,0,0,0,38,8.51a2.86,2.86,0,0,0-2.1-.79v-.5l0,.5-2.66,0Z"/>
            <path class="cls-2" d="M36.85,1.6a9,9,0,0,1,9.36,9.1v4.82a6.77,6.77,0,0,1-3.56,5.93c-.2.12-.2.24,0,.41a7.52,7.52,0,0,1,2.61,6.21c0,5.77,0,8.65,0,14.42a.32.32,0,0,1-.33.32c-2.37.14-3.55.23-5.91.4h0a.27.27,0,0,1-.29-.28c0-5.33,0-8,0-13.33,0-3.16-1-4.57-3.81-4.57h-.44L33,25.12a.32.32,0,0,0-.33.32c0,7.2,0,10.79,0,18a.34.34,0,0,1-.33.34c-2.36.21-3.55.32-5.91.56h0a.25.25,0,0,1-.28-.27q0-21.08.08-42.14a.3.3,0,0,1,.33-.31H36.85M33,19.47h0l2.83-.11c2.62-.09,3.81-2.15,3.81-5.12,0-.8,0-1.21,0-2,0-3-1.16-5-3.74-5h-.06L33,7.26a.3.3,0,0,0-.33.3c0,4.65,0,7,0,11.62a.28.28,0,0,0,.31.29M36.85.6H26.46a1.3,1.3,0,0,0-1.32,1.31L25.1,23l0,21a1.25,1.25,0,0,0,1.28,1.28h.14c2.37-.24,3.53-.35,5.9-.56a1.33,1.33,0,0,0,1.24-1.32l0-17.35.82,0h.4a2.86,2.86,0,0,1,2.07.6c.51.5.75,1.47.74,3V42.94a1.28,1.28,0,0,0,.36.9,1.31,1.31,0,0,0,.93.38h.11C41.43,44,42.59,44,45,43.8a1.31,1.31,0,0,0,1.27-1.31V28.07A8.81,8.81,0,0,0,44,21.75a7.62,7.62,0,0,0,3.21-6.23V10.7A10.05,10.05,0,0,0,44.3,3.55,10.44,10.44,0,0,0,36.85.6ZM33.69,8.25h.16l2,0h0a2.38,2.38,0,0,1,1.8.64,4.75,4.75,0,0,1,1,3.36v2c0,2.67-1,4.06-2.85,4.12l-2.11.08,0-10.19Z"/>
          </g>
          <g>
            <path class="cls-1" d="M50.93,43a.78.78,0,0,1-.81-.78l.07-40.31a.79.79,0,0,1,.83-.8h5.9a.8.8,0,0,1,.83.79l0,40a.79.79,0,0,1-.81.8c-2.37.09-3.55.15-5.91.26Z"/>
            <path class="cls-2" d="M56.92,1.58a.3.3,0,0,1,.33.29q0,20,0,40a.3.3,0,0,1-.33.3c-2.37.09-3.55.15-5.92.26h0a.28.28,0,0,1-.31-.28q0-20.16.07-40.31a.3.3,0,0,1,.33-.3h5.9m0-1H51a1.3,1.3,0,0,0-1.32,1.3l0,24.19,0,16.12a1.26,1.26,0,0,0,.37.9,1.33,1.33,0,0,0,.94.38H51c2.39-.12,3.55-.17,5.91-.26a1.29,1.29,0,0,0,1.29-1.3l0-19.6,0-20.43A1.29,1.29,0,0,0,57.88,1a1.38,1.38,0,0,0-1-.38Z"/>
          </g>
          <g>
            <path class="cls-1" d="M70.81,43c-3.29,0-5.83-.87-7.54-2.58a7.57,7.57,0,0,1-2.15-5.5V31.47a.8.8,0,0,1,.82-.8l5.86-.09a.79.79,0,0,1,.83.79v2.71A2.77,2.77,0,0,0,69.16,36a2.27,2.27,0,0,0,1.76.59c1.76,0,2.63-.85,2.63-2.5,0-3-3.51-8-6.62-12.35l-.65-.92c-3.17-4.48-5-7.84-5-11.73S63.84.5,71,.5s9.75,4.25,9.75,8.22v1.9a.79.79,0,0,1-.82.79H74.25a.8.8,0,0,1-.83-.79V9.4a2.84,2.84,0,0,0-.58-1.95A2.3,2.3,0,0,0,71,6.8,2,2,0,0,0,68.71,9c0,2.36,1.38,4.23,3.67,7.33l.7.94c3.26,4.44,8.18,11.15,8.18,17.48,0,4.07-3.18,8.2-10.3,8.26Z"/>
            <path class="cls-2" d="M71,1c6.76,0,9.25,3.86,9.25,7.72v1.9a.29.29,0,0,1-.32.29H74.25a.3.3,0,0,1-.33-.29V9.4c0-1.95-.92-3.1-2.88-3.1h0A2.52,2.52,0,0,0,68.21,9c0,2.77,1.72,4.84,4.46,8.57,3.49,4.75,8.09,11.19,8.09,17.18,0,3.86-3,7.7-9.8,7.76h-.15c-6.67,0-9.2-3.73-9.19-7.58V31.47c0-.18.13-.29.33-.3l5.85-.09h0a.29.29,0,0,1,.32.29v2.71c0,1.94.84,3,2.79,3h0c2,0,3.09-1,3.09-3,0-3.4-4-8.74-7.36-13.55C63.74,16.31,61.77,12.91,61.77,9S64.28,1,71,1m0-1h0C63.47,0,60.78,4.87,60.77,9s1.87,7.46,5.11,12l.65.92c3.06,4.31,6.52,9.19,6.52,12.06,0,1.38-.65,2-2.1,2h0a1.9,1.9,0,0,1-1.42-.42,2.37,2.37,0,0,1-.4-1.54V31.37a1.29,1.29,0,0,0-1.32-1.29l-5.88.09a1.29,1.29,0,0,0-1.31,1.3v3.41A8.14,8.14,0,0,0,63,40.83c1.8,1.74,4.42,2.63,7.79,2.63H71c7.46-.06,10.8-4.45,10.79-8.76,0-6.49-5-13.28-8.28-17.77L72.79,16c-2.24-3-3.58-4.84-3.58-7,0-1.1.61-1.65,1.82-1.65a1.86,1.86,0,0,1,1.44.48,2.41,2.41,0,0,1,.45,1.62v1.21a1.3,1.3,0,0,0,1.33,1.29H80a1.31,1.31,0,0,0,1-.39,1.26,1.26,0,0,0,.37-.9V8.72C81.29,4.5,78.6,0,71,0Z"/>
          </g>
          <g>
            <path class="cls-1" d="M105.08,43.32c-2.44-.15-3.66-.22-6.11-.35a.86.86,0,0,1-.74-.5l0,0,0,0c-2-6.33-3-9.57-4.94-15.6l-1.31,3a.36.36,0,0,0,0,.15V41.83a.78.78,0,0,1-.81.81c-2.4-.08-3.58-.11-6-.16a.81.81,0,0,1-.82-.8l0-39.81a.8.8,0,0,1,.83-.79h5.91a.79.79,0,0,1,.82.79l0,13.56C94.21,10.25,95.53,7.26,98,1.62a1,1,0,0,1,.85-.54h6.3a.71.71,0,0,1,.59.3.78.78,0,0,1,.07.73c-3.18,6.41-4.8,9.62-8,16,3.27,9.69,4.89,14.53,8.07,24.18a.79.79,0,0,1-.1.71.76.76,0,0,1-.61.28Z"/>
            <path class="cls-2" d="M85.15,1.58h5.91a.29.29,0,0,1,.32.29c0,6,0,9,0,15,0,.16.08.23.17.23a.33.33,0,0,0,.23-.16c2.67-6,4-9,6.67-15.07a.57.57,0,0,1,.4-.24h6.3c.19,0,.26.18.2.35-3.22,6.48-4.83,9.67-8.05,16a.32.32,0,0,0,0,.35c3.22,9.56,4.83,14.38,8.05,24.18.07.22-.05.33-.23.33h0c-2.44-.15-3.67-.22-6.11-.35a.36.36,0,0,1-.33-.25L93.52,26c0-.15-.12-.22-.21-.22a.3.3,0,0,0-.25.21l-1.58,3.67a.85.85,0,0,0-.06.35c0,4.75,0,7.13,0,11.88a.28.28,0,0,1-.31.28h0c-2.37-.08-3.55-.11-5.92-.16a.31.31,0,0,1-.33-.3l0-39.81a.29.29,0,0,1,.33-.29m0-1h0a1.34,1.34,0,0,0-1,.38,1.27,1.27,0,0,0-.37.91l0,39.81A1.3,1.3,0,0,0,85.16,43c2.39.05,3.55.08,5.91.16h.05a1.29,1.29,0,0,0,.94-.38,1.26,1.26,0,0,0,.37-.9V30l.76-1.78c1.67,5.24,2.69,8.46,4.53,14.32l0,.09.05.09a1.35,1.35,0,0,0,1.16.76l6.1.35h.09a1.23,1.23,0,0,0,1-.47,1.28,1.28,0,0,0,.2-1.13v0c-3.15-9.58-4.77-14.43-8-24,3.17-6.25,4.79-9.47,7.93-15.79l0-.05,0,0a1.29,1.29,0,0,0-.13-1.19,1.21,1.21,0,0,0-1-.51h-6.3a1.58,1.58,0,0,0-1.27.74l0,.05,0,0c-2.1,4.79-3.38,7.68-5.16,11.67V1.87A1.29,1.29,0,0,0,91.06.58Z"/>
          </g>
          <g>
            <path class="cls-1" d="M125.21,45c-6.1-.64-9.09-.91-15.2-1.36a.83.83,0,0,1-.8-.82l-.08-40.95a.79.79,0,0,1,.23-.56.86.86,0,0,1,.6-.24l15.23,0a.81.81,0,0,1,.83.81V7.07a.79.79,0,0,1-.23.57.84.84,0,0,1-.6.24c-3.41-.06-5.15-.08-8.49-.12l0,9.52,5.36.2a.81.81,0,0,1,.81.81v5.12a.79.79,0,0,1-.81.79c-2.18-.11-3.28-.17-5.36-.26l0,13.61c3.41.26,5.11.4,8.53.72a.84.84,0,0,1,.79.83v5.15a.8.8,0,0,1-.22.56.82.82,0,0,1-.56.22Z"/>
            <path class="cls-2" d="M110,1.59l15.23,0a.31.31,0,0,1,.33.31c0,2.06,0,3.09,0,5.15a.3.3,0,0,1-.33.31h0l-8.66-.13h0a.29.29,0,0,0-.32.3c0,4,0,6,0,9.91a.32.32,0,0,0,.33.32l5.51.2a.31.31,0,0,1,.33.31c0,2.05,0,3.07,0,5.12a.28.28,0,0,1-.31.29h0c-2.2-.12-3.31-.17-5.51-.27h0a.28.28,0,0,0-.31.28c0,5.6,0,8.4,0,14a.33.33,0,0,0,.33.33c3.46.26,5.2.41,8.66.73a.33.33,0,0,1,.33.33c0,2.06,0,3.09,0,5.16a.25.25,0,0,1-.28.27h0c-6.09-.65-9.13-.92-15.23-1.37a.32.32,0,0,1-.33-.32q0-20.48-.08-40.95a.3.3,0,0,1,.33-.3m0-1h0A1.3,1.3,0,0,0,109,1a1.24,1.24,0,0,0-.38.91l.08,41A1.33,1.33,0,0,0,110,44.16c6.11.45,9.09.72,15.19,1.36h.16a1.26,1.26,0,0,0,1.28-1.28V39.1a1.33,1.33,0,0,0-1.24-1.33c-3.27-.3-5-.44-8.08-.68l0-12.63c1.75.08,2.83.13,4.79.24h.07a1.33,1.33,0,0,0,.94-.38,1.27,1.27,0,0,0,.37-.91V18.29A1.31,1.31,0,0,0,122.11,17l-4.88-.18V8.26l8,.12h0a1.32,1.32,0,0,0,1-.39,1.3,1.3,0,0,0,.38-.92V1.92A1.32,1.32,0,0,0,125.19.61L110,.59Z"/>
          </g>
          <g>
            <path class="cls-1" d="M141.89,47.77c-2.32-.33-3.49-.49-5.81-.79a.85.85,0,0,1-.76-.85l0-38.08L129.59,8a.81.81,0,0,1-.82-.82V1.93a.8.8,0,0,1,.83-.81l18.83,0a.8.8,0,0,1,.83.83V7.5a.8.8,0,0,1-.82.82l-5.67-.12,0,38.8a.82.82,0,0,1-.22.56.78.78,0,0,1-.55.22Z"/>
            <path class="cls-2" d="M129.59,1.62h0l18.83,0a.31.31,0,0,1,.33.33V7.5a.3.3,0,0,1-.32.32h0l-5.83-.13h0a.3.3,0,0,0-.32.32c0,12.77,0,26.22,0,39a.26.26,0,0,1-.27.28H142c-2.32-.33-3.49-.48-5.82-.79a.34.34,0,0,1-.32-.35c0-12.53,0-25.73-.06-38.26a.31.31,0,0,0-.32-.32l-5.84-.1a.31.31,0,0,1-.33-.32c0-2.08,0-3.12,0-5.2a.3.3,0,0,1,.33-.31m0-1h0a1.34,1.34,0,0,0-1,.38,1.3,1.3,0,0,0-.38.93v5.2a1.3,1.3,0,0,0,1.31,1.32l5.19.09,0,15.34,0,22.25a1.35,1.35,0,0,0,1.2,1.35c2.34.3,3.48.45,5.8.78l.2,0a1.25,1.25,0,0,0,.9-.37,1.28,1.28,0,0,0,.37-.92V44.61l0-35.9,5.14.11h0a1.31,1.31,0,0,0,1.35-1.32V2A1.31,1.31,0,0,0,148.43.66l-18.84,0Z"/>
          </g>
        </g>
        <g>
          <path class="cls-3" d="M24.3,88.91a.52.52,0,0,1-.38-.19l-.1-.17a.18.18,0,0,1,0-.17,14.87,14.87,0,0,1,.75-2.46c.32-.79.79-1.8,1.4-3q.5-1.06,1.65-3.15c.36-.61.61-1.07.77-1.38l.8-1.57a.69.69,0,0,0-.38-.08,1.35,1.35,0,0,0-.42.08l-.35.12a1.47,1.47,0,0,1-1,.15,1.78,1.78,0,0,0-.19-.58A7,7,0,0,1,29,75.41l1.46-.61c1.38-2.08,2.42-3.66,3.11-4.76l.49-.73c.16-.23.29-.44.39-.61.48-.67.91-1.28,1.28-1.85s.7-1,1-1.45a1.41,1.41,0,0,0-.77-.23,2.56,2.56,0,0,0-.92.19l-.44.11a1.51,1.51,0,0,1-.59,0,.46.46,0,0,1-.39-.46.57.57,0,0,0,.12-.17.37.37,0,0,1,.15-.17,6.69,6.69,0,0,1,1.23-.43c1-.2,2-.39,3.05-.55A27.44,27.44,0,0,1,41,63.4a40.6,40.6,0,0,0,4.22-.46,10.19,10.19,0,0,0,4.26-1.53.55.55,0,0,1,.46.65,1.75,1.75,0,0,1-.54.57,5.07,5.07,0,0,1-.65.35l-.46.19a15.52,15.52,0,0,1-5.26,1.07,43.5,43.5,0,0,0-4.45.54A15.24,15.24,0,0,0,36.85,67a7.4,7.4,0,0,1-.62.88,23.18,23.18,0,0,0-1.3,2l-.65,1-.5.77A13.85,13.85,0,0,0,32.28,74a.58.58,0,0,1,.25.11.28.28,0,0,0,.21.08c1.79-.36,3.13-.64,4-.84a11.8,11.8,0,0,0,2.2-.62,12.91,12.91,0,0,0,2-1.19c.2.08.31.2.31.35a1.78,1.78,0,0,1-.16.57,4.38,4.38,0,0,1-2.38,1.42,32.47,32.47,0,0,1-3.37.77,28.5,28.5,0,0,0-3.92,1,2.67,2.67,0,0,0-.65.55,4.7,4.7,0,0,0-.46.67q-1.18,1.92-2.63,4.76c-1,1.9-1.72,3.54-2.28,5v.12a.64.64,0,0,0,.27.42.61.61,0,0,1,.27.46,4.78,4.78,0,0,1-1.31,1.19A1.23,1.23,0,0,1,24.3,88.91Z"/>
          <path class="cls-3" d="M39.45,81a1.63,1.63,0,0,1-.34-.8,14.73,14.73,0,0,1,2.11-5.41c.25,0,.38,0,.38,0l.35.49a11.25,11.25,0,0,1-.69,1.62,13.28,13.28,0,0,0-.67,1.53,4.74,4.74,0,0,0-.29,1.46A8.07,8.07,0,0,0,42,78.52q.46-.42,1-.81a8.91,8.91,0,0,1,1-.65l.46.65a23.92,23.92,0,0,1-4,3.57A2.6,2.6,0,0,1,39.45,81Zm2-8a4.61,4.61,0,0,1,.29-1.13,7,7,0,0,1,.78-1,.33.33,0,0,1,.19,0l.35.27a2.14,2.14,0,0,1-.31,1c-.18.28-.47.69-.88,1.22Z"/>
          <path class="cls-3" d="M42.93,81.07a.91.91,0,0,1-.33-.56l1.07-2.26a35.29,35.29,0,0,0,1.92-4.34h.12a.59.59,0,0,1,.53.31,1.21,1.21,0,0,1,0,.38A2.76,2.76,0,0,1,46,75.79q-.27.58-.3.69a6.53,6.53,0,0,0-.54,1.42c.08.11.15.16.23.16a.32.32,0,0,0,.23-.14.85.85,0,0,1,.19-.17l1-.84A21.3,21.3,0,0,1,49.35,75l.35,0a1,1,0,0,1,1,.81,2.35,2.35,0,0,1-.3,1.22,3.42,3.42,0,0,0-.31,1.23,1.56,1.56,0,0,0,0,.42l2-1.49a1.07,1.07,0,0,1,.52.15.54.54,0,0,1,.21.42,12,12,0,0,1-3.3,2.76,1.06,1.06,0,0,1-.69-.25,1.57,1.57,0,0,1-.38-.63c.05-.28.15-.7.31-1.26.1-.31.22-.8.38-1.46a4.61,4.61,0,0,0-1.09.44c-.17.11-.51.39-1,.82L45.4,79.67l-.75.75a3.24,3.24,0,0,1-1.17.78A1,1,0,0,1,42.93,81.07Z"/>
          <path class="cls-3" d="M51.85,80.63a1.88,1.88,0,0,1-.31-1.08,4.35,4.35,0,0,1,.15-1,11.74,11.74,0,0,1,2.46-4.33,3.5,3.5,0,0,1,2-1.15,2.42,2.42,0,0,1,1,.55,2,2,0,0,1,.48,1A6.7,6.7,0,0,1,55,78.25a2.83,2.83,0,0,1-.38.08,1.55,1.55,0,0,1-.73-.25,2.07,2.07,0,0,0-.62-.29,2.66,2.66,0,0,0-.38.42c-.23.69-.4,1.24-.5,1.65a1,1,0,0,0,.58,1,.8.8,0,0,0,.38,0,3.54,3.54,0,0,0,1.19-.52,11.75,11.75,0,0,0,1.27-1l.61-.61a12.64,12.64,0,0,1,1.8-1.57,2,2,0,0,1,.48.17.39.39,0,0,1,.21.33,15.67,15.67,0,0,1-2.59,2.76,8.13,8.13,0,0,1-2.7,1.42A2,2,0,0,1,51.85,80.63Zm3.74-4.43a14,14,0,0,0,.9-1.63l-.27-.31a6.56,6.56,0,0,0-1.52,1,7,7,0,0,0-.94,1.75l.46.31A6.81,6.81,0,0,0,55.59,76.2Z"/>
          <path class="cls-3" d="M58.64,83.51a1.46,1.46,0,0,1-.85-.31,1.62,1.62,0,0,1-.48-.56,6.82,6.82,0,0,1-.21-1.09,2.54,2.54,0,0,1,.77-1.19,4.55,4.55,0,0,0,.65-.77c0-.18,0-.53,0-1A14.49,14.49,0,0,1,58.71,77a4.06,4.06,0,0,1,2.38-3.34,2.41,2.41,0,0,1,.81.19.9.9,0,0,1,.42.54.41.41,0,0,1-.23.25,1.66,1.66,0,0,1-.5.08.74.74,0,0,0-.5.17,9.51,9.51,0,0,0-1.17,1.46,2.43,2.43,0,0,0-.29,1.23,6.64,6.64,0,0,0,0,.76.47.47,0,0,0,.23,0,.6.6,0,0,0,.37-.13l.28-.21.66-.31a.81.81,0,0,1,.57.58,3.87,3.87,0,0,1-1,.92,4.56,4.56,0,0,0-.65.51,2.11,2.11,0,0,0-.46.64,2.19,2.19,0,0,0-.11.73l0,1.07a1.55,1.55,0,0,1-.42,1.15A1.17,1.17,0,0,1,58.64,83.51Zm.07-1.5a.64.64,0,0,0-.15-.39.54.54,0,0,0-.5.5.4.4,0,0,0,.42.35A.64.64,0,0,0,58.71,82Z"/>
          <path class="cls-3" d="M61.86,82.35a3,3,0,0,1-.31-1.42,6.65,6.65,0,0,1,.35-1.88c.07-.28.34-1.07.8-2.37l.46-1.39a5.51,5.51,0,0,0,.21-.65l.21-.69a1.75,1.75,0,0,0-1-.27H62a1.54,1.54,0,0,1-.8-.15C61,73.4,61,73.3,61,73.22a.48.48,0,0,1,.15-.34,2.26,2.26,0,0,1,1.34-.31h.62a3.18,3.18,0,0,0,.88-.08,1.28,1.28,0,0,0,.57-.5,3.19,3.19,0,0,0,.31-.61c.08-.2.14-.36.19-.46.72-1.61,1.75-3.71,3.11-6.29l.17-.08c.07,0,.11,0,.14,0a.37.37,0,0,1,.3.14,1.26,1.26,0,0,1,.23.44c-.46,1-.92,2-1.38,2.84a33.79,33.79,0,0,0-1.84,4.18.93.93,0,0,0,.52.42,1.39,1.39,0,0,0,.61,0c.22,0,.35,0,.41,0a2,2,0,0,1,.44.44.42.42,0,0,1,0,.36,1.68,1.68,0,0,1-1,.27l-.73,0a1.68,1.68,0,0,0-.84.19,15.69,15.69,0,0,0-1.65,3.6,14.69,14.69,0,0,0-.85,3.76,3.34,3.34,0,0,0,.77-.38,8.63,8.63,0,0,0,.77-.77c.92-1,1.39-1.51,1.42-1.53l.65-.66a4,4,0,0,1,.92-.69h.12c.25,0,.44.17.57.5-.51.52-1.25,1.31-2.22,2.38s-1.77,2-2.46,2.61l-.36,0a.45.45,0,0,1-.25,0A3.79,3.79,0,0,1,61.86,82.35Z"/>
          <path class="cls-3" d="M80.31,92.33a28.16,28.16,0,0,1,.54-3.49,21.18,21.18,0,0,0,.57-4.18c0-.26,0-.64-.07-1.15a.47.47,0,0,0-.23,0,.61.61,0,0,0-.41.15,1.16,1.16,0,0,1-.24.19l-.89.69a5.15,5.15,0,0,1-3,1.11,3.09,3.09,0,0,1-2-.67,3.65,3.65,0,0,1-1.25-1.78A5.32,5.32,0,0,1,73,81.43a3.65,3.65,0,0,1,0-.65,31.55,31.55,0,0,1,2.65-9.94,26.17,26.17,0,0,1,3-4.75c.1-.26.27-.81.5-1.65a8.38,8.38,0,0,1,2.91-4.18,5.45,5.45,0,0,1,3.57-1.46,3.9,3.9,0,0,1,3.11,1.53A5.57,5.57,0,0,1,90.1,63.9a16.87,16.87,0,0,1-.73,4.26q-.78,2.41-1.81,5.14a31,31,0,0,1-5.14,8.75c0,.3,0,.75,0,1.34a44.81,44.81,0,0,1-1.23,9.21l-.46.11A4.64,4.64,0,0,1,80.31,92.33ZM78.53,84a18.31,18.31,0,0,0,2.82-2.43,52.32,52.32,0,0,0-1.46-7l-.23-.95c-.31-1.18-.53-2.08-.65-2.71a11.54,11.54,0,0,1-.23-2,1.26,1.26,0,0,0-.12-.29,1,1,0,0,1-.11-.29,4.93,4.93,0,0,0-.9,1.06q-.33.51-.75,1.32A32.58,32.58,0,0,0,74.21,79a11.88,11.88,0,0,0-.23,2.3,5.6,5.6,0,0,0,.37,2.21,2.56,2.56,0,0,0,1.43,1.32A4.63,4.63,0,0,0,78.53,84ZM83,79.67c.15-.21.24-.33.27-.39a30.65,30.65,0,0,0,3.3-6c.71-1.76,1.49-4,2.34-6.79a9,9,0,0,0,.38-2.38,6.9,6.9,0,0,0-.54-2.65,3,3,0,0,0-1-1.3,2.67,2.67,0,0,0-1.55-.46,4.26,4.26,0,0,0-1.46.31,7.48,7.48,0,0,0-4.53,4.91c.72.15,1.3.27,1.76.34.44.44.72.74.85.9a.8.8,0,0,1,.19.48,3.71,3.71,0,0,1-.08.58,1.42,1.42,0,0,1-.61-.58,1.22,1.22,0,0,0-.88-.65,2.25,2.25,0,0,0-1.73,1.11l0,.89c0,.41,0,1,.08,1.76a21.56,21.56,0,0,0,.34,2.19c.72,3,1.34,5.55,1.88,7.67a1.35,1.35,0,0,0,.15.42.28.28,0,0,0,.31.08A1.21,1.21,0,0,0,83,79.67Z"/>
          <path class="cls-3" d="M86.83,79.55a5.28,5.28,0,0,1,.08-.61,17.25,17.25,0,0,1,1-2.4,13.37,13.37,0,0,1,1.38-2.36c.28,0,.42.22.42.58a3.56,3.56,0,0,1-.27,1c-.1.25-.28.64-.54,1.15l-.46.92c-.15.33-.35.85-.61,1.57a.51.51,0,0,0,0,.25.85.85,0,0,1,0,.29c.18.25.37.3.58.15.89-.64,1.51-1.1,1.84-1.38l1.57-1.3c.21-.16.51-.41.92-.77.18-.26.37-.57.58-.92a7.14,7.14,0,0,1,1.07-1.5l.18,0,.09,0a.79.79,0,0,1,.42.65,3.37,3.37,0,0,1-.4.85,7.21,7.21,0,0,1-.4.61,8.62,8.62,0,0,0-.92,1.54,3.09,3.09,0,0,0-.23,1.57,4.53,4.53,0,0,0,1.26-.71c.36-.29.82-.7,1.38-1.21l.62-.59a4.75,4.75,0,0,1,.92-.71h.19c.26,0,.44.16.54.5a15.86,15.86,0,0,1-3.76,3.53,4.69,4.69,0,0,1-.58.07,1.37,1.37,0,0,1-.92-.27,7,7,0,0,1-.76-.84l-.2,0a.84.84,0,0,0-.59.23,2.8,2.8,0,0,1-.37.31l-1.49,1.15a1.47,1.47,0,0,1-1,.34,1.8,1.8,0,0,1-.73-.15A1.66,1.66,0,0,1,86.83,79.55Z"/>
          <path class="cls-3" d="M101,81.32a2,2,0,0,1-.86-.79,2.21,2.21,0,0,0-.52-.63l-.17,0a.24.24,0,0,0-.21.06,3.15,3.15,0,0,1-1.62.53,2.34,2.34,0,0,1-.72-.11A1.47,1.47,0,0,1,96,79.21a1.54,1.54,0,0,1,.08-.54,12,12,0,0,1,2.69-4.18A3,3,0,0,1,101,73.34a3.24,3.24,0,0,1,.77.11,2.11,2.11,0,0,1,1.15,1.61c-.1.18-.22.27-.34.27a.73.73,0,0,1-.35-.15,2.63,2.63,0,0,1-.33-.48,1.06,1.06,0,0,0-.51-.48,1.13,1.13,0,0,0-.69.14,3.31,3.31,0,0,0-.7.55,11.84,11.84,0,0,0-2.68,3.68.42.42,0,0,0,0,.2,3.5,3.5,0,0,0,.19.8A3.52,3.52,0,0,0,98.59,79c.32-.25.78-.62,1.36-1.14a9.63,9.63,0,0,1,1.23-1.07.9.9,0,0,1,.31,0A.59.59,0,0,1,102,77a.72.72,0,0,1,.08.39l-.41.86c-.16.34-.34.75-.51,1.21a.9.9,0,0,0-.12.42.78.78,0,0,0,.31.61,2.61,2.61,0,0,0,1.07-.52,10.25,10.25,0,0,0,1.08-1,6.6,6.6,0,0,1,1.49-1.31h.12c.25,0,.43.18.53.54a15,15,0,0,1-3.68,3.41Z"/>
          <path class="cls-3" d="M103.79,82a1.65,1.65,0,0,1,0-.39,17.94,17.94,0,0,1,1.38-5,73.36,73.36,0,0,1,8-14.39,4.57,4.57,0,0,1,.26-.42,1.16,1.16,0,0,1,.58-.46H114c.25,0,.46.18.61.54l-1.11,1.65-.89,1.3q-1.06,1.53-1.53,2.34c-1.23,2.23-2.2,4-2.92,5.39s-1.36,2.8-2,4.28A23.48,23.48,0,0,0,104.86,81v.08c0,.15.12.31.35.46a15.23,15.23,0,0,0,2.11-1.5,10.13,10.13,0,0,1,2.19-1.57c.3.08.48.22.53.42s0,.28-.07.31q-1.92,1.61-4.07,3.26a3.39,3.39,0,0,1-.8.46A1.14,1.14,0,0,1,103.79,82Z"/>
          <path class="cls-3" d="M109.74,81a1.61,1.61,0,0,1-.35-.8,14.91,14.91,0,0,1,2.11-5.41c.26,0,.39,0,.39,0l.34.49a10.19,10.19,0,0,1-.69,1.62,15.29,15.29,0,0,0-.67,1.53,5,5,0,0,0-.29,1.46,8.09,8.09,0,0,0,1.73-1.38q.47-.42,1-.81a7.4,7.4,0,0,1,1-.65l.46.65a24.74,24.74,0,0,1-4,3.57A2.6,2.6,0,0,1,109.74,81Zm2-8a4.61,4.61,0,0,1,.29-1.13,7.44,7.44,0,0,1,.79-1,.35.35,0,0,1,.19,0l.34.27a2.14,2.14,0,0,1-.3,1c-.18.28-.48.69-.89,1.22Z"/>
          <path class="cls-3" d="M113.8,82.35a3.16,3.16,0,0,1-.3-1.42,6.58,6.58,0,0,1,.34-1.88q.12-.42.81-2.37l.46-1.39a5.51,5.51,0,0,0,.21-.65q.09-.35.21-.69a1.76,1.76,0,0,0-1-.27h-.57a1.61,1.61,0,0,1-.81-.15c-.12-.13-.19-.23-.19-.31a.45.45,0,0,1,.16-.34,2.24,2.24,0,0,1,1.34-.31H115a3.13,3.13,0,0,0,.88-.08,1.3,1.3,0,0,0,.58-.5,3.19,3.19,0,0,0,.31-.61,4.1,4.1,0,0,1,.19-.46q1.07-2.42,3.11-6.29l.17-.08c.06,0,.11,0,.13,0a.4.4,0,0,1,.31.14,1.45,1.45,0,0,1,.23.44c-.46,1-.92,2-1.38,2.84a33.79,33.79,0,0,0-1.84,4.18.9.9,0,0,0,.52.42,1.38,1.38,0,0,0,.61,0c.22,0,.35,0,.4,0a1.76,1.76,0,0,1,.44.44.38.38,0,0,1,0,.36,1.65,1.65,0,0,1-1,.27l-.73,0a1.7,1.7,0,0,0-.85.19,16.59,16.59,0,0,0-1.65,3.6,14.6,14.6,0,0,0-.84,3.76,3.58,3.58,0,0,0,.77-.38,10.33,10.33,0,0,0,.77-.77l1.41-1.53.66-.66a3.75,3.75,0,0,1,.92-.69h.11c.26,0,.45.17.58.5-.51.52-1.26,1.31-2.23,2.38s-1.76,2-2.45,2.61l-.37,0a.46.46,0,0,1-.25,0A4.07,4.07,0,0,1,113.8,82.35Z"/>
          <path class="cls-3" d="M112.77,94.09a2.31,2.31,0,0,1-.23-1,4.14,4.14,0,0,1,.46-1.69,10.58,10.58,0,0,1,2.15-2.8Q117,86.8,118.6,85.5a5.37,5.37,0,0,0,1.73-2.26,9.1,9.1,0,0,1,.5-1.17c.2-.43.34-.74.42-.94a1.25,1.25,0,0,0,.15-1,.21.21,0,0,1,.15,0v-.15l-.15.19a1.76,1.76,0,0,0-1,.23,1.9,1.9,0,0,1-.53.25.62.62,0,0,1-.46-.06,1.56,1.56,0,0,1-.75-.44,2.12,2.12,0,0,1-.4-.71.78.78,0,0,0,0-.27.82.82,0,0,1,0-.31A9.88,9.88,0,0,1,119,77c.31-.57.71-1.27,1.19-2.09,0-.08.13-.14.31-.19h.08a.31.31,0,0,1,.28.17l.14.25a3.91,3.91,0,0,1-.46,1.21c-.23.4-.36.63-.39.71-.28.49-.48.88-.61,1.17a3,3,0,0,0-.23.94c.18.26.38.32.61.19.8-.46,1.45-.87,2-1.23a8,8,0,0,0,2.38-2.87,4.51,4.51,0,0,1,.52-.83,2.68,2.68,0,0,1,.63-.59,2.35,2.35,0,0,1,.58.34,7.71,7.71,0,0,1-1,2l-.46.77c-.77,1.45-1.22,2.32-1.34,2.61l-.35.72a7.48,7.48,0,0,0-.84,2.11.27.27,0,0,1,.11.1s0,.06.08.06a2.09,2.09,0,0,0,.71-.29,2.3,2.3,0,0,0,.36-.25,2.86,2.86,0,0,1,1.15-.57.71.71,0,0,1,.43.11.83.83,0,0,1,.23.42,4.58,4.58,0,0,1-.73.64l-.54.36a5.52,5.52,0,0,0-.84.54L121,85a6.7,6.7,0,0,0-.81,1.52c-.2.55-.34.92-.42,1.13q-1.34,3.38-1.92,4.6A7.59,7.59,0,0,1,116.76,94a2.74,2.74,0,0,1-2.15,1.11A2.32,2.32,0,0,1,112.77,94.09Zm3.76-1.65A22,22,0,0,0,118.41,88a.6.6,0,0,0,.07-.27.36.36,0,0,0-.15-.3,10.79,10.79,0,0,0-2.8,2.3,9.43,9.43,0,0,0-1.84,2.8,2.13,2.13,0,0,0-.19.8.94.94,0,0,0,.65.93A3.33,3.33,0,0,0,116.53,92.44Z"/>
        </g>
      </g>
    </g>
  </g>
</svg>
