<svg width="167" height="60" viewBox="0 0 167 60" fill="none" xmlns="http://www.w3.org/2000/svg">
<g clip-path="url(#clip0_1_414)">
<path d="M97.6471 24.875C97.1148 27.3647 95.3403 29.8544 91.3477 29.8544C87.0889 29.8544 84.6047 26.8312 84.6047 22.2075C84.6047 17.9395 87.0889 14.3828 91.5251 14.3828C96.0501 14.3828 97.4697 17.6727 97.6471 19.4511H94.5418C94.1869 18.1173 93.3883 16.9614 91.5251 16.9614C89.2183 16.9614 87.8875 18.9176 87.8875 22.1186C87.8875 25.4085 89.2183 27.2758 91.4364 27.2758C93.1222 27.2758 94.0094 26.3866 94.5418 24.875H97.6471Z" fill="white" fill-opacity="0.6"/>
<path d="M100.575 8.33643H103.769V11.7153H100.575V8.33643ZM100.575 14.6495H103.769V29.4098H100.575V14.6495Z" fill="white" fill-opacity="0.6"/>
<path d="M107.584 18.7398C107.584 16.9614 107.584 15.7166 107.584 14.7385H110.69C110.778 15.0941 110.778 16.4279 110.778 17.5838C111.488 15.7166 113.174 14.4717 115.658 14.3828V17.4949C112.641 17.4949 110.778 18.7398 110.778 22.6521V29.4987H107.584V18.7398Z" fill="white" fill-opacity="0.6"/>
<path d="M129.854 24.875C129.322 27.3647 127.547 29.8544 123.555 29.8544C119.296 29.8544 116.812 26.8312 116.812 22.2075C116.812 17.9395 119.296 14.3828 123.732 14.3828C128.257 14.3828 129.677 17.6727 129.854 19.4511H126.749C126.394 18.1173 125.595 16.9614 123.732 16.9614C121.425 16.9614 120.094 18.9176 120.094 22.1186C120.094 25.4085 121.425 27.2758 123.643 27.2758C125.329 27.2758 126.216 26.3866 126.749 24.875H129.854Z" fill="white" fill-opacity="0.6"/>
<path d="M132.604 29.4987V8.33643H135.798V29.4987H132.604Z" fill="white" fill-opacity="0.6"/>
<path d="M141.832 22.741C141.832 25.2307 143.074 27.2758 145.381 27.2758C147.421 27.2758 148.131 26.2977 148.486 25.3196H151.68C151.148 27.1869 149.551 29.8544 145.203 29.8544C140.501 29.8544 138.46 26.1199 138.46 22.2964C138.46 17.7617 140.767 14.3828 145.292 14.3828C150.172 14.3828 151.769 18.1173 151.769 21.4962C151.769 21.9408 151.769 22.2964 151.68 22.741H141.832ZM148.752 20.607C148.752 18.473 147.687 16.6947 145.469 16.6947C143.163 16.6947 142.187 18.2952 141.92 20.607H148.752Z" fill="white" fill-opacity="0.6"/>
<path d="M156.915 25.1418C157.27 26.5645 158.423 27.3648 160.198 27.3648C162.061 27.3648 162.771 26.5645 162.771 25.4086C162.771 24.1637 162.15 23.7192 159.577 23.0967C155.14 22.0297 154.253 20.6071 154.253 18.562C154.253 16.428 155.761 14.2939 159.843 14.2939C163.924 14.2939 165.432 16.6058 165.61 18.6509H162.593C162.416 17.8506 161.883 16.6947 159.754 16.6947C157.979 16.6947 157.447 17.495 157.447 18.3841C157.447 19.3622 157.979 19.8068 160.552 20.4292C165.255 21.4962 166.053 23.0967 166.053 25.3197C166.053 27.8093 164.101 29.8544 160.109 29.8544C156.028 29.8544 154.164 27.8093 153.809 25.2308H156.915V25.1418Z" fill="white" fill-opacity="0.6"/>
<path d="M91.1702 49.3273C91.1702 50.2165 91.259 50.9278 91.259 51.1945H90.5492C90.4604 50.9278 90.4604 50.4832 90.3717 49.594C90.0168 50.5721 89.0409 51.4613 87.2664 51.4613C85.137 51.4613 84.2498 50.1275 84.2498 48.7049C84.2498 46.6598 85.7581 45.7706 88.5085 45.7706C89.3958 45.7706 90.0168 45.7706 90.4604 45.7706V44.7036C90.4604 43.6366 90.1055 42.3918 87.9762 42.3918C86.113 42.3918 85.6693 43.3698 85.4919 44.3479H84.7821C84.8708 43.192 85.5806 41.6804 88.0649 41.6804C90.1943 41.6804 91.259 42.6585 91.259 44.5258V49.3273H91.1702ZM90.4604 46.4819C90.0168 46.4819 89.2183 46.4819 88.5085 46.4819C86.2904 46.4819 85.0483 47.1044 85.0483 48.7049C85.0483 49.9497 85.9355 50.75 87.3551 50.75C89.8394 50.75 90.4604 49.1495 90.4604 47.0154V46.4819Z" fill="white" fill-opacity="0.6"/>
<path d="M93.832 48.7048C94.1868 50.0386 94.9854 50.7499 96.5824 50.7499C98.2682 50.7499 98.9779 49.9497 98.9779 48.8827C98.9779 47.8156 98.5343 47.1932 96.4049 46.6597C94.0981 46.0373 93.4771 45.4149 93.4771 44.17C93.4771 42.9252 94.3643 41.7693 96.4049 41.7693C98.4456 41.7693 99.4216 43.0141 99.599 44.3479H98.8892C98.7118 43.4587 98.0907 42.4806 96.4049 42.4806C94.7192 42.4806 94.1868 43.2809 94.1868 44.0811C94.1868 44.9703 94.6305 45.5038 96.5824 45.9484C99.0667 46.5708 99.7765 47.3711 99.7765 48.7937C99.7765 50.3942 98.4456 51.4612 96.5824 51.4612C94.453 51.4612 93.3883 50.3942 93.1222 48.7048H93.832Z" fill="white" fill-opacity="0.6"/>
<path d="M101.995 48.7048C102.349 50.0386 103.148 50.7499 104.745 50.7499C106.431 50.7499 107.141 49.9497 107.141 48.8827C107.141 47.8156 106.697 47.1932 104.568 46.6597C102.261 46.0373 101.64 45.4149 101.64 44.17C101.64 42.9252 102.527 41.7693 104.568 41.7693C106.608 41.7693 107.584 43.0141 107.762 44.3479H107.052C106.874 43.4587 106.253 42.4806 104.568 42.4806C102.882 42.4806 102.349 43.2809 102.349 44.0811C102.349 44.9703 102.793 45.5038 104.745 45.9484C107.229 46.5708 107.939 47.3711 107.939 48.7937C107.939 50.3942 106.608 51.4612 104.745 51.4612C102.616 51.4612 101.551 50.3942 101.285 48.7048H101.995Z" fill="white" fill-opacity="0.6"/>
<path d="M117.521 46.5708C117.521 49.3272 116.013 51.3723 113.44 51.3723C110.956 51.3723 109.447 49.4162 109.447 46.5708C109.447 43.7255 111.044 41.7693 113.529 41.7693C115.836 41.7693 117.521 43.6365 117.521 46.5708ZM110.157 46.5708C110.157 48.7937 111.311 50.661 113.44 50.661C115.569 50.661 116.723 48.9716 116.723 46.5708C116.723 44.3479 115.569 42.4806 113.44 42.4806C111.222 42.4806 110.157 44.3479 110.157 46.5708Z" fill="white" fill-opacity="0.6"/>
<path d="M126.482 48.527C126.039 50.2164 124.885 51.3723 122.933 51.3723C120.627 51.3723 119.03 49.594 119.03 46.5708C119.03 43.9033 120.449 41.7693 123.022 41.7693C125.24 41.7693 126.216 43.3698 126.482 44.7035H125.684C125.418 43.5476 124.619 42.4806 123.022 42.4806C120.982 42.4806 119.828 44.259 119.828 46.5708C119.828 48.8827 120.893 50.661 122.933 50.661C124.353 50.661 125.24 49.9497 125.684 48.527H126.482Z" fill="white" fill-opacity="0.6"/>
<path d="M128.701 37.5012H129.41V39.2796H128.701V37.5012ZM128.701 42.036H129.41V51.1945H128.701V42.036Z" fill="white" fill-opacity="0.6"/>
<path d="M138.46 49.3273C138.46 50.2165 138.549 50.9278 138.549 51.1945H137.839C137.75 50.9278 137.75 50.4832 137.662 49.594C137.307 50.5721 136.331 51.4613 134.556 51.4613C132.427 51.4613 131.54 50.1275 131.54 48.7049C131.54 46.6598 133.048 45.7706 135.798 45.7706C136.686 45.7706 137.307 45.7706 137.75 45.7706V44.7036C137.75 43.6366 137.395 42.3918 135.266 42.3918C133.403 42.3918 132.959 43.3698 132.782 44.3479H132.072C132.161 43.192 132.871 41.6804 135.355 41.6804C137.484 41.6804 138.549 42.6585 138.549 44.5258V49.3273H138.46ZM137.662 46.4819C137.218 46.4819 136.419 46.4819 135.71 46.4819C133.492 46.4819 132.249 47.1044 132.249 48.7049C132.249 49.9497 133.137 50.75 134.556 50.75C137.041 50.75 137.662 49.1495 137.662 47.0154V46.4819Z" fill="white" fill-opacity="0.6"/>
<path d="M139.88 42.0361H141.566V39.1018H142.275V42.0361H144.493V42.7474H142.275V49.0605C142.275 50.0386 142.453 50.7499 143.429 50.7499C143.695 50.7499 144.05 50.7499 144.316 50.661V51.2834C144.05 51.3724 143.606 51.4613 143.34 51.4613C142.187 51.4613 141.566 50.9278 141.566 49.3273V42.7474H139.88V42.0361Z" fill="white" fill-opacity="0.6"/>
<path d="M146.179 37.5012H146.889V39.2796H146.179V37.5012ZM146.179 42.036H146.889V51.1945H146.179V42.036Z" fill="white" fill-opacity="0.6"/>
<path d="M157.181 46.5708C157.181 49.3272 155.673 51.3723 153.1 51.3723C150.615 51.3723 149.107 49.4162 149.107 46.5708C149.107 43.7255 150.704 41.7693 153.188 41.7693C155.495 41.7693 157.181 43.6365 157.181 46.5708ZM149.817 46.5708C149.817 48.7937 150.97 50.661 153.1 50.661C155.229 50.661 156.382 48.9716 156.382 46.5708C156.382 44.3479 155.229 42.4806 153.1 42.4806C150.882 42.4806 149.817 44.3479 149.817 46.5708Z" fill="white" fill-opacity="0.6"/>
<path d="M159.31 44.259C159.31 43.4587 159.31 42.5695 159.31 41.9471H160.02C160.02 42.3028 160.109 43.3698 160.02 43.9033C160.375 42.9252 161.174 41.7693 163.214 41.7693C164.811 41.7693 166.32 42.6585 166.32 45.2371V51.1945H165.61V45.4149C165.61 43.7255 164.9 42.5695 163.214 42.5695C160.996 42.5695 160.109 44.4368 160.109 46.4819V51.2834H159.399V44.259H159.31Z" fill="white" fill-opacity="0.6"/>
<path d="M43.1705 24.697C46.0126 24.697 48.3165 22.388 48.3165 19.5398C48.3165 16.6915 46.0126 14.3826 43.1705 14.3826C40.3285 14.3826 38.0245 16.6915 38.0245 19.5398C38.0245 22.388 40.3285 24.697 43.1705 24.697Z" fill="white" fill-opacity="0.6"/>
<path d="M32.9673 34.3002C35.6623 34.3002 37.8471 32.1106 37.8471 29.4097C37.8471 26.7088 35.6623 24.5193 32.9673 24.5193C30.2722 24.5193 28.0874 26.7088 28.0874 29.4097C28.0874 32.1106 30.2722 34.3002 32.9673 34.3002Z" fill="white" fill-opacity="0.6"/>
<path d="M54.7934 14.3827C57.3904 14.3827 59.4958 12.2728 59.4958 9.67013C59.4958 7.06743 57.3904 4.95752 54.7934 4.95752C52.1963 4.95752 50.091 7.06743 50.091 9.67013C50.091 12.2728 52.1963 14.3827 54.7934 14.3827Z" fill="white" fill-opacity="0.6"/>
<path d="M21.3444 43.6365C23.1574 43.6365 24.6272 42.1635 24.6272 40.3466C24.6272 38.5296 23.1574 37.0566 21.3444 37.0566C19.5313 37.0566 18.0616 38.5296 18.0616 40.3466C18.0616 42.1635 19.5313 43.6365 21.3444 43.6365Z" fill="white" fill-opacity="0.6"/>
<path d="M45.921 42.7472C47.783 42.7472 49.2925 41.2344 49.2925 39.3684C49.2925 37.5023 47.783 35.9895 45.921 35.9895C44.0589 35.9895 42.5494 37.5023 42.5494 39.3684C42.5494 41.2344 44.0589 42.7472 45.921 42.7472Z" fill="white" fill-opacity="0.6"/>
<path d="M26.3129 38.1235C28.077 38.1235 29.507 36.6903 29.507 34.9225C29.507 33.1546 28.077 31.7214 26.3129 31.7214C24.5489 31.7214 23.1189 33.1546 23.1189 34.9225C23.1189 36.6903 24.5489 38.1235 26.3129 38.1235Z" fill="white" fill-opacity="0.6"/>
<path d="M38.2907 37.7678C39.7117 37.7678 40.8637 36.6133 40.8637 35.1892C40.8637 33.7651 39.7117 32.6106 38.2907 32.6106C36.8697 32.6106 35.7177 33.7651 35.7177 35.1892C35.7177 36.6133 36.8697 37.7678 38.2907 37.7678Z" fill="white" fill-opacity="0.6"/>
<path d="M35.0966 24.0747C36.4197 24.0747 37.4922 22.9999 37.4922 21.674C37.4922 20.3481 36.4197 19.2732 35.0966 19.2732C33.7736 19.2732 32.7011 20.3481 32.7011 21.674C32.7011 22.9999 33.7736 24.0747 35.0966 24.0747Z" fill="white" fill-opacity="0.6"/>
<path d="M13.1818 47.9044C14.4068 47.9044 15.3999 46.9091 15.3999 45.6814C15.3999 44.4537 14.4068 43.4585 13.1818 43.4585C11.9568 43.4585 10.9637 44.4537 10.9637 45.6814C10.9637 46.9091 11.9568 47.9044 13.1818 47.9044Z" fill="white" fill-opacity="0.6"/>
<path d="M35.2741 7.09146C36.5481 7.09146 37.5809 6.05641 37.5809 4.77962C37.5809 3.50282 36.5481 2.46777 35.2741 2.46777C34.0001 2.46777 32.9673 3.50282 32.9673 4.77962C32.9673 6.05641 34.0001 7.09146 35.2741 7.09146Z" fill="white" fill-opacity="0.6"/>
<path d="M38.9118 10.5591C40.1368 10.5591 41.1299 9.5639 41.1299 8.33621C41.1299 7.10852 40.1368 6.11328 38.9118 6.11328C37.6867 6.11328 36.6937 7.10852 36.6937 8.33621C36.6937 9.5639 37.6867 10.5591 38.9118 10.5591Z" fill="white" fill-opacity="0.6"/>
<path d="M49.3812 16.8725C50.4102 16.8725 51.2444 16.0365 51.2444 15.0052C51.2444 13.9739 50.4102 13.1379 49.3812 13.1379C48.3522 13.1379 47.518 13.9739 47.518 15.0052C47.518 16.0365 48.3522 16.8725 49.3812 16.8725Z" fill="white" fill-opacity="0.6"/>
<path d="M39.0005 44.9701C40.3725 44.9701 41.4848 43.8554 41.4848 42.4804C41.4848 41.1054 40.3725 39.9907 39.0005 39.9907C37.6285 39.9907 36.5162 41.1054 36.5162 42.4804C36.5162 43.8554 37.6285 44.9701 39.0005 44.9701Z" fill="white" fill-opacity="0.6"/>
<path d="M17.618 45.8593C18.402 45.8593 19.0376 45.2223 19.0376 44.4366C19.0376 43.6509 18.402 43.0139 17.618 43.0139C16.834 43.0139 16.1984 43.6509 16.1984 44.4366C16.1984 45.2223 16.834 45.8593 17.618 45.8593Z" fill="white" fill-opacity="0.6"/>
<path d="M9.18921 51.0166C10.1692 51.0166 10.9637 50.2205 10.9637 49.2383C10.9637 48.2562 10.1692 47.46 9.18921 47.46C8.2092 47.46 7.41473 48.2562 7.41473 49.2383C7.41473 50.2205 8.2092 51.0166 9.18921 51.0166Z" fill="white" fill-opacity="0.6"/>
<path d="M33.4996 46.7484C34.5286 46.7484 35.3628 45.9124 35.3628 44.8812C35.3628 43.8499 34.5286 43.0139 33.4996 43.0139C32.4706 43.0139 31.6364 43.8499 31.6364 44.8812C31.6364 45.9124 32.4706 46.7484 33.4996 46.7484Z" fill="white" fill-opacity="0.6"/>
<path d="M30.9266 4.69062C31.8576 4.69062 32.6124 3.93424 32.6124 3.00119C32.6124 2.06815 31.8576 1.31177 30.9266 1.31177C29.9956 1.31177 29.2408 2.06815 29.2408 3.00119C29.2408 3.93424 29.9956 4.69062 30.9266 4.69062Z" fill="white" fill-opacity="0.6"/>
<path d="M39.0892 15.005C40.1182 15.005 40.9524 14.169 40.9524 13.1378C40.9524 12.1065 40.1182 11.2705 39.0892 11.2705C38.0602 11.2705 37.226 12.1065 37.226 13.1378C37.226 14.169 38.0602 15.005 39.0892 15.005Z" fill="white" fill-opacity="0.6"/>
<path d="M44.0578 13.7603C45.2828 13.7603 46.2759 12.7651 46.2759 11.5374C46.2759 10.3097 45.2828 9.31445 44.0578 9.31445C42.8327 9.31445 41.8397 10.3097 41.8397 11.5374C41.8397 12.7651 42.8327 13.7603 44.0578 13.7603Z" fill="white" fill-opacity="0.6"/>
<path d="M51.5993 29.5876C52.5303 29.5876 53.2851 28.8312 53.2851 27.8982C53.2851 26.9651 52.5303 26.2087 51.5993 26.2087C50.6683 26.2087 49.9135 26.9651 49.9135 27.8982C49.9135 28.8312 50.6683 29.5876 51.5993 29.5876Z" fill="white" fill-opacity="0.6"/>
<path d="M60.4717 26.0307C61.4027 26.0307 62.1575 25.2743 62.1575 24.3413C62.1575 23.4082 61.4027 22.6519 60.4717 22.6519C59.5407 22.6519 58.7859 23.4082 58.7859 24.3413C58.7859 25.2743 59.5407 26.0307 60.4717 26.0307Z" fill="white" fill-opacity="0.6"/>
<path d="M58.7859 28.1648C59.3739 28.1648 59.8506 27.6871 59.8506 27.0978C59.8506 26.5085 59.3739 26.0308 58.7859 26.0308C58.1979 26.0308 57.7213 26.5085 57.7213 27.0978C57.7213 27.6871 58.1979 28.1648 58.7859 28.1648Z" fill="white" fill-opacity="0.6"/>
<path d="M49.8248 26.2088C51.1478 26.2088 52.2204 25.1339 52.2204 23.808C52.2204 22.4821 51.1478 21.4072 49.8248 21.4072C48.5018 21.4072 47.4293 22.4821 47.4293 23.808C47.4293 25.1339 48.5018 26.2088 49.8248 26.2088Z" fill="white" fill-opacity="0.6"/>
<path d="M55.9468 32.166C57.2698 32.166 58.3423 31.0912 58.3423 29.7653C58.3423 28.4394 57.2698 27.3645 55.9468 27.3645C54.6238 27.3645 53.5512 28.4394 53.5512 29.7653C53.5512 31.0912 54.6238 32.166 55.9468 32.166Z" fill="white" fill-opacity="0.6"/>
<path d="M27.4664 3.97933C28.1034 3.97933 28.6198 3.4618 28.6198 2.8234C28.6198 2.185 28.1034 1.66748 27.4664 1.66748C26.8294 1.66748 26.313 2.185 26.313 2.8234C26.313 3.4618 26.8294 3.97933 27.4664 3.97933Z" fill="white" fill-opacity="0.6"/>
<path d="M20.1023 3.97933C20.7393 3.97933 21.2557 3.4618 21.2557 2.8234C21.2557 2.185 20.7393 1.66748 20.1023 1.66748C19.4653 1.66748 18.9489 2.185 18.9489 2.8234C18.9489 3.4618 19.4653 3.97933 20.1023 3.97933Z" fill="white" fill-opacity="0.6"/>
<path d="M17.8842 3.53473C18.2762 3.53473 18.594 3.21626 18.594 2.8234C18.594 2.43054 18.2762 2.11206 17.8842 2.11206C17.4922 2.11206 17.1744 2.43054 17.1744 2.8234C17.1744 3.21626 17.4922 3.53473 17.8842 3.53473Z" fill="white" fill-opacity="0.6"/>
<path d="M3.06727 59.019C3.90028 59.019 4.57558 58.3423 4.57558 57.5074C4.57558 56.6726 3.90028 55.9958 3.06727 55.9958C2.23425 55.9958 1.55896 56.6726 1.55896 57.5074C1.55896 58.3423 2.23425 59.019 3.06727 59.019Z" fill="white" fill-opacity="0.6"/>
<path d="M35.9839 18.9174C37.0129 18.9174 37.8471 18.0814 37.8471 17.0501C37.8471 16.0189 37.0129 15.1829 35.9839 15.1829C34.9549 15.1829 34.1207 16.0189 34.1207 17.0501C34.1207 18.0814 34.9549 18.9174 35.9839 18.9174Z" fill="white" fill-opacity="0.6"/>
<path d="M23.6512 4.42397C24.6803 4.42397 25.5144 3.58797 25.5144 2.55671C25.5144 1.52545 24.6803 0.689453 23.6512 0.689453C22.6222 0.689453 21.788 1.52545 21.788 2.55671C21.788 3.58797 22.6222 4.42397 23.6512 4.42397Z" fill="white" fill-opacity="0.6"/>
<path d="M5.9064 52.6171C6.69042 52.6171 7.32599 51.9801 7.32599 51.1944C7.32599 50.4087 6.69042 49.7717 5.9064 49.7717C5.12239 49.7717 4.48682 50.4087 4.48682 51.1944C4.48682 51.9801 5.12239 52.6171 5.9064 52.6171Z" fill="white" fill-opacity="0.6"/>
<path d="M43.1705 36.3452C44.1015 36.3452 44.8563 35.5888 44.8563 34.6557C44.8563 33.7227 44.1015 32.9663 43.1705 32.9663C42.2395 32.9663 41.4848 33.7227 41.4848 34.6557C41.4848 35.5888 42.2395 36.3452 43.1705 36.3452Z" fill="white" fill-opacity="0.6"/>
<path d="M29.9506 48.0823C30.6857 48.0823 31.2815 47.4852 31.2815 46.7486C31.2815 46.0119 30.6857 45.4148 29.9506 45.4148C29.2156 45.4148 28.6198 46.0119 28.6198 46.7486C28.6198 47.4852 29.2156 48.0823 29.9506 48.0823Z" fill="white" fill-opacity="0.6"/>
<path d="M27.3776 52.6169C28.4557 52.6169 29.3296 51.7411 29.3296 50.6608C29.3296 49.5804 28.4557 48.7046 27.3776 48.7046C26.2996 48.7046 25.4257 49.5804 25.4257 50.6608C25.4257 51.7411 26.2996 52.6169 27.3776 52.6169Z" fill="white" fill-opacity="0.6"/>
<path d="M2.44618 55.6401C3.27919 55.6401 3.95448 54.9634 3.95448 54.1285C3.95448 53.2937 3.27919 52.6169 2.44618 52.6169C1.61316 52.6169 0.937866 53.2937 0.937866 54.1285C0.937866 54.9634 1.61316 55.6401 2.44618 55.6401Z" fill="white" fill-opacity="0.6"/>
<path d="M39.0892 27.6314C40.0692 27.6314 40.8637 26.8352 40.8637 25.853C40.8637 24.8709 40.0692 24.0747 39.0892 24.0747C38.1092 24.0747 37.3147 24.8709 37.3147 25.853C37.3147 26.8352 38.1092 27.6314 39.0892 27.6314Z" fill="white" fill-opacity="0.6"/>
<path d="M62.4236 22.8299C62.9137 22.8299 63.3109 22.4318 63.3109 21.9407C63.3109 21.4496 62.9137 21.0515 62.4236 21.0515C61.9336 21.0515 61.5364 21.4496 61.5364 21.9407C61.5364 22.4318 61.9336 22.8299 62.4236 22.8299Z" fill="white" fill-opacity="0.6"/>
<path d="M63.8432 18.1172C64.1862 18.1172 64.4643 17.8385 64.4643 17.4947C64.4643 17.151 64.1862 16.8723 63.8432 16.8723C63.5002 16.8723 63.2221 17.151 63.2221 17.4947C63.2221 17.8385 63.5002 18.1172 63.8432 18.1172Z" fill="white" fill-opacity="0.6"/>
<path d="M62.6011 20.7846C63.2871 20.7846 63.8432 20.2273 63.8432 19.5398C63.8432 18.8523 63.2871 18.2949 62.6011 18.2949C61.9151 18.2949 61.3589 18.8523 61.3589 19.5398C61.3589 20.2273 61.9151 20.7846 62.6011 20.7846Z" fill="white" fill-opacity="0.6"/>
<path d="M35.0079 50.7498C35.9839 50.7498 36.7824 51.4611 36.7824 52.4392C36.7824 53.4173 35.9839 54.1286 35.0079 54.1286C34.0319 54.1286 33.2334 53.3284 33.2334 52.4392C33.2334 51.55 34.0319 50.7498 35.0079 50.7498ZM35.0079 51.0165C34.2981 51.0165 33.677 51.6389 33.677 52.3503C33.677 53.1505 34.2094 53.684 35.0079 53.684C35.7177 53.684 36.3388 53.0616 36.3388 52.3503C36.25 51.6389 35.7177 51.0165 35.0079 51.0165ZM34.7417 53.3284H34.3868V51.6389C34.5643 51.6389 34.7417 51.55 35.0079 51.55C35.3628 51.55 35.4515 51.6389 35.629 51.7278C35.7177 51.8168 35.8064 51.9057 35.8064 52.0835C35.8064 52.2613 35.629 52.4392 35.4515 52.5281C35.629 52.617 35.7177 52.7059 35.7177 52.9727C35.8064 53.2394 35.8064 53.3284 35.8064 53.4173H35.3628C35.2741 53.3284 35.2741 53.2394 35.1854 52.9727C35.1854 52.7948 35.0079 52.7059 34.8305 52.7059H34.653V53.3284H34.7417ZM34.7417 52.3503H34.9192C35.0966 52.3503 35.2741 52.2613 35.2741 52.0835C35.2741 51.9057 35.1854 51.8168 34.9192 51.8168C34.8305 51.8168 34.7417 51.8168 34.7417 51.8168V52.3503Z" fill="white" fill-opacity="0.6"/>
</g>
<defs>
<clipPath id="clip0_1_414">
<rect width="165.382" height="58.3296" fill="white" transform="translate(0.937866 0.689453)"/>
</clipPath>
</defs>
</svg>
