<svg width="135" height="61" viewBox="0 0 135 61" fill="none" xmlns="http://www.w3.org/2000/svg">
<g clip-path="url(#clip0_1_299)">
<path d="M6.71125 23.5975C10.9391 22.6691 13.0326 23.1131 13.402 24.1626C13.6483 24.8892 13.6893 25.7773 12.6631 26.5846C9.13305 25.9791 3.87896 26.7461 3.59163 31.1864C3.34535 34.8194 5.23353 37.4836 7.94267 37.524C11.5549 37.5643 15.4954 33.6084 17.5888 30.0562C18.4919 29.6525 19.2718 29.9754 19.9696 30.9846C18.2046 36.2322 13.2789 40.1881 8.06581 40.5514C3.71477 40.8744 0.554113 36.9588 0.472018 32.7203C0.389922 28.7644 2.40125 24.5663 6.71125 23.5975Z" fill="white" fill-opacity="0.6"/>
<path d="M63.1927 29.5313C65.6555 25.8579 68.4468 20.5295 71.4022 18.8745C72.7978 18.1075 74.1934 19.1974 73.6598 21.4983C71.7306 24.4854 70.7454 25.979 68.8573 29.0065C68.7752 33.245 70.7865 35.3844 74.8502 35.4248C74.1934 38.6137 72.7978 39.6633 70.6634 38.533C67.1743 36.0303 65.5324 33.6486 65.7376 31.3477C65.0809 32.478 64.7525 33.0835 64.1368 34.2138C64.3831 35.4651 64.5062 36.111 64.7525 37.3624C64.6294 38.9367 63.7674 39.3403 62.1255 38.533C61.6329 38.4523 60.8119 35.344 59.7036 29.2891C59.3753 29.6927 59.2521 29.8542 58.9237 30.2579C57.8565 31.1459 57.3229 31.5496 56.2557 32.4376C54.9832 32.3165 54.3675 31.59 54.4085 30.2982C57.0766 27.9973 58.4312 26.423 58.4312 25.535C57.2408 20.1662 57.0356 14.5149 58.308 9.1058C59.4984 4.05998 61.4687 1.31506 64.1368 0.992126C66.8049 0.628828 68.2005 3.17192 68.3647 8.3792C68.5699 14.6764 65.6555 21.0139 62.4949 26.3423C62.6591 27.1093 62.7412 27.5129 62.9054 28.3203C63.0285 28.8047 63.1106 29.0469 63.1927 29.5313ZM61.5918 22.7901C63.2748 18.7534 65.204 14.5553 65.2861 10.115C65.3272 6.84527 64.9577 4.94805 64.1778 4.54438C63.3979 4.10035 62.577 6.07831 61.6329 10.2361C60.7298 14.1112 60.6477 18.9552 61.5918 22.7901Z" fill="white" fill-opacity="0.6"/>
<path d="M79.3654 23.7186C81.4999 20.7315 84.2501 19.5608 87.657 20.1663C91.3923 21.9021 92.2133 24.203 90.243 27.069C88.2727 29.935 84.9889 30.5405 80.3916 29.0066C80.3506 28.9662 80.3095 28.9662 80.2685 28.9259C79.6117 31.3479 80.4737 33.7699 82.2798 34.6579C85.7688 36.3937 90.4072 32.9625 93.6089 30.5405C94.5941 30.5405 95.1687 31.146 95.3329 32.357C92.0491 36.9184 86.0562 39.2597 81.0073 37.4432C76.9436 35.9496 75.6711 31.1057 77.5183 27.1497C76.7794 26.4231 76.2458 25.6158 75.9585 24.647C76.9026 22.7094 77.6414 21.9021 78.175 22.225C78.6676 22.548 79.0781 23.0727 79.3654 23.7186ZM87.0413 25.8176C87.6981 24.8489 87.4928 24.0012 86.4666 23.3149C85.4405 22.6287 83.7575 23.5571 81.4588 26.1002C84.5374 26.8672 86.3845 26.7864 87.0413 25.8176Z" fill="white" fill-opacity="0.6"/>
<path d="M113.804 19.924C114.584 20.2873 114.543 22.0634 113.107 22.9515C105.882 25.4139 99.9713 31.267 98.6988 38.8559C97.139 39.8247 95.3329 39.3807 95.0866 38.4119C94.1425 34.6578 96.5643 27.1093 99.1503 21.7809C100.177 20.7717 101.449 20.8928 102.927 22.1845C102.352 23.4359 101.859 24.8487 101.408 26.3423C104.487 22.79 111.218 18.6727 113.804 19.924Z" fill="white" fill-opacity="0.6"/>
<path d="M117.129 23.1533C117.499 23.1937 117.663 23.1937 118.032 23.1937C118.566 23.7588 118.812 24.001 119.305 24.5661C115.98 27.5533 114.338 30.3386 114.338 32.922C114.338 35.5055 115.816 36.4339 118.771 35.7477C121.726 35.0614 123.533 31.9936 124.189 26.5845C124.846 26.3826 125.133 26.2615 125.79 26.0597C129.074 28.3606 130.141 32.6394 131.537 36.1917C133.753 35.788 134.615 36.7165 134.082 39.0174C132.891 39.0174 132.317 39.0174 131.126 39.0174C130.552 44.7898 129.567 50.32 126.652 55.3658C124.723 58.7566 120.864 60.9767 116.965 59.5235C112.819 57.9896 112.409 53.3071 113.886 49.7549C116.513 43.4577 121.932 39.744 127.76 36.4339C127.802 34.2541 127.145 32.478 125.79 31.0652C124.805 35.5862 120.823 39.7036 116.472 39.1788C113.23 38.7752 111.177 36.1917 111.136 32.7605C111.095 29.1679 114.133 25.0102 117.129 23.1533ZM118.484 48.2613C116.062 52.0557 115.651 54.8007 117.581 56.3346C119.51 57.8685 121.644 57.0612 123.861 53.9126C126.734 49.9163 127.678 44.7494 127.966 39.9054C124.312 41.4797 120.577 44.9916 118.484 48.2613Z" fill="white" fill-opacity="0.6"/>
<path d="M32.2018 22.4269C36.5939 23.5975 37.0454 28.4819 36.1834 32.0745C35.2393 36.1111 32.1197 39.9056 27.6044 40.067C23.2124 40.2285 20.6264 36.4744 20.6674 32.4378C20.7495 27.392 22.022 24.0415 25.0185 22.9113C28.0149 21.7406 30.3957 21.5792 32.2018 22.4269ZM26.373 26.0195C24.608 26.7057 23.787 28.6433 23.8281 31.7919C23.8691 34.9405 25.2237 36.4744 27.8918 36.4341C30.5599 36.3937 32.2018 34.7387 32.8996 31.5497C33.5974 28.3607 32.8175 26.4232 30.5188 25.6966C29.5337 25.2122 28.1381 25.2929 26.373 26.0195Z" fill="white" fill-opacity="0.6"/>
<path d="M49.7701 21.9021C54.1212 23.1535 54.4906 28.0378 53.5465 31.6304C52.5203 35.6671 49.3186 39.3808 44.8034 39.4615C40.4113 39.5019 37.9074 35.7075 38.0305 31.6708C38.1947 26.625 39.5493 23.3149 42.5868 22.225C45.5833 21.1351 48.0051 21.014 49.7701 21.9021ZM43.8593 25.3736C42.0942 26.0599 41.1912 27.9571 41.1912 31.1057C41.1912 34.2543 42.5047 35.8286 45.1728 35.8286C47.8409 35.8286 49.5238 34.2543 50.3037 31.0653C51.0836 27.8764 50.3448 25.9388 48.0461 25.1718C47.0199 24.647 45.6243 24.6874 43.8593 25.3736Z" fill="white" fill-opacity="0.6"/>
<path d="M45.9117 46.0816C45.7885 46.2027 45.7475 46.2431 45.6243 46.3642C43.6541 48.2614 41.2323 49.3916 38.3589 49.6742C38.1947 49.6742 38.0305 49.7146 37.8253 49.7146C35.9371 49.7953 33.4743 49.1898 30.1905 47.9788C30.1494 47.9384 30.1084 47.9384 30.0263 47.8981C29.0001 47.2522 28.5075 46.9293 27.4813 46.2834C27.6045 45.6779 27.6866 45.355 27.8097 44.7495C28.4665 44.6688 28.7538 44.6284 29.4106 44.5477C29.4927 44.588 29.5747 44.6284 29.6568 44.6688C32.6944 46.3642 35.4035 47.0907 37.7022 46.8486C37.7432 46.8486 37.7432 46.8486 37.7843 46.8082C38.7284 46.4449 39.5493 45.8798 40.165 45.1128C41.3143 43.7403 43.3257 41.6413 45.0086 41.9642C47.5125 42.4082 45.9117 46.0816 45.9117 46.0816Z" fill="white" fill-opacity="0.6"/>
<path d="M131.003 60.008V58.1511H130.305V57.9089H131.988V58.1511H131.291V60.008H131.003Z" fill="white" fill-opacity="0.6"/>
<path d="M132.276 60.008V57.9089H132.686L133.179 59.4025C133.22 59.5236 133.261 59.6447 133.261 59.7254C133.302 59.6447 133.343 59.5236 133.384 59.4025L133.877 57.9493H134.246V60.0484H133.959V58.3126L133.343 60.0484H133.097L132.481 58.2722V60.0484H132.276V60.008Z" fill="white" fill-opacity="0.6"/>
</g>
<defs>
<clipPath id="clip0_1_299">
<rect width="133.815" height="59.0159" fill="white" transform="translate(0.472046 0.992188)"/>
</clipPath>
</defs>
</svg>
