<svg width="274" height="38" viewBox="0 0 274 38" fill="none" xmlns="http://www.w3.org/2000/svg">
<g clip-path="url(#clip0_1_314)">
<path d="M50.85 27.0061C47.2967 27.0061 44.8461 24.3947 44.8461 19.4207C44.8461 14.4467 47.4192 11.8353 50.85 11.8353C53.3006 11.8353 54.8935 12.8301 55.8738 14.9441H58.937C57.7117 11.2136 55.0161 9.09961 50.7275 9.09961C45.4587 9.09961 41.6603 12.7058 41.6603 19.4207C41.6603 26.1356 45.3362 29.7418 50.7275 29.7418C54.8935 29.7418 57.5892 27.6278 58.937 23.8973H55.8738C55.0161 26.0113 53.4232 27.0061 50.85 27.0061Z" fill="white" fill-opacity="0.6"/>
<path d="M68.3719 14.198C66.6564 14.198 65.4311 14.6954 64.5734 16.1876H64.4509L64.0833 14.198H62.0003V29.3688H64.696V20.5399C64.696 18.4259 66.2889 16.8094 68.6169 16.8094H70.2098V14.198H68.3719Z" fill="white" fill-opacity="0.6"/>
<path d="M82.4628 14.198L77.9292 25.7626H77.8067L73.2731 14.198H70.4549L76.4589 29.3688L74.2533 35.0889H77.0715L85.281 14.198H82.4628Z" fill="white" fill-opacity="0.6"/>
<path d="M94.4708 13.9492C92.3878 13.9492 90.7949 14.944 89.8147 16.1875H89.6921L89.3245 14.1979H87.2415V35.0888H89.9372V27.5034H90.0597C90.9174 28.6226 92.2653 29.6174 94.5933 29.6174C98.2692 29.6174 100.965 26.8817 100.965 21.7833C100.965 16.6849 98.1467 13.9492 94.4708 13.9492ZM93.9807 27.1304C91.5301 27.1304 89.8147 25.3895 89.8147 21.7833C89.8147 18.1771 91.6526 16.4362 93.9807 16.4362C96.4313 16.4362 98.0242 18.1771 98.0242 21.7833C98.0242 25.3895 96.4313 27.1304 93.9807 27.1304Z" fill="white" fill-opacity="0.6"/>
<path d="M107.582 16.8093V25.1408C107.582 26.1356 108.194 26.8817 109.174 26.8817H111.257V29.4931H108.807C106.356 29.4931 104.886 27.8765 104.886 25.5139V16.9337H102.435V14.3223H104.763V11.5866L107.459 10.9648V14.198H111.135V16.8093H107.582Z" fill="white" fill-opacity="0.6"/>
<path d="M120.08 13.9492C116.036 13.9492 113.218 16.8093 113.218 21.7833C113.218 26.7573 116.036 29.6174 120.08 29.6174C124.123 29.6174 126.941 26.7573 126.941 21.7833C126.941 16.8093 124.123 13.9492 120.08 13.9492ZM120.08 27.1304C117.629 27.1304 115.914 25.3895 115.914 21.7833C115.914 18.1771 117.752 16.4362 120.08 16.4362C122.53 16.4362 124.246 18.1771 124.246 21.7833C124.246 25.3895 122.53 27.1304 120.08 27.1304Z" fill="white" fill-opacity="0.6"/>
<path d="M136.254 27.1305C133.68 27.1305 131.843 25.2652 131.843 21.7834C131.843 18.3016 133.68 16.4363 136.254 16.4363C137.969 16.4363 139.072 17.1824 139.807 18.4259H142.625C141.767 15.6902 139.562 13.825 136.254 13.825C132.088 13.825 129.269 16.685 129.269 21.659C129.269 26.6331 132.088 29.4931 136.254 29.4931C139.562 29.4931 141.767 27.6279 142.625 24.8922H139.807C139.072 26.3844 137.969 27.1305 136.254 27.1305Z" fill="white" fill-opacity="0.6"/>
<path d="M155.123 14.198V23.3999C155.123 25.3896 153.53 27.1305 151.447 27.1305C149.487 27.1305 148.017 25.887 148.017 23.3999V14.198H145.321V23.5243C145.321 27.2548 147.526 29.6175 150.835 29.6175C152.55 29.6175 154.02 28.8714 155.123 27.3792H155.246L155.613 29.3688H157.696V14.198H155.123Z" fill="white" fill-opacity="0.6"/>
<path d="M167.989 14.198C166.274 14.198 165.048 14.6954 164.19 16.1876H164.068L163.7 14.198H161.617V29.3688H164.313V20.5399C164.313 18.4259 165.906 16.8094 168.234 16.8094H169.827V14.198H167.989Z" fill="white" fill-opacity="0.6"/>
<path d="M178.404 14.198C176.689 14.198 175.463 14.6954 174.606 16.1876H174.483L174.115 14.198H172.032V29.3688H174.728V20.5399C174.728 18.4259 176.321 16.8094 178.649 16.8094H180.242V14.198H178.404Z" fill="white" fill-opacity="0.6"/>
<path d="M187.961 13.9492C183.918 13.9492 181.1 16.8093 181.1 21.7833C181.1 26.7573 183.918 29.6174 188.206 29.6174C191.515 29.6174 193.72 27.7521 194.701 25.1408H191.76C190.902 26.3843 189.799 27.006 188.206 27.006C185.756 27.006 184.163 25.3895 183.918 22.5294H194.823C194.823 22.4051 194.823 22.2807 194.823 22.032C194.823 21.659 194.946 21.2859 194.946 20.9129C194.946 17.6797 192.495 13.9492 187.961 13.9492ZM183.918 20.4154C184.285 17.9284 185.756 16.5606 188.084 16.5606C190.289 16.5606 191.882 17.9284 192.25 20.4154H183.918Z" fill="white" fill-opacity="0.6"/>
<path d="M204.748 13.9492C203.033 13.9492 201.562 14.571 200.582 16.1875H200.459L200.092 14.1979H198.009V29.3687H200.705V20.1667C200.705 18.1771 202.297 16.4362 204.38 16.4362C206.341 16.4362 207.811 17.6797 207.811 20.1667V29.3687H210.507V20.0424C210.262 16.4362 208.056 13.9492 204.748 13.9492Z" fill="white" fill-opacity="0.6"/>
<path d="M220.064 27.1305C217.491 27.1305 215.653 25.2652 215.653 21.7834C215.653 18.3016 217.491 16.4363 220.064 16.4363C221.78 16.4363 222.882 17.1824 223.618 18.4259H226.436C225.578 15.6902 223.373 13.825 220.064 13.825C215.898 13.825 213.08 16.685 213.08 21.659C213.08 26.6331 215.898 29.4931 220.064 29.4931C223.373 29.4931 225.578 27.6279 226.436 24.8922H223.618C222.882 26.3844 221.78 27.1305 220.064 27.1305Z" fill="white" fill-opacity="0.6"/>
<path d="M239.179 14.198L234.645 25.7626H234.523L229.989 14.198H227.171L233.175 29.3688L230.969 35.0889H233.788L241.997 14.198H239.179Z" fill="white" fill-opacity="0.6"/>
<path d="M243.958 27.2549C243.345 27.2549 242.855 27.7523 242.855 28.374C242.855 28.9958 243.223 29.4932 243.958 29.4932C244.57 29.4932 245.06 28.9958 245.06 28.374C244.938 27.7523 244.57 27.2549 243.958 27.2549Z" fill="white" fill-opacity="0.6"/>
<path d="M246.898 20.5399V29.3688H248.491V20.5399H246.898ZM247.756 17.4312C247.143 17.4312 246.776 17.9286 246.776 18.426C246.776 19.0477 247.143 19.4208 247.756 19.4208C248.369 19.4208 248.736 19.0477 248.736 18.426C248.736 17.9286 248.246 17.4312 247.756 17.4312Z" fill="white" fill-opacity="0.6"/>
<path d="M254.618 20.4155C253.638 20.4155 252.78 20.7886 252.167 21.7834H252.045L251.8 20.6642H250.574V29.4931H252.167V24.146C252.167 23.0269 253.025 22.0321 254.25 22.0321C255.476 22.0321 256.211 22.7782 256.211 24.146V29.4931H257.804V24.0217C257.804 21.7834 256.578 20.4155 254.618 20.4155Z" fill="white" fill-opacity="0.6"/>
<path d="M263.072 19.0476H264.298V17.5554H262.95C261.602 17.5554 260.622 18.4259 260.622 19.9181V20.5398H259.274V22.032H260.622V29.3687H262.215V22.032H264.298V20.5398H262.215V19.9181C262.092 19.4207 262.46 19.0476 263.072 19.0476Z" fill="white" fill-opacity="0.6"/>
<path d="M269.076 20.4155C266.748 20.4155 265.033 22.0321 265.033 25.0165C265.033 27.8766 266.626 29.6175 269.076 29.6175C271.404 29.6175 273.12 28.0009 273.12 25.0165C273.12 22.0321 271.527 20.4155 269.076 20.4155ZM269.076 28.0009C267.729 28.0009 266.626 27.0061 266.626 24.8921C266.626 22.7782 267.729 21.7834 269.076 21.7834C270.424 21.7834 271.527 22.7782 271.527 24.8921C271.527 27.0061 270.547 28.0009 269.076 28.0009Z" fill="white" fill-opacity="0.6"/>
<path d="M27.8144 29.742V32.6021H21.0752V37.9492H18.257V25.7628C18.257 24.8923 18.9922 24.1462 19.8499 24.1462H27.6918V27.0063H21.0752V29.742H27.8144Z" fill="white" fill-opacity="0.6"/>
<path d="M8.33206 14.6955H13.1107C13.4783 14.6955 13.9684 14.5711 14.2135 14.1981C14.5811 13.825 14.7036 13.452 14.7036 13.0789V0.892578H11.8854V6.23965H6.98422C5.14627 6.23965 3.30832 6.98576 1.96048 8.35361C0.735181 9.59712 0 11.4624 0 13.3276V25.3896C0 27.2549 0.735181 29.1202 2.08301 30.488C3.43085 31.8559 5.14627 32.602 7.10675 32.602H12.008V37.949H14.8262V25.7627C14.8262 25.2653 14.7036 24.8922 14.336 24.6435C13.9684 24.2705 13.6009 24.1461 13.2333 24.1461H8.45459V14.6955H8.33206ZM6.12651 26.3844C6.61663 26.7575 7.10675 27.0062 7.7194 27.0062H12.008V29.7419H7.10675C6.00398 29.7419 4.90121 29.2445 4.16603 28.4984C3.30832 27.6279 2.94073 26.6331 2.94073 25.514V13.3276C2.94073 12.2085 3.43085 11.0893 4.16603 10.3432C5.02374 9.47277 6.00398 9.09972 7.10675 9.09972H12.008V11.8354H7.7194C7.10675 11.8354 6.61663 12.0841 6.12651 12.4572C5.75892 12.8302 5.51386 13.3276 5.51386 13.9494V24.7679C5.51386 25.3896 5.75892 25.887 6.12651 26.3844Z" fill="white" fill-opacity="0.6"/>
<path d="M27.8144 9.09972V6.23965H21.0752V0.892578H18.257V13.0789C18.257 13.9494 18.9922 14.6955 19.8499 14.6955H27.6918V11.8354H21.0752V9.09972H27.8144Z" fill="white" fill-opacity="0.6"/>
</g>
<defs>
<clipPath id="clip0_1_314">
<rect width="273.12" height="37.0565" fill="white" transform="translate(0 0.892578)"/>
</clipPath>
</defs>
</svg>
