<svg width="178" height="49" viewBox="0 0 178 49" fill="none" xmlns="http://www.w3.org/2000/svg">
<g clip-path="url(#clip0_1_252)">
<path d="M59.4031 30.3031L32.7323 45.7505C32.4798 45.9024 32.1767 46.0037 31.8736 46.105V42.5597L60.6659 25.8969C61.2721 25.5423 61.4741 24.7826 61.1205 24.1749C60.767 23.5671 60.0093 23.3645 59.4031 23.719L31.8736 39.6728V36.0262L60.6659 19.3634C61.07 19.1608 61.2721 18.705 61.2721 18.2998C61.2721 17.844 61.0195 17.4388 60.6659 17.2362L31.2675 0.218835C30.8633 0.0162476 30.4087 0.0162476 30.0046 0.218835L0.808206 17.1349C0.555641 17.2362 0.303077 17.4388 0.151539 17.692C0.0505129 17.844 0 18.0466 0 18.2492C0 18.2998 0 18.2998 0 18.2998V28.2266C0 30.607 1.26282 32.8355 3.33385 34.0004L22.4277 45.0414L27.3274 47.8776C27.4285 47.9283 27.58 48.0296 27.681 48.0802C27.7316 48.0802 27.7316 48.1309 27.7821 48.1309C27.8831 48.1815 27.9841 48.2322 28.0851 48.2828H28.1357C28.5398 48.4348 28.9439 48.5867 29.348 48.6373C29.4995 48.688 29.651 48.688 29.8026 48.688C30.0551 48.7386 30.3582 48.7386 30.6108 48.7386C30.6613 48.7386 30.7118 48.7386 30.7623 48.7386C31.8736 48.7386 32.9849 48.4348 33.9446 47.827L60.6154 32.3797C61.2216 32.0251 61.4236 31.2654 61.07 30.6577C60.767 30.1512 60.0093 29.9486 59.4031 30.3031ZM19.801 10.5508C19.7505 10.5508 19.7 10.4495 19.7505 10.4495L30.2067 4.37189C30.4592 4.21995 30.7623 4.21995 31.0149 4.37189L41.471 10.4495C41.5216 10.5002 41.5216 10.5508 41.4205 10.5508H19.801Z" fill="white" fill-opacity="0.6"/>
<path d="M86.377 18.0973V20.3764H76.9311V6.09399H86.276V8.37311H79.5578V11.9184H85.5183V14.1975H79.5578V18.0973H86.377Z" fill="white" fill-opacity="0.6"/>
<path d="M98.4496 13.5897V20.3764H95.8229V14.0961C95.8229 12.5261 94.8632 11.6144 93.3983 11.6144C91.9839 11.6144 90.9232 12.6274 90.8726 13.8429V20.3764H88.246V9.5379H90.7211V10.7028C91.4788 9.84178 92.6406 9.28467 94.1055 9.28467C96.7826 9.28467 98.4496 11.0067 98.4496 13.5897Z" fill="white" fill-opacity="0.6"/>
<path d="M106.431 9.28467V11.7157C104.562 11.7157 103.349 12.7287 103.349 14.1974V20.3764H100.723V9.5379H103.198V10.7534C103.955 9.89243 105.067 9.28467 106.431 9.28467Z" fill="white" fill-opacity="0.6"/>
<path d="M107.441 6.09393C107.441 5.08099 108.199 4.32129 109.209 4.32129C110.219 4.32129 110.977 5.08099 110.977 6.09393C110.977 7.10687 110.219 7.81593 109.209 7.81593C108.249 7.81593 107.441 7.05623 107.441 6.09393ZM107.946 9.53793H110.573V20.3764H107.946V9.53793Z" fill="white" fill-opacity="0.6"/>
<path d="M112.391 14.9571C112.391 11.7664 114.765 9.28467 118.049 9.28467C120.877 9.28467 122.645 11.108 123.15 12.7793L120.827 13.691C120.473 12.4248 119.513 11.6144 118.099 11.6144C116.382 11.6144 115.018 12.9313 115.018 14.9571C115.018 16.983 116.382 18.2998 118.099 18.2998C119.513 18.2998 120.524 17.4388 120.877 16.2233L123.201 17.1856C122.696 18.8063 120.928 20.6296 118.049 20.6296C114.816 20.5789 112.391 18.1985 112.391 14.9571Z" fill="white" fill-opacity="0.6"/>
<path d="M134.92 13.5897V20.3764H132.293V14.0962C132.293 12.5261 131.333 11.6145 129.869 11.6145C128.454 11.6145 127.393 12.6274 127.343 13.8429V20.3764H124.767V5.33423H127.393V10.5509C128.151 9.79116 129.262 9.28469 130.677 9.28469C133.253 9.28469 134.92 11.0067 134.92 13.5897Z" fill="white" fill-opacity="0.6"/>
<path d="M84.8616 38.4067H79.3052L78.1434 41.8H75.5167L80.4165 27.5176H83.5988L88.549 41.8H85.9729L84.8616 38.4067ZM84.1544 36.2795L82.0834 30.3032L80.0629 36.2795H84.1544Z" fill="white" fill-opacity="0.6"/>
<path d="M89.0542 36.4315C89.0542 33.2407 91.4283 30.759 94.7116 30.759C97.5403 30.759 99.3083 32.5823 99.8134 34.2537L97.4898 35.1653C97.1362 33.8991 96.1765 33.0888 94.7621 33.0888C93.0447 33.0888 91.6808 34.4056 91.6808 36.4315C91.6808 38.4574 93.0447 39.7742 94.7621 39.7742C96.1765 39.7742 97.1867 38.9132 97.5403 37.6977L99.8639 38.66C99.3588 40.2807 97.5908 42.104 94.7116 42.104C91.4788 42.0533 89.0542 39.6223 89.0542 36.4315Z" fill="white" fill-opacity="0.6"/>
<path d="M112.189 31.0122V41.8506H109.764V40.3819C108.956 41.4455 107.744 42.1039 106.178 42.1039C103.097 42.1039 100.824 39.6728 100.824 36.4314C100.824 33.19 103.097 30.9109 106.178 30.9109C107.744 30.9109 108.956 31.468 109.764 32.5316V31.0122H112.189ZM109.714 36.4314C109.714 34.4562 108.451 33.0887 106.582 33.0887C104.814 33.0887 103.501 34.5068 103.501 36.4314C103.501 38.356 104.814 39.7741 106.582 39.7741C108.451 39.7741 109.714 38.4066 109.714 36.4314Z" fill="white" fill-opacity="0.6"/>
<path d="M125.423 26.8086V41.8507H122.999V40.4833C122.14 41.4962 120.928 42.104 119.412 42.104C116.331 42.104 114.058 39.6729 114.058 36.4315C114.058 33.1901 116.23 30.7591 119.362 30.7591C120.776 30.7591 121.989 31.3162 122.797 32.1772V26.8086H125.423ZM122.898 36.4315C122.898 34.4563 121.635 33.0888 119.766 33.0888C117.998 33.0888 116.685 34.5069 116.685 36.4315C116.685 38.3561 117.998 39.7742 119.766 39.7742C121.635 39.7742 122.898 38.4068 122.898 36.4315Z" fill="white" fill-opacity="0.6"/>
<path d="M133 39.8247C134.465 39.8247 135.273 39.2676 135.728 38.3053L137.799 39.6221C136.991 40.9389 135.526 42.0532 132.899 42.0532C129.464 42.0532 127.191 39.6221 127.191 36.3807C127.191 33.2406 129.616 30.7083 132.748 30.7083C136.132 30.7083 138.203 33.3925 138.203 36.1781C138.203 36.5833 138.203 36.9885 138.153 37.2417H129.768C130.121 38.8624 131.384 39.8247 133 39.8247ZM135.728 35.4184C135.425 33.7977 134.314 32.7848 132.798 32.7848C131.283 32.7848 130.071 33.7471 129.768 35.4184H135.728Z" fill="white" fill-opacity="0.6"/>
<path d="M156.943 35.1146V41.8H154.317V35.5704C154.317 34.1523 153.559 33.0381 152.094 33.0381C150.579 33.0381 149.821 34.2029 149.771 35.2159V41.7493H147.144V35.5704C147.144 34.1523 146.336 33.0381 144.871 33.0381C143.406 33.0381 142.598 34.2029 142.547 35.2159V41.7493H139.921V31.0122H142.396V32.2277C143.052 31.4174 144.214 30.8096 145.679 30.8096C147.397 30.8096 148.508 31.468 149.114 32.5822C149.72 31.5693 150.932 30.8096 152.751 30.8096C155.479 30.7589 156.943 32.6329 156.943 35.1146Z" fill="white" fill-opacity="0.6"/>
<path d="M169.016 31.0122L164.874 41.8507L163.46 45.5479H160.883L162.348 41.8507H161.641L157.853 31.0122H160.53L163.308 39.7235L166.339 31.0122H169.016Z" fill="white" fill-opacity="0.6"/>
<path d="M172.602 33.7978V31.4174H171.693V31.0122H173.966V31.4174H173.057V33.7978H172.602ZM174.269 33.7978V31.0122H174.977L175.684 33.2407L176.391 31.0122H177.048V33.7978H176.643V31.4174L175.936 33.7978H175.532L174.774 31.4174V33.7978H174.269Z" fill="white" fill-opacity="0.6"/>
</g>
<defs>
<clipPath id="clip0_1_252">
<rect width="177.048" height="48.7224" fill="white" transform="translate(0 0.0668945)"/>
</clipPath>
</defs>
</svg>
