<svg width="114" height="56" viewBox="0 0 114 56" fill="none" xmlns="http://www.w3.org/2000/svg">
<g clip-path="url(#clip0_1_370)">
<path d="M102.296 33.6727C102.489 33.6727 102.729 33.5758 102.825 33.2851H102.873V33.6727C102.777 33.7696 102.585 33.8665 102.296 33.8665C101.719 33.8665 101.383 33.5273 101.383 32.9943C101.383 32.4613 101.719 32.0737 102.296 32.0737C102.537 32.0737 102.777 32.1706 102.873 32.2675V32.6552H102.825C102.681 32.4129 102.489 32.2191 102.248 32.2191C101.912 32.2191 101.816 32.6067 101.816 32.9459C101.816 33.3335 101.96 33.6727 102.296 33.6727ZM102.2 31.783C101.575 31.783 101.094 32.3644 101.094 32.9943C101.094 33.6242 101.527 34.2057 102.2 34.2057C102.873 34.2057 103.306 33.6242 103.306 32.9943C103.306 32.3644 102.873 31.783 102.2 31.783ZM102.296 33.6727C102.489 33.6727 102.729 33.5758 102.825 33.2851H102.873V33.6727C102.777 33.7696 102.585 33.8665 102.296 33.8665C101.719 33.8665 101.383 33.5273 101.383 32.9943C101.383 32.4613 101.719 32.0737 102.296 32.0737C102.537 32.0737 102.777 32.1706 102.873 32.2675V32.6552H102.825C102.681 32.4129 102.489 32.2191 102.248 32.2191C101.912 32.2191 101.816 32.6067 101.816 32.9459C101.816 33.3335 101.96 33.6727 102.296 33.6727ZM102.2 31.783C101.575 31.783 101.094 32.3644 101.094 32.9943C101.094 33.6242 101.527 34.2057 102.2 34.2057C102.873 34.2057 103.306 33.6242 103.306 32.9943C103.306 32.3644 102.873 31.783 102.2 31.783ZM102.296 33.6727C102.489 33.6727 102.729 33.5758 102.825 33.2851H102.873V33.6727C102.777 33.7696 102.585 33.8665 102.296 33.8665C101.719 33.8665 101.383 33.5273 101.383 32.9943C101.383 32.4613 101.719 32.0737 102.296 32.0737C102.537 32.0737 102.777 32.1706 102.873 32.2675V32.6552H102.825C102.681 32.4129 102.489 32.2191 102.248 32.2191C101.912 32.2191 101.816 32.6067 101.816 32.9459C101.816 33.3335 101.96 33.6727 102.296 33.6727ZM102.2 31.783C101.575 31.783 101.094 32.3644 101.094 32.9943C101.094 33.6242 101.527 34.2057 102.2 34.2057C102.873 34.2057 103.306 33.6242 103.306 32.9943C103.306 32.3644 102.873 31.783 102.2 31.783ZM102.2 34.448C101.431 34.448 100.758 33.7696 100.758 32.9459C100.758 32.1706 101.383 31.4923 102.2 31.4923C103.017 31.4923 103.642 32.1706 103.642 32.9459C103.642 33.7696 103.017 34.448 102.2 34.448ZM94.2679 46.9976C92.1526 46.9976 90.1335 46.2223 89.172 45.3986L88.9797 41.6676H89.3163C89.4605 41.9099 89.7009 42.2975 89.8451 42.5398C90.9508 44.5749 92.7295 46.0285 94.316 46.0285C96.287 46.0285 97.537 44.9625 97.537 43.6542C97.537 42.5398 95.8063 41.3769 93.1141 40.6501C90.7104 40.0202 89.124 38.3727 89.124 36.483C89.124 33.4789 91.4796 31.5892 95.1332 31.5892C96.6716 31.5892 98.4023 32.1222 99.4119 32.9459L99.6042 36.6768H99.2196C98.7388 34.9809 96.8639 32.5098 94.8929 32.5098C93.018 32.5582 91.8161 33.4789 91.8161 34.9809C91.8161 35.9016 93.5468 36.9676 96.1909 37.6944C98.6907 38.3727 100.373 40.1171 100.373 42.1037C100.373 44.9625 97.9696 46.9976 94.2679 46.9976ZM88.6432 31.9768C88.6432 32.2675 88.6432 32.4129 88.6432 32.4129L88.4028 32.4613C87.5856 32.5582 87.0568 33.9634 87.0568 36.0469V46.6584H85.6145C82.4416 42.5882 78.5957 39.0026 75.4228 34.9325V42.346C75.4228 44.4295 75.9516 45.8347 76.8169 45.9316H77.0092C77.0092 45.9316 77.0092 46.0769 77.0092 46.3677V46.6099H72.7787V45.9316H73.0191C73.8363 45.8347 74.3652 44.4295 74.3652 42.346V36.0469C74.3652 33.9634 73.8363 32.5582 73.0191 32.4613L72.7787 32.4129C72.7787 32.4129 72.7306 32.2675 72.7306 31.9768V31.7345H77.5861L85.9991 41.3769V36.0469C85.9991 33.9634 85.4703 32.5582 84.6531 32.4613L84.4127 32.4129C84.4127 32.4129 84.3646 32.2675 84.3646 31.9768V31.7345H88.6432V31.9768ZM71.4326 46.1738L71.3365 46.6584H59.0295V46.4161C59.0295 46.1254 59.0775 45.98 59.0775 45.98H59.2698C60.0871 45.8831 60.6159 44.4779 60.6159 42.3944V36.0954C60.6159 34.0119 60.0871 32.6067 59.2698 32.5098L59.0775 32.4613C59.0775 32.4613 59.0295 32.316 59.0295 32.0252V31.783H71.4807V32.2675C71.5288 33.3335 71.5769 34.6902 71.6249 35.7078C71.4807 35.7078 71.3365 35.6593 71.3365 35.6593L71.0961 35.2232C70.2788 33.6727 68.1155 32.7036 65.6157 32.7036H64.1734V38.7119C66.4329 38.615 68.2117 38.1305 68.8847 37.3552L69.077 37.1129C69.077 37.1129 69.3654 37.1129 69.6058 37.1129V41.5707C69.3654 41.5707 69.077 41.5707 69.077 41.5707L68.8847 41.28C68.2597 40.4078 66.4329 39.8264 64.1734 39.7294V45.7862H65.6157C68.0674 45.7862 70.375 44.7687 71.4807 43.2666L71.8172 42.8305C71.8172 42.8305 71.9134 42.8305 72.0576 42.8305C71.9134 43.7996 71.6249 45.1078 71.4326 46.1738ZM56.77 26.5984C56.4815 26.5499 56.1931 26.453 55.9046 26.3561C55.6162 26.2592 55.3278 26.2108 55.0393 26.0654C52.8279 25.2417 50.8088 23.7881 49.3185 21.9468L48.7897 21.22L48.6454 21.0262L48.5493 20.8808L48.357 20.5901L47.5878 19.4272C47.059 18.6519 46.5782 17.8767 46.0494 17.0529L44.4149 14.5333L46.8186 12.8859C47.5878 12.3529 48.4051 11.8684 49.1742 11.3838C49.5588 11.1415 49.9434 10.8993 50.3761 10.657L50.6646 10.4632L50.8088 10.3663L51.0011 10.2694L51.7703 9.83328C53.7894 8.71884 56.145 8.28275 58.3564 8.37966C58.6449 8.37966 58.8853 8.42811 59.1737 8.47657C59.4621 8.52502 59.7025 8.52502 59.991 8.62193C60.5198 8.76729 61.0486 8.8642 61.5774 9.05802C62.635 9.39719 63.5485 9.93019 64.4619 10.5116C65.3272 11.1415 66.0964 11.8684 66.7214 12.6921C67.3463 13.4673 67.8271 14.388 68.2117 15.3086L67.9232 15.5024C66.8175 14.0003 65.4234 12.789 63.7407 11.9653L63.1158 11.6745L62.8273 11.5292L62.4908 11.4323L61.8178 11.2384C61.5774 11.19 61.3851 11.1415 61.1447 11.0931C60.7121 10.9962 60.2313 10.9477 59.7987 10.8993C59.5583 10.8508 59.3179 10.8993 59.1256 10.8508C58.8853 10.8508 58.693 10.8024 58.4526 10.8508L57.7795 10.8993H57.5872L57.3949 10.9477L57.0584 10.9962C56.8181 11.0446 56.6258 11.0446 56.3854 11.1415L55.7123 11.3354C55.472 11.3838 55.2797 11.4807 55.0874 11.5776C54.8951 11.6745 54.6547 11.723 54.4624 11.8199L53.8375 12.1106L53.549 12.256C53.4529 12.3044 53.3567 12.3529 53.2606 12.4498C52.4914 12.9343 51.7222 13.5158 50.953 14.0488L48.9339 15.5024L50.3761 17.5375C50.9049 18.3127 51.4337 19.088 52.0106 19.8148C52.0587 19.9117 52.1549 20.0086 52.2029 20.0571L52.4433 20.2994L52.924 20.7839C53.1163 20.9293 53.2606 21.0746 53.4529 21.22C53.6452 21.3654 53.7894 21.5107 53.9817 21.6561L54.5586 22.0437C54.7509 22.1891 54.9432 22.286 55.1355 22.3829L55.4239 22.5767L55.5681 22.6736L55.7123 22.7221L56.3373 23.0128C56.5296 23.1097 56.77 23.1582 56.9623 23.2551C57.2027 23.3035 57.3949 23.4004 57.6353 23.4489C58.068 23.5458 58.5007 23.6911 58.9814 23.7396C59.2218 23.7881 59.4141 23.7881 59.6544 23.8365L60.3275 23.885H60.664H61.0005L61.6736 23.8365C63.4042 23.6427 65.0868 23.0128 66.5771 22.0437C66.2887 21.2684 65.856 20.4932 65.2791 19.8633C64.7022 19.1849 63.933 18.6035 63.1158 18.1674C62.2985 17.7797 61.3851 17.489 60.4717 17.4406C59.5583 17.3921 58.6449 17.489 57.7315 17.7797L57.6353 17.4406C58.4526 16.8591 59.4621 16.5199 60.5198 16.3746C61.5774 16.2292 62.7312 16.3746 63.7888 16.7138C64.0292 16.8107 64.3176 16.9076 64.6061 17.0045C64.8465 17.1498 65.1349 17.2468 65.3753 17.3921C65.6157 17.5375 65.856 17.6828 66.0964 17.8767C66.3368 18.0705 66.5771 18.2643 66.7694 18.4581C67.6348 19.2818 68.3559 20.2994 68.8847 21.4138L69.4616 22.7221L68.0674 23.885C66.3848 25.3386 64.2215 26.3561 61.9139 26.7438L61.0486 26.8407L60.6159 26.8891H60.1833C59.8948 26.8891 59.6064 26.8891 59.3179 26.8891C59.0295 26.8891 58.741 26.8407 58.4526 26.8407C57.9238 26.8407 57.3469 26.6953 56.77 26.5984ZM57.5872 46.1738L57.4911 46.6584H45.1841V46.4161C45.1841 46.1254 45.1841 45.98 45.1841 45.98H45.3764C46.1936 45.8831 46.7225 44.4779 46.7225 42.3944V36.0954C46.7225 34.0119 46.1936 32.6067 45.3764 32.5098L45.1841 32.4129C45.1841 32.4129 45.1841 32.2675 45.1841 31.9768V31.7345H57.6353V32.2191C57.6834 33.2851 57.7315 34.6418 57.7795 35.6593C57.6353 35.6593 57.4911 35.6109 57.4911 35.6109L57.2507 35.1748C56.4335 33.6242 54.2701 32.6552 51.7703 32.6552H50.328V38.7119C52.5875 38.615 54.3663 38.1305 55.0393 37.3552L55.2316 37.1129C55.2316 37.1129 55.5201 37.1129 55.7604 37.1129V41.5707C55.5201 41.5707 55.2316 41.5707 55.2316 41.5707L55.0393 41.28C54.3663 40.4078 52.5875 39.8264 50.328 39.7294V45.7862H51.7703C54.2701 45.7862 56.5296 44.7687 57.6353 43.2666L57.9718 42.8305C57.9718 42.8305 58.068 42.8305 58.2122 42.8305C58.068 43.7996 57.7795 45.1078 57.5872 46.1738ZM44.7995 46.6584H43.5976C39.6555 46.6584 39.5113 46.6099 37.6364 44.1872C36.2423 42.3944 35.0885 40.5047 34.4154 39.6325H34.9923C36.9153 39.6325 38.1652 37.8397 38.1652 35.8047C38.1652 33.915 37.1557 32.7036 35.5692 32.7036H32.7328V42.3944C32.7328 44.4779 33.2617 45.8831 34.0789 45.98H34.2712C34.2712 45.98 34.3193 46.1254 34.3193 46.4161V46.6584H27.4928V46.4161C27.4928 46.1254 27.4928 45.98 27.4928 45.98H27.7331C28.5504 45.8831 29.0792 44.4779 29.0792 42.3944V36.0954C29.0792 34.0119 28.5504 32.6067 27.7331 32.5098L27.5408 32.4129C27.5408 32.4129 27.5408 32.2675 27.5408 31.9768V31.7345H35.6173C39.5113 31.7345 42.0112 33.3335 42.0112 35.8047C42.0112 37.6459 40.7132 39.4872 38.5018 40.1655C39.944 41.9099 42.6842 46.0769 44.8476 46.0769V46.6584H44.7995ZM26.9159 39.8748C26.9159 40.1655 26.9159 40.3109 26.9159 40.3109L26.6755 40.3594C25.8582 40.4563 25.3294 41.8614 25.3294 43.945V45.447C23.9833 46.2223 21.6758 46.7553 19.4163 46.7553C13.7916 46.7553 10.2341 43.7996 10.2341 39.148C10.2341 34.4964 13.8397 31.5892 19.4163 31.5892C21.8681 31.5892 24.1276 32.2191 25.2333 33.2366L25.3775 36.7253H25.089C24.9448 36.4346 24.7525 36.0954 24.6083 35.8531C23.5987 33.8181 21.5315 32.5582 19.4163 32.5582C16.2434 32.5582 14.2243 35.1263 14.2243 39.1965C14.2243 43.2181 16.2434 45.8347 19.4163 45.8347C20.2816 45.8347 21.195 45.7378 22.0123 45.5924V43.945C22.0123 41.8614 21.4835 40.4563 20.6662 40.3594L20.4258 40.3109C20.4258 40.3109 20.3778 40.1655 20.3778 39.8748V39.6325H26.8678V39.8748H26.9159ZM77.1054 20.2025C75.7593 10.1725 67.2502 2.46826 56.9623 2.46826C46.6744 2.51672 38.1652 10.2209 36.7711 20.2025H2.87872L5.33051 53.2481H108.594L111.046 20.2509H77.1054V20.2025ZM102.296 33.6727C102.489 33.6727 102.729 33.5758 102.825 33.2851H102.873V33.6727C102.777 33.7696 102.585 33.8665 102.296 33.8665C101.719 33.8665 101.383 33.5273 101.383 32.9943C101.383 32.4613 101.719 32.0737 102.296 32.0737C102.537 32.0737 102.777 32.1706 102.873 32.2675V32.6552H102.825C102.681 32.4129 102.489 32.2191 102.248 32.2191C101.912 32.2191 101.816 32.6067 101.816 32.9459C101.816 33.3335 101.96 33.6727 102.296 33.6727ZM102.2 31.783C101.575 31.783 101.094 32.3644 101.094 32.9943C101.094 33.6242 101.527 34.2057 102.2 34.2057C102.873 34.2057 103.306 33.6242 103.306 32.9943C103.306 32.3644 102.873 31.783 102.2 31.783ZM102.296 33.6727C102.489 33.6727 102.729 33.5758 102.825 33.2851H102.873V33.6727C102.777 33.7696 102.585 33.8665 102.296 33.8665C101.719 33.8665 101.383 33.5273 101.383 32.9943C101.383 32.4613 101.719 32.0737 102.296 32.0737C102.537 32.0737 102.777 32.1706 102.873 32.2675V32.6552H102.825C102.681 32.4129 102.489 32.2191 102.248 32.2191C101.912 32.2191 101.816 32.6067 101.816 32.9459C101.816 33.3335 101.96 33.6727 102.296 33.6727ZM102.2 31.783C101.575 31.783 101.094 32.3644 101.094 32.9943C101.094 33.6242 101.527 34.2057 102.2 34.2057C102.873 34.2057 103.306 33.6242 103.306 32.9943C103.306 32.3644 102.873 31.783 102.2 31.783Z" fill="white" fill-opacity="0.6"/>
<path d="M109.844 54.6532H4.0325L1.43649 18.8457H35.6173C37.5883 8.6703 46.5301 1.11146 56.9623 1.11146C67.3944 1.11146 76.3362 8.6703 78.3072 18.8457H112.488L109.844 54.6532ZM78.8361 18.1188C76.5766 7.84658 67.4905 0.433105 56.9623 0.433105C46.434 0.433105 37.2999 7.84658 35.0404 18.1188H0.667297L3.40753 55.3316H110.469L113.209 18.1188H78.8361Z" fill="white" fill-opacity="0.6"/>
</g>
<defs>
<clipPath id="clip0_1_370">
<rect width="112.542" height="54.8985" fill="white" transform="translate(0.667297 0.433105)"/>
</clipPath>
</defs>
</svg>
