<svg width="140" height="34" viewBox="0 0 140 34" fill="none" xmlns="http://www.w3.org/2000/svg">
<g clip-path="url(#clip0_1_528)">
<path d="M63.6447 9.14713L61.0498 11.7016C59.684 10.0882 57.6353 9.01268 55.0404 9.01268C50.5334 9.01268 47.2555 12.2394 47.2555 16.945C47.2555 21.6505 50.5334 24.8772 54.9038 24.8772C59.0011 24.8772 61.3229 22.8605 61.8692 19.2305H55.9964V16.0038H65.6934C65.6934 16.2727 65.6934 16.5416 65.6934 16.8105C65.6934 23.1294 61.5961 28.2384 54.7672 28.2384C49.031 28.2384 43.2948 24.205 43.2948 16.945C43.2948 10.3571 48.2116 5.65155 54.9038 5.65155C58.5914 5.51711 61.5961 6.86156 63.6447 9.14713Z" fill="white" fill-opacity="0.6"/>
<path d="M87.6822 19.2305C87.6822 25.2805 83.5849 28.2383 78.2584 28.2383C73.0685 28.2383 68.8347 25.2805 68.8347 19.2305V5.92041H72.3856V18.8272C72.3856 22.995 74.844 24.7427 78.2584 24.7427C81.6729 24.7427 84.1312 22.995 84.1312 18.8272V5.92041H87.6822V19.2305Z" fill="white" fill-opacity="0.6"/>
<path d="M95.6037 5.92041H92.0527V27.7005H95.6037V5.92041Z" fill="white" fill-opacity="0.6"/>
<path d="M103.798 9.28154V24.4739H108.988C114.178 24.4739 116.773 21.2472 116.773 16.9449C116.773 12.5082 114.178 9.41599 108.988 9.41599H103.798V9.28154ZM108.988 5.92041C115.954 5.92041 120.461 10.2227 120.461 16.8105C120.461 23.3983 115.954 27.7005 108.988 27.7005H100.247V5.92041H108.988Z" fill="white" fill-opacity="0.6"/>
<path d="M139.991 27.835H123.875V5.92041H139.855V9.28154H127.426V15.1971H139.308V18.4238H127.426V24.4739H139.991V27.835Z" fill="white" fill-opacity="0.6"/>
<path d="M27.1788 15.8694V16.945C27.1788 17.6172 27.1788 18.155 27.0422 18.8272C26.9056 19.9028 26.6324 20.9783 26.2227 21.9195C24.5838 25.6839 21.0328 27.8351 16.6624 27.8351C11.0627 27.8351 5.46307 24.0706 5.46307 16.945C5.46307 10.6261 10.2432 6.05493 16.6624 6.05493C19.8036 6.05493 22.5351 7.13049 24.4472 9.01273L22.9449 10.4916C21.4425 9.01273 19.1207 8.20606 16.6624 8.20606C11.3359 8.20606 7.51172 11.8361 7.51172 16.945C7.51172 22.7261 12.0187 25.6839 16.5258 25.6839C19.9402 25.6839 22.6717 23.9361 24.0375 20.9783C24.4472 20.1717 24.5838 19.365 24.7204 18.4239C24.7204 18.2894 24.7204 18.155 24.7204 17.8861H16.5258L17.755 15.735H27.1788V15.8694Z" fill="white" fill-opacity="0.6"/>
<path d="M32.6418 15.8694V16.945C32.6418 17.8861 32.5052 18.8272 32.5052 19.7683C32.2321 21.3817 31.8224 22.995 31.1395 24.4739C28.6811 29.9862 23.218 33.3473 16.7989 33.3473C5.73622 33.3473 0 25.0117 0 16.945C0 7.39936 7.10199 0.408203 16.9355 0.408203C21.5791 0.408203 25.813 2.02155 28.6811 4.8449L27.1788 6.32379C24.7204 3.90378 21.0328 2.55933 16.9355 2.55933C8.1946 2.55933 2.18523 8.47492 2.18523 16.945C2.18523 26.3561 9.56037 31.3306 16.9355 31.3306C22.5352 31.3306 27.0422 28.5073 29.2274 23.5328C29.7737 22.3228 30.1834 20.8439 30.4566 19.365C30.5932 18.9616 30.5932 18.4239 30.5932 17.8861H28.5445L29.7737 15.735H32.6418V15.8694Z" fill="white" fill-opacity="0.6"/>
<path d="M27.9982 0.408203V0.542648H28.2714V1.48377H28.4079V0.542648H28.8177V0.408203H27.9982ZM29.7737 0.408203L29.5006 1.21487L29.2274 0.408203H28.9543V1.48377H29.0908V0.542648L29.364 1.48377H29.5006L29.7737 0.677094V1.48377H30.0469V0.408203H29.7737Z" fill="white" fill-opacity="0.6"/>
</g>
<defs>
<clipPath id="clip0_1_528">
<rect width="139.991" height="32.9391" fill="white" transform="translate(0 0.408203)"/>
</clipPath>
</defs>
</svg>
