<svg xmlns="http://www.w3.org/2000/svg" viewBox="0 0 221.12 161.03">
  <defs>
    <style>
      .cls-1 {
        fill: #a7a5a5;
      }
    </style>
  </defs>
  <title>ISHINE</title>
  <g id="Layer_2" data-name="Layer 2">
    <g id="Layer_1-2" data-name="Layer 1">
      <g>
        <g>
          <path class="cls-1" d="M215.52,73.29a1.26,1.26,0,0,0-1.7.48c-1.14,2-9.8,14.43-12.44,15.51-4.42,1.81-19.94-12.84-21.26-15.1A1.25,1.25,0,0,0,178,75.44c.87,1.49,15.25,16.46,22.72,16.46a4.32,4.32,0,0,0,1.64-.3C206.22,90,215.5,75.89,216,75A1.25,1.25,0,0,0,215.52,73.29Z"/>
          <path class="cls-1" d="M185.38,56.76c2.68-2.18,3-4.91,3.3-7.31.25-2,.46-3.79,1.92-5.28,1.78-1.8,4-1.77,6.82-1.73s6,.08,9.17-1.82c3.5-2.09,6-6,7.39-11.57a18,18,0,0,0,6.31-15.21l-.78-9.61a1.29,1.29,0,0,0-.44-.85,1.25,1.25,0,0,0-.91-.29,17.91,17.91,0,0,0-11.69,5.68,10.26,10.26,0,0,0-8.15-7.58l-5.57-1a1.25,1.25,0,0,0-1.45,1l-.09.55A36.07,36.07,0,0,0,183.69.19,34.94,34.94,0,0,0,180,0a36.15,36.15,0,0,0-34,24,13.61,13.61,0,0,0-1.91.12l-6.31.93a1.25,1.25,0,0,0-1,1.42,12.27,12.27,0,0,0,4.73,8h-1.11a8.84,8.84,0,0,0-8.84,8.86v4.79a1.24,1.24,0,0,0,1.25,1.24h4.79a8.75,8.75,0,0,0,6.25-2.6A8.52,8.52,0,0,0,145,45.15c.16.59.3,1.19.48,1.77.88,2.81,2.92,9.37,8.48,14.28a23.86,23.86,0,0,0,5.14,3.43c1.78.94,2.85,1.5,3.7,3.25a11.26,11.26,0,0,1,.59,6.47c-1,6.75-5.82,13.76-9.66,18.45a1.25,1.25,0,0,0,.17,1.76,1.23,1.23,0,0,0,.79.28,1.26,1.26,0,0,0,1-.45c4-4.94,9.09-12.35,10.2-19.67a14.14,14.14,0,0,0-.8-7.92c-1.22-2.5-2.88-3.37-4.8-4.38a21.38,21.38,0,0,1-4.64-3.09,27,27,0,0,1-7.31-11.78,15.33,15.33,0,0,0,20.78-3.62l4-5.36-.52,4.11a1.26,1.26,0,0,0,1.08,1.4l4.82.61a9,9,0,0,0,1.15.08,9,9,0,0,0,8.88-7.84l.61-4.81s0,0,0,0a6.82,6.82,0,0,1,7.11-6.51,5.21,5.21,0,0,1,5,5.43,3.9,3.9,0,0,1-4.08,3.74,2.88,2.88,0,0,1-2.75-3,2.05,2.05,0,0,1,2.14-2,1.25,1.25,0,1,0,.11-2.5,4.56,4.56,0,0,0-4.75,4.35A5.39,5.39,0,0,0,197,37.24h.29a6.43,6.43,0,0,0,5.94-4,1.22,1.22,0,0,0,.43.08h.1a18.05,18.05,0,0,0,6.88-2c-1.26,3.38-3,5.78-5.36,7.16-2.6,1.55-5.27,1.5-7.85,1.47-3,0-6.12-.09-8.64,2.48-2.06,2.1-2.36,4.56-2.62,6.73s-.5,4.13-2.4,5.68a7.5,7.5,0,0,1-7.27,1.3,5.75,5.75,0,0,1-3.3-2.9,5.65,5.65,0,0,0-5.63-3.38,5.18,5.18,0,0,0-4.71,3.86l0,.11a7.44,7.44,0,0,0,5.31,9.09,1.17,1.17,0,0,0,.32,0,1.25,1.25,0,0,0,.32-2.46,4.88,4.88,0,0,1-3-2.29,5,5,0,0,1-.49-3.83,2.7,2.7,0,0,1,2.49-2A3.19,3.19,0,0,1,171,54.25a8.22,8.22,0,0,0,4.64,4.19A9.91,9.91,0,0,0,185.38,56.76Zm12.51-53.1a7.74,7.74,0,0,1,6.39,8,17.9,17.9,0,0,0-2.15,5.08l-3-.53a7.74,7.74,0,0,1-6.29-9l.76-4.34Zm6.25,18.69a15.58,15.58,0,0,1,13-16.62L217.8,14a15.56,15.56,0,0,1-13,16.61ZM180,2.5c1.14,0,2.3.06,3.44.17a33.64,33.64,0,0,1,7.33,1.6l-.45,2.54a10.26,10.26,0,0,0,.53,5.38,10.08,10.08,0,0,0-1.15-1.11,12.58,12.58,0,0,0-17.35,1.44l-6.29,1.18a12.09,12.09,0,0,0-9.66,14.09l.58,3.12a12.28,12.28,0,0,0-3.74-4.53,12.48,12.48,0,0,0-4.69-2.14A33.65,33.65,0,0,1,180,2.5Zm3.58,38.41a6.38,6.38,0,0,1-4.77,1.3l-3.58-.45.45-3.58a6.47,6.47,0,0,1,7.24-5.6l3.57.46L186,36.62A6.42,6.42,0,0,1,183.58,40.91ZM189.26,24a6,6,0,0,1-8.44.87,4.54,4.54,0,0,1-.66-6.4,3.36,3.36,0,0,1,2.28-1.23,3.4,3.4,0,0,1,2.49.74,1.25,1.25,0,0,0,1.57-1.94,5.88,5.88,0,0,0-8.28.85,7.06,7.06,0,0,0,1,9.92,8.45,8.45,0,0,0,5.35,1.9c.29,0,.59,0,.89,0a8.4,8.4,0,0,0,2.17-.53,9.68,9.68,0,0,0-.83,2.41l-3.59-.46a8.95,8.95,0,0,0-9.48,5.66s0,0-.06-.06a15.37,15.37,0,0,0-4.94-2.43,12.08,12.08,0,0,0,6.72-13.12l-1.14-6.1a10.09,10.09,0,0,1,13.79-1A7.82,7.82,0,0,1,189.26,24ZM150.19,45.77l4.05-5.43A12.85,12.85,0,0,1,171.16,37l-4,5.43A12.85,12.85,0,0,1,150.19,45.77ZM134,46.83V43.3a6.35,6.35,0,0,1,6.34-6.36h3.54v3.54a6.35,6.35,0,0,1-6.35,6.35Zm5.45-19.55,5-.73a9.85,9.85,0,0,1,10.92,7.09l-5,.73a9.85,9.85,0,0,1-10.92-7.09ZM173,20.6a9.59,9.59,0,0,1-7.66,11.18l-5.47,1-1-5.47a9.59,9.59,0,0,1,7.65-11.18l5.48-1ZM146.39,36.71a12.26,12.26,0,0,0,4.34.14l4-.59a15.53,15.53,0,0,0-2.46,2.59l-4.63,6.22a33.1,33.1,0,0,1-.9-4.19A35.09,35.09,0,0,1,146.39,36.71Zm50-13.64a9.16,9.16,0,0,0-4,.72,10.33,10.33,0,0,0,.45-8.37,10.2,10.2,0,0,0,5.83,3.23l3,.53a19,19,0,0,0,0,3.37l.27,3.28A7.67,7.67,0,0,0,196.36,23.07Z"/>
          <path class="cls-1" d="M218.78,60.29a13.19,13.19,0,0,1,.77-9.56,15.8,15.8,0,0,0,1.12-10.61l-1.41-5.71a1.25,1.25,0,0,0-2.43.6l1.41,5.71a13.3,13.3,0,0,1-.94,8.93A15.67,15.67,0,0,0,216.39,61l1.61,5.4a.48.48,0,0,1-.08.45.49.49,0,0,1-.4.2h-6.83a1.25,1.25,0,0,0,0,2.5h6.83a3,3,0,0,0,2.88-3.86Z"/>
        </g>
        <g>
          <g>
            <path class="cls-1" d="M0,123.84a7.66,7.66,0,0,1,2.38-5.6,5,5,0,0,1,3.69-2.32,1.58,1.58,0,0,1,1.66,1.67c0,1.25-2.67,2.38-3.92,3.09,0,0-1,.66-1,3.1a1.67,1.67,0,0,0,1.84,1.31c5.12,0,14.52-4.76,17.73-6.73.36,0,.54.36.54.72,0,.71-.18,1.43-.54,1.6-3.57,2.5-12.14,6.85-18.68,6.85A3.63,3.63,0,0,1,0,123.84Zm10-13.21c0-.66.53-1,1.13-1a1.93,1.93,0,0,1,1.9,2,1.08,1.08,0,0,1-1.13,1A2.56,2.56,0,0,1,10,110.63Z"/>
            <path class="cls-1" d="M84,118.19a26.12,26.12,0,0,0-6.78,1.24C77.3,119.49,83,124,83,130.5,83,142.76,59,161,34.87,161c-7.8,0-12.44-2.68-12.44-8,0-18.57,47.85-34.64,47.85-34.64-20.71-12-34.46-16.24-34.46-26.24,0-12.68,27.32-32.31,68.91-32.31,22.32,0,27.67,4.64,27.67,8,0,4-5,8.93-7.26,8.93a1,1,0,0,1-.77-.36,1,1,0,0,1-.18-.6c0-1.72,5-4.34,5-7.79v-.18c-.18-2.32-8.57-5-24.64-5-42.13,0-65.34,20.35-65.34,29.28,0,9.64,19.28,14.46,34.46,25,0,0,6.72-2,10.77-2h.48c4.64.24,5.71,1.43,5.71,3.39a1.63,1.63,0,0,1-1.43,1.79C86.94,120.33,90.45,118.19,84,118.19Zm-4.7,12.73c0-6.13-5.95-10.24-6-10.24s-47.49,15.54-47.49,32.14c0,3.39,6.43,5,9.29,5C56.41,157.82,79.32,141.87,79.32,130.92Z"/>
            <path class="cls-1" d="M127.22,119.26a1.93,1.93,0,0,1-.89,1.42q-15,8-17.68,8c-2,0-2.73-1.13-2.73-3a18,18,0,0,1,1-4.7c-.71,0-3.69,2-8.87,6s-6.6,4.4-7.32,4.4c-1,0-1.6-.41-1.6-1.25,0-1.66.71-3.92,4.76-9.87q23-37.85,27.67-37.85c1.31,0,2,.71,2,2.14,0,5.18-6.25,20.06-25.53,35-.71,1,.06-.18-5.17,7.5q12.86-9.28,14.46-9.28c2.14,0,2.73,1,2.73,2.32,0,1.66-.95,3.87-.95,5.35l.18.18q4.29,0,14.64-6.07a10.6,10.6,0,0,1,2.5-1.25A.79.79,0,0,1,127.22,119.26Zm-27.31-4.11c5.83-5.36,20.35-20,20.35-27.67,0-.6-.12-.89-.36-.89C118.47,86.88,114,94.14,99.91,115.15Z"/>
            <path class="cls-1" d="M123.89,123.84a7.66,7.66,0,0,1,2.38-5.6,5,5,0,0,1,3.69-2.32,1.58,1.58,0,0,1,1.66,1.67c0,1.25-2.68,2.38-3.92,3.09,0,0-1,.66-1,3.1a1.68,1.68,0,0,0,1.85,1.31c5.12,0,14.52-4.76,17.73-6.73.36,0,.54.36.54.72,0,.71-.18,1.43-.54,1.6-3.57,2.5-12.14,6.85-18.69,6.85A3.63,3.63,0,0,1,123.89,123.84Zm10-13.21c0-.66.54-1,1.13-1a1.93,1.93,0,0,1,1.91,2,1.09,1.09,0,0,1-1.13,1A2.56,2.56,0,0,1,133.88,110.63Z"/>
            <path class="cls-1" d="M141.68,126.22c0-2,3.93-8.21,5.35-8.21a1,1,0,0,1,1.08,1.07c0,.89-2.92,3.69-2.92,4.76,0,.24.18.41.6.41.71,0,9.16-6.6,12.37-6.6,1.19,0,1.61.54,1.61,1.37,0,1.6-1,4.28-1,5.35a.64.64,0,0,0,.71.66c3.75,0,14.58-5.42,15.83-6.67,0,0,.95.78.95,1.31-3.51,3.69-14.76,7.92-17.55,7.92a2.5,2.5,0,0,1-2.8-2.38c0-1.79.77-3.75.77-4.41l-.12-.12c-2.49,0-11.3,7.5-12.91,7.5A1.87,1.87,0,0,1,141.68,126.22Z"/>
            <path class="cls-1" d="M196.07,120.92c-.06,0-11.13,8.87-19.7,8.87-4,0-6.07-2.2-6.07-4.46,0-4.77,8.33-10.12,12.49-10.12,1.2,0,2.74.59,2.74,2.26,0,3.39-5.53,5.47-9.1,6-2.2.18-2.92,1.43-2.92,2,0,.78.48,1.49,4.05,1.49,7.2,0,18-8.45,18.51-8.45.35,0,.59.18.59.77v.18A2.25,2.25,0,0,1,196.07,120.92ZM176,121c1.37-.06,6.31-1.79,6.31-2.56,0-.3-.18-.41-.54-.41C180.83,118,176,120.27,176,121Z"/>
          </g>
          <g>
            <path class="cls-1" d="M103.68,153.9c0-3.54,1.95-5.4,4.73-5.4a4.25,4.25,0,0,1,4.27,2.92h-1.35a2.93,2.93,0,0,0-2.92-1.8c-2,0-3.45,1.5-3.45,4.28s1.42,4.27,3.45,4.27a2.91,2.91,0,0,0,2.92-1.8h1.35a4.25,4.25,0,0,1-4.27,2.93C105.63,159.3,103.68,157.44,103.68,153.9Z"/>
            <path class="cls-1" d="M115.76,148.65H117V158h5.33v1.13h-6.6Z"/>
            <path class="cls-1" d="M125.13,148.65h1.28v10.5h-1.28Z"/>
            <path class="cls-1" d="M130.16,148.65H132l5.25,8.92h.07v-8.92h1.28v10.5h-1.8l-5.25-8.93h-.08v8.93h-1.27Z"/>
            <path class="cls-1" d="M142.31,148.65h1.27v10.5h-1.27Z"/>
            <path class="cls-1" d="M146.81,153.9c0-3.54,1.95-5.4,4.72-5.4a4.27,4.27,0,0,1,4.28,2.92h-1.35a2.93,2.93,0,0,0-2.93-1.8c-2,0-3.45,1.5-3.45,4.28s1.43,4.27,3.45,4.27a2.92,2.92,0,0,0,2.93-1.8h1.35a4.27,4.27,0,0,1-4.28,2.93C148.76,159.3,146.81,157.44,146.81,153.9Z"/>
          </g>
        </g>
      </g>
    </g>
  </g>
</svg>
