<svg xmlns="http://www.w3.org/2000/svg" viewBox="0 0 164.06 23.6">
  <defs>
    <style>
      .cls-1 {
        fill: #f06d6c;
      }

      .cls-2 {
        fill: #ef4e4c;
      }

      .cls-3 {
        fill: #fff;
      }
    </style>
  </defs>
  <title>Asset 4</title>
  <g id="Layer_2" data-name="Layer 2">
    <g id="Layer_1-2" data-name="Layer 1">
      <g>
        <g>
          <polygon class="cls-1" points="6.03 11.8 9.78 18.35 6.76 23.6 0 11.8 6.76 0 9.78 5.25 6.03 11.8"/>
          <polygon class="cls-2" points="15.81 11.8 19.55 18.35 16.53 23.6 9.78 11.8 16.53 0 19.55 5.25 15.81 11.8"/>
          <polygon class="cls-1" points="36.3 11.8 32.55 18.35 35.58 23.6 42.33 11.8 35.58 0 32.55 5.25 36.3 11.8"/>
          <polygon class="cls-2" points="26.52 11.8 22.78 18.35 25.8 23.6 32.55 11.8 25.8 0 22.78 5.25 26.52 11.8"/>
        </g>
        <g>
          <path class="cls-3" d="M59.29,16.4c-2.31,0-3.93-1.65-3.93-4.7S57,7,59.29,7a3.35,3.35,0,0,1,3.17,1.78H65a5.64,5.64,0,0,0-5.7-4.06c-3.78,0-6.34,2.54-6.34,7s2.56,7,6.34,7A5.64,5.64,0,0,0,65,14.62H62.46A3.35,3.35,0,0,1,59.29,16.4Z"/>
          <path class="cls-3" d="M73.12,4.73c-3.68,0-6.22,2.54-6.22,7s2.54,7,6.22,7,6.21-2.54,6.21-7S76.79,4.73,73.12,4.73Zm0,11.67c-2.16,0-3.81-1.55-3.81-4.7S71,7,73.12,7s3.8,1.55,3.8,4.69S75.27,16.4,73.12,16.4Z"/>
          <path class="cls-3" d="M91.25.81V6.63h-.12a4.73,4.73,0,0,0-3.93-1.9c-3.43,0-5.84,2.41-5.84,7s2.41,7,5.71,7a5.13,5.13,0,0,0,4.18-2h.13l.38,1.77h1.9V.81ZM87.45,16.4c-2.16,0-3.68-1.53-3.68-4.7S85.29,7,87.45,7s3.8,1.55,3.8,4.69S89.6,16.4,87.45,16.4Z"/>
          <path class="cls-3" d="M118.27,4.73a4.84,4.84,0,0,0-4.06,1.9h-.12V.81h-2.41V18.43h1.9l.38-1.77h.13a5.14,5.14,0,0,0,4.18,2c3.3,0,5.71-2.41,5.71-7S121.57,4.73,118.27,4.73ZM117.9,16.4c-2.16,0-3.81-1.55-3.81-4.7S115.74,7,117.9,7s3.67,1.52,3.67,4.69S120.05,16.4,117.9,16.4Z"/>
          <path class="cls-3" d="M131.59,4.73a5.25,5.25,0,0,0-5.2,3.93h2.54A2.54,2.54,0,0,1,131.59,7c1.79,0,2.91,1,2.92,2.63v3.58c0,1.93-1.37,3.3-3.68,3.3-1.62,0-2.54-.78-2.54-2s.84-2,2.67-2h2.09V10.31H131c-3.28,0-5.08,1.87-5.08,4.19a4.23,4.23,0,0,0,4.57,4.18,4.78,4.78,0,0,0,4.06-1.9h.12l.26,1.65h2V9.68C136.92,6.76,135,4.73,131.59,4.73Z"/>
          <path class="cls-3" d="M142,8.66c0-1,.77-1.65,2.41-1.65a2.63,2.63,0,0,1,2.67,1.4h2.66c-.51-2.16-2.51-3.68-5.33-3.68-3,0-4.81,1.8-4.81,3.93,0,5.45,7.86,3.17,7.86,6.09,0,.88-.89,1.65-2.92,1.65-1.42,0-2.41-.51-2.79-1.65h-2.67c.52,2.31,2.52,3.93,5.46,3.93,3.43,0,5.33-1.8,5.33-3.93C149.86,9.42,142,11.61,142,8.66Z"/>
          <path class="cls-3" d="M157.85,4.73c-3.68,0-6.22,2.54-6.22,7s2.56,7,6.35,7a6,6,0,0,0,5.83-3.93h-2.66A3.51,3.51,0,0,1,158,16.4a3.81,3.81,0,0,1-2.36-.75,3.87,3.87,0,0,1-1.28-2,5.65,5.65,0,0,1-.28-1.71,6.33,6.33,0,0,1,.11-1.69,4,4,0,0,1,1.37-2.55A3.69,3.69,0,0,1,157.85,7a3.62,3.62,0,0,1,3.73,3.43h-5.84v2h8.19c0-.12,0-.25.06-.4s.07-.61.07-1A6.15,6.15,0,0,0,157.85,4.73Z"/>
          <path class="cls-3" d="M102.68,4.73c-3.69,0-6.22,2.54-6.22,7s2.56,7,6.34,7a6,6,0,0,0,5.84-3.93H106a3.51,3.51,0,0,1-3.17,1.65,3.8,3.8,0,0,1-2.35-.75,3.87,3.87,0,0,1-1.28-2A5.35,5.35,0,0,1,98.89,12,6.25,6.25,0,0,1,99,10.3a4.08,4.08,0,0,1,1.37-2.55A3.73,3.73,0,0,1,102.68,7a3.61,3.61,0,0,1,3.72,3.43h-5.84v2h8.2c0-.12,0-.25,0-.4a8.62,8.62,0,0,0,.08-1A6.16,6.16,0,0,0,102.68,4.73Z"/>
          <path class="cls-3" d="M99,12.73h0a1.23,1.23,0,0,0,0-.19Z"/>
        </g>
      </g>
    </g>
  </g>
</svg>
