<svg width="143" height="39" viewBox="0 0 143 39" fill="none" xmlns="http://www.w3.org/2000/svg">
<path d="M51.2699 14.9286C49.427 16.5358 47.0402 17.2827 44.4496 17.2827C37.7802 17.2827 34.963 13.228 34.9327 9.10663C34.9101 4.96524 37.9615 0.750488 44.4496 0.750488C46.8816 0.750488 49.1929 1.56409 51.0358 3.1713L48.7774 5.09862C47.5992 4.07827 46.0055 3.60478 44.442 3.60478C40.1066 3.60478 38.2334 6.45907 38.2636 9.10663C38.2863 11.7342 40.0084 14.4751 44.442 14.4751C46.0055 14.4751 47.7729 13.9082 48.9512 12.8679L51.2699 14.9286Z" fill="white" fill-opacity="0.6"/>
<path d="M106.15 8.88583C106.226 12.8872 102.986 16.9419 96.709 16.9419H89.6545V14.0409H93.0156V14.0676H96.709C100.788 14.0676 102.396 11.44 102.328 8.85915C102.253 6.38498 100.606 3.92414 96.709 3.92414H93.0156V15.0279H89.6545V1.08984H96.709C102.857 1.09651 106.075 4.96449 106.15 8.88583Z" fill="white" fill-opacity="0.6"/>
<path d="M32.0248 14.0022V16.9434H18.588V7.64632H24.7966L24.789 7.63965H31.6698V10.4274H21.9491V14.0022H32.0248Z" fill="white" fill-opacity="0.6"/>
<path d="M32.0248 1.09619H18.588V3.99707H32.0248V1.09619Z" fill="white" fill-opacity="0.6"/>
<path d="M83.5894 1.06934H86.9807V16.9419H84.8734V16.9619L75.4396 6.25126V16.9419H72.0559V1.08934H74.7976L83.5894 10.9197V1.06934Z" fill="white" fill-opacity="0.6"/>
<path d="M107.23 30.3805C107.177 34.482 104.33 38.5835 98.0232 38.5835C91.7089 38.5835 88.7858 34.5754 88.7858 30.4072C88.7858 26.239 91.8146 22.0508 98.0232 22.0508C104.202 22.0441 107.283 26.2323 107.23 30.3805ZM92.1243 30.4472C92.1998 33.0548 93.7935 35.8358 98.0232 35.8358C102.253 35.8358 103.847 33.0281 103.899 30.4205C103.952 27.7462 102.26 24.7584 98.0232 24.7584C93.7935 24.7651 92.0487 27.7729 92.1243 30.4472Z" fill="white" fill-opacity="0.6"/>
<path d="M70.2885 9.08663C70.2357 13.1813 67.3882 17.2827 61.0814 17.2827C54.7746 17.2827 51.8516 13.2747 51.8516 9.10663C51.8516 4.93856 54.8804 0.750488 61.0814 0.750488C67.2598 0.757157 70.3414 4.94523 70.2885 9.08663ZM55.1825 9.15332C55.258 11.7542 56.8517 14.5418 61.0814 14.5418C65.3111 14.5418 66.9048 11.7342 66.9501 9.13331C67.003 6.45907 65.3111 3.4714 61.0814 3.4714C56.8517 3.4714 55.107 6.47908 55.1825 9.15332Z" fill="white" fill-opacity="0.6"/>
<path d="M65.6358 26.2785C65.0165 25.3715 63.3246 24.5112 61.3759 24.5112C58.8608 24.5112 57.6598 25.4382 57.6598 26.6186C57.6598 27.9991 59.5028 28.3859 61.6629 28.6126C65.4092 29.0194 68.8987 29.8797 68.8987 33.6611C68.8987 37.1956 65.3564 38.7095 61.3533 38.7095C57.6825 38.7095 54.8652 37.7158 53.5283 34.8148L56.3532 33.521C57.1462 35.2616 59.2233 36.0352 61.4061 36.0352C63.5361 36.0352 65.5376 35.3816 65.5376 33.6544C65.5376 32.1605 63.7702 31.547 61.3835 31.3202C57.7127 30.9334 54.3289 30.0731 54.3289 26.5186C54.3289 23.2574 57.9695 21.9236 61.2777 21.897C64.0724 21.897 66.9727 22.5972 68.3323 25.0447L65.6358 26.2785Z" fill="white" fill-opacity="0.6"/>
<path d="M48.3771 26.2785C47.7578 25.3715 46.0659 24.5112 44.1172 24.5112C41.6021 24.5112 40.4011 25.4382 40.4011 26.6186C40.4011 27.9991 42.2441 28.3859 44.4042 28.6126C48.1505 29.0194 51.64 29.8797 51.64 33.6611C51.64 37.1956 48.0977 38.7095 44.0945 38.7095C40.4238 38.7095 37.6065 37.7158 36.2696 34.8148L39.0944 33.521C39.8875 35.2616 41.9646 36.0352 44.1474 36.0352C46.2774 36.0352 48.2789 35.3816 48.2789 33.6544C48.2789 32.1605 46.5115 31.547 44.1248 31.3202C40.454 30.9334 37.0702 30.0731 37.0702 26.5186C37.0702 23.2574 40.7108 21.9236 44.019 21.897C46.8136 21.897 49.714 22.5972 51.0735 25.0447L48.3771 26.2785Z" fill="white" fill-opacity="0.6"/>
<path d="M12.0999 4.98516C11.4806 4.07822 9.78872 3.21796 7.84004 3.21796C5.32488 3.21796 4.12395 4.1449 4.12395 5.32526C4.12395 6.70567 5.96689 7.09245 8.12706 7.31919C11.8734 7.72597 15.3553 8.58623 15.3553 12.3674C15.3553 15.9017 11.8129 17.4155 7.81738 17.4155C4.15416 17.4155 1.32933 16.4219 0 13.521L2.81728 12.234C3.61035 13.9745 5.68743 14.7481 7.87025 14.7481C10.0002 14.7481 11.9942 14.0945 11.9942 12.374C11.9942 10.8802 10.2268 10.2667 7.84004 10.04C4.17682 9.65321 0.785514 8.79296 0.785514 5.23856C0.785514 1.97759 4.42607 0.643862 7.7343 0.617188C10.5289 0.617188 13.4293 1.31739 14.7888 3.76479L12.0999 4.98516Z" fill="white" fill-opacity="0.6"/>
<path d="M141.566 22.3838H126.793H125.69V25.1048H126.793H132.488V38.2363H135.871V25.1048H141.566H142.662V22.3838H141.566Z" fill="white" fill-opacity="0.6"/>
<path d="M27.4628 22.3838H23.7694L15.7178 38.2363H19.3811L23.4144 30.1267L25.6199 25.7117L31.8284 38.2363H35.5219L27.4628 22.3838Z" fill="white" fill-opacity="0.6"/>
<path d="M80.4851 22.3706C77.6602 22.3706 74.843 22.3906 72.0181 22.3906V38.25H75.4019V34.4152V29.9602V25.225H80.4775C84.7903 25.225 84.8129 30.8405 80.4775 30.8405H78.4457V33.5816H80.4775C89.2843 33.5816 89.2617 22.3706 80.4851 22.3706Z" fill="white" fill-opacity="0.6"/>
<path d="M9.00319 22.3706C6.17836 22.3706 3.36109 22.3906 0.536255 22.3906V38.25H3.92001V34.4152V29.9602V25.225H8.99564C13.3084 25.225 13.3311 30.8405 8.99564 30.8405H6.96388V33.5816H8.99564C17.8025 33.5816 17.7723 22.3706 9.00319 22.3706Z" fill="white" fill-opacity="0.6"/>
<path d="M119.663 32.6348C123.077 32.0212 124.202 29.8271 124.202 27.6531C124.202 24.9121 121.974 22.4246 117.737 22.3979C114.889 22.3979 112.042 22.3779 109.194 22.3779V38.25H112.578V34.0686V32.9482V30.2539V29.6137V25.1789H117.737C119.867 25.1789 120.818 26.446 120.818 27.7131C120.818 28.9802 119.897 30.2473 117.737 30.2473H115.795V32.9415H115.841L121.075 38.2433H125.101V38.0499L119.663 32.6348Z" fill="white" fill-opacity="0.6"/>
</svg>
