<svg width="116" height="79" viewBox="0 0 116 79" fill="none" xmlns="http://www.w3.org/2000/svg">
<g clip-path="url(#clip0_1_224)">
<path d="M10.7946 50.8967L10.0243 52.3154C8.72062 51.6061 7.06146 51.1332 5.58007 51.1332C4.09868 51.1332 2.97282 51.7834 2.97282 53.0248C2.97282 53.4977 3.15059 53.7933 3.56538 54.0888C3.98017 54.3253 4.75049 54.6209 5.99486 54.9164C7.77253 55.3893 8.89839 55.744 9.49095 56.0396C10.4983 56.5716 11.0316 57.281 11.1501 58.2859C11.1501 58.4632 11.1501 58.5815 11.1501 58.7588C11.1501 59.9411 10.6761 60.8278 9.78723 61.478C8.89839 62.1283 7.65402 62.4238 6.23188 62.4238C4.15793 62.4238 2.02473 61.8327 0.543335 60.8278L1.37292 59.4682C2.79505 60.3549 4.69124 60.8869 6.40965 60.8869C8.06881 60.8869 9.25393 60.2367 9.25393 58.9953C9.25393 58.2859 9.0169 57.813 8.4836 57.5765C8.12807 57.3992 8.00956 57.281 7.47625 57.1627C6.94295 56.9854 6.76518 56.9263 6.05412 56.749L5.46156 56.5716C3.8024 56.1578 2.97282 55.8623 2.14324 55.3302C1.37292 54.7982 1.01738 54.148 1.01738 53.2021C1.01738 50.6603 3.15059 49.5371 5.75784 49.5371C7.53551 49.5962 9.49095 50.0691 10.7946 50.8967Z" fill="white" fill-opacity="0.6"/>
<path d="M20.5125 62.4238C16.9572 62.5421 13.8166 59.4682 13.8759 55.9805C13.8759 52.4337 16.8387 49.5371 20.5125 49.5371C24.1864 49.5962 27.1492 52.4337 27.1492 55.9805C27.2084 59.4682 24.1271 62.5421 20.5125 62.4238ZM17.135 52.6701C16.2461 53.5568 15.7721 54.68 15.7721 56.0396C15.7721 57.3992 16.2461 58.4632 17.135 59.4091C18.0238 60.2958 19.1496 60.7687 20.5125 60.7687C21.8754 60.7687 22.942 60.2958 23.8901 59.4091C24.7789 58.4632 25.253 57.3401 25.253 56.0396C25.3122 53.4977 23.179 51.2514 20.5125 51.3105C19.2089 51.2514 18.083 51.7243 17.135 52.6701Z" fill="white" fill-opacity="0.6"/>
<path d="M32.6007 60.6503H39.4744V62.3055H30.7638V49.7734H32.6007V60.6503Z" fill="white" fill-opacity="0.6"/>
<path d="M44.2148 62.2464H42.3779V49.7734H44.2148V62.2464Z" fill="white" fill-opacity="0.6"/>
<path d="M62.9396 62.2464H61.1619V52.0789L55.9474 60.8868H55.2364L50.0219 52.138V62.3055H48.2442V49.7734H50.6737L55.6512 58.0493L60.6286 49.7734H63.0581V62.2464H62.9396Z" fill="white" fill-opacity="0.6"/>
<path d="M79.1757 62.2464H77.0425L75.7388 59.2316H69.3985L68.0948 62.2464H65.9616L71.4132 49.7144H73.7834L79.1757 62.2464ZM69.8725 57.7538H75.2055L72.539 51.7242L69.8725 57.7538Z" fill="white" fill-opacity="0.6"/>
<path d="M93.1008 62.2464H91.1453L83.7384 52.6109V62.2464H81.9607V49.7734H83.9161L91.3231 59.4089V49.7734H93.1008V62.2464Z" fill="white" fill-opacity="0.6"/>
<path d="M98.9078 62.2464H97.0709V49.7734H98.9078V62.2464Z" fill="white" fill-opacity="0.6"/>
<path d="M115.085 62.2464H112.951L111.648 59.2316H105.307L104.004 62.2464H101.811L107.263 49.7144H109.633L115.085 62.2464ZM105.781 57.7538H111.114L108.448 51.7242L105.781 57.7538Z" fill="white" fill-opacity="0.6"/>
<path d="M27.2677 73.7737H29.0453C29.4009 73.7737 29.6379 73.8328 29.8749 73.951C30.1119 74.0692 30.2897 74.2466 30.4082 74.483C30.5267 74.7195 30.586 74.956 30.586 75.2515C30.586 75.6062 30.4675 75.9018 30.2897 76.1382C30.1119 76.3747 29.8157 76.552 29.5194 76.6702L30.7638 78.7983H30.2305L29.0453 76.7294H28.9861H28.9268H27.7417V78.7983H27.2677V73.7737ZM29.0453 76.3156C29.4009 76.3156 29.6972 76.1973 29.8749 76.02C30.0527 75.8427 30.1712 75.5471 30.1712 75.2515C30.1712 74.8968 30.0527 74.6604 29.8749 74.483C29.6379 74.3057 29.4009 74.1875 28.9861 74.1875H27.7417V76.3156H29.0453Z" fill="white" fill-opacity="0.6"/>
<path d="M33.608 73.7737H36.6301V74.1875H34.0821V76.02H36.5116V76.4338H34.0821V78.3845H36.6301V78.7983H33.608V73.7737Z" fill="white" fill-opacity="0.6"/>
<path d="M41.0743 73.7737H41.5483L43.4445 78.7983H42.9704L41.3705 74.3648L39.7706 78.7983H39.2373L41.0743 73.7737Z" fill="white" fill-opacity="0.6"/>
<path d="M46.1702 73.7737H46.6443V78.3845H49.1923V78.7983H46.1702V73.7737Z" fill="white" fill-opacity="0.6"/>
<path d="M55.5919 73.7737H58.6139V74.1875H56.0659V76.02H58.5547V76.4338H56.1252V78.3845H58.6732V78.7983H55.5919V73.7737Z" fill="white" fill-opacity="0.6"/>
<path d="M62.2285 78.7392C61.9323 78.621 61.7545 78.4436 61.5767 78.2663C61.399 78.0298 61.3397 77.7934 61.2805 77.5569V77.4978H61.7545V77.5569C61.7545 77.7343 61.873 77.9116 61.9915 78.089C62.11 78.2072 62.2878 78.3254 62.4656 78.4436C62.6433 78.5028 62.8804 78.5619 63.1766 78.5619C63.4137 78.5619 63.6507 78.5028 63.8877 78.4436C64.0655 78.3845 64.2432 78.2663 64.3618 78.089C64.4803 77.9707 64.5395 77.7934 64.5395 77.5569C64.5395 77.3205 64.4803 77.084 64.3025 76.9658C64.1247 76.8476 63.8285 76.7294 63.4729 76.6111L62.9396 76.4929C62.4656 76.3747 62.11 76.1973 61.873 76.02C61.636 75.7835 61.5175 75.488 61.5175 75.1333C61.5175 74.8377 61.5767 74.6013 61.7545 74.4239C61.873 74.2466 62.11 74.0692 62.3471 73.951C62.5841 73.8328 62.8804 73.7737 63.2359 73.7737C63.5914 73.7737 63.8285 73.8328 64.1247 73.951C64.3618 74.0692 64.5988 74.2466 64.7173 74.4239C64.8951 74.6604 64.9543 74.8968 64.9543 75.1333V75.1924H64.4803V75.1333C64.4803 74.9559 64.3617 74.7786 64.3025 74.6013C64.184 74.483 64.0655 74.3648 63.8877 74.2466C63.7099 74.1875 63.4729 74.1284 63.2359 74.1284C62.9989 74.1284 62.7619 74.1875 62.5841 74.2466C62.4063 74.3057 62.2285 74.4239 62.1693 74.5422C62.11 74.6604 61.9915 74.8377 61.9915 75.0151C61.9915 75.2515 62.0508 75.4289 62.2285 75.6062C62.4063 75.7835 62.6433 75.8427 63.0581 75.9609L63.5914 76.0791C64.1247 76.1973 64.4803 76.3747 64.7173 76.552C64.9543 76.7885 65.0728 77.084 65.0728 77.4387C65.0728 77.7343 65.0136 77.9707 64.8358 78.2072C64.658 78.4436 64.4803 78.5619 64.184 78.6801C63.8877 78.7983 63.5914 78.8574 63.2359 78.8574C62.8211 78.9165 62.5248 78.8574 62.2285 78.7392Z" fill="white" fill-opacity="0.6"/>
<path d="M68.9837 74.1875H67.3246V73.7737H71.1169V74.1875H69.4578V78.7983H68.9837V74.1875Z" fill="white" fill-opacity="0.6"/>
<path d="M74.6722 73.7737H75.1463L77.0425 78.7983H76.5684L74.9685 74.3648L73.3686 78.7983H72.7761L74.6722 73.7737Z" fill="white" fill-opacity="0.6"/>
<path d="M80.3608 74.1875H78.7016V73.7737H82.494V74.1875H80.8348V78.7983H80.3608V74.1875Z" fill="white" fill-opacity="0.6"/>
<path d="M85.279 73.7737H88.3011V74.1875H85.7531V76.02H88.1825V76.4338H85.7531V78.3845H88.3011V78.7983H85.279V73.7737Z" fill="white" fill-opacity="0.6"/>
<path d="M67.5023 38.3057H48.0664L49.0738 17.675L51.7403 18.7391L50.9107 35.5864H64.7173L63.8877 18.7391L66.5542 17.675L67.5023 38.3057Z" fill="white" fill-opacity="0.6"/>
<path d="M59.1472 13.7734H56.4807V32.5124H59.1472V13.7734Z" fill="white" fill-opacity="0.6"/>
<path d="M74.85 38.3056L72.1835 37.4189L71.5909 19.5666C71.4724 15.7833 69.6355 12.2956 66.6134 9.99018L57.7843 3.36947L49.0738 9.99018C46.0517 12.2956 44.2148 15.7833 44.0963 19.5666L43.5037 37.4189L40.778 38.3056L41.3705 19.4483C41.5483 14.8375 43.7407 10.6404 47.4146 7.8621L57.7843 0L68.1541 7.8621C71.8279 10.6404 74.0204 14.8966 74.1982 19.4483L74.85 38.3056Z" fill="white" fill-opacity="0.6"/>
</g>
<defs>
<clipPath id="clip0_1_224">
<rect width="114.601" height="78.9165" fill="white" transform="translate(0.48407)"/>
</clipPath>
</defs>
</svg>
