<svg width="201" height="31" viewBox="0 0 201 31" fill="none" xmlns="http://www.w3.org/2000/svg">
<g clip-path="url(#clip0_1_278)">
<path d="M43.2298 4.91776V7.66269H49.3472V25.093H52.4738V7.52544H58.5913V4.78052H43.2298V4.91776Z" fill="white" fill-opacity="0.6"/>
<path d="M67.1557 10.4077V19.0542C67.1557 19.8777 67.0197 20.4267 66.7478 21.1129C66.4759 21.6619 66.0681 22.0736 65.5243 22.4854C64.9806 22.7599 64.4368 22.8971 63.6211 22.8971C62.5336 22.8971 61.8539 22.6226 61.3101 22.0736C60.7663 21.5247 60.4945 20.5639 60.4945 19.466V10.4077H57.5037V19.8777C57.5037 20.9757 57.6397 21.9364 58.0475 22.7599C58.4553 23.5834 58.9991 24.2696 59.8147 24.6813C60.6304 25.0931 61.4461 25.3676 62.5336 25.3676C63.6211 25.3676 64.5727 25.0931 65.2525 24.6813C66.0681 24.2696 66.6119 23.5833 66.8838 22.8971V25.0931H69.8745V10.4077H67.1557Z" fill="white" fill-opacity="0.6"/>
<path d="M80.0702 10.1333C79.9343 10.1333 79.6624 10.1333 79.5264 10.1333C78.7108 10.1333 77.8951 10.4078 77.3513 10.8195C76.6716 11.2313 76.2638 11.9175 76.1279 12.741V10.4078H73.2731V25.0931H76.1279V16.1721C76.1279 15.4859 76.2638 14.9369 76.5357 14.3879C76.8076 13.8389 77.2154 13.5645 77.6232 13.1527C78.0311 13.0155 78.5748 12.8782 79.2545 12.8782C79.5264 12.8782 79.7983 12.8782 80.0702 12.8782C80.3421 12.8782 80.478 12.8782 80.614 13.0155V10.1333C80.478 10.1333 80.3421 10.1333 80.0702 10.1333Z" fill="white" fill-opacity="0.6"/>
<path d="M95.2958 25.0929H91.7613L86.8673 18.5051L85.6439 19.7403V25.0929H82.6531V4.91772H85.6439V16.5836L91.4894 10.4076H95.0239L89.0424 16.7209L95.2958 25.0929Z" fill="white" fill-opacity="0.6"/>
<path d="M108.754 17.4073C108.754 15.8976 108.482 14.6624 107.938 13.5645C107.395 12.4665 106.715 11.643 105.627 10.9568C104.676 10.4078 103.452 10.1333 102.093 10.1333C100.733 10.1333 99.51 10.4078 98.5584 11.094C97.6068 11.7803 96.7912 12.6037 96.2474 13.8389C95.7036 14.9369 95.4317 16.3094 95.4317 17.8191C95.4317 19.3288 95.7036 20.7013 96.2474 21.7992C96.7912 22.8972 97.6068 23.8579 98.5584 24.4069C99.6459 25.0931 100.869 25.3676 102.229 25.3676C103.045 25.3676 103.86 25.2304 104.676 24.9559C105.356 24.6814 106.035 24.4069 106.579 23.9952C107.123 23.5834 107.531 23.0344 107.938 22.6227C108.21 22.0737 108.482 21.5247 108.618 20.9757V20.8385H105.763V20.9757C105.627 21.3875 105.491 21.662 105.084 21.9365C104.812 22.211 104.404 22.4855 103.996 22.6227C103.588 22.7599 103.045 22.8972 102.365 22.8972C101.549 22.8972 100.869 22.7599 100.326 22.3482C99.7819 21.9365 99.2381 21.5247 98.9662 20.8385C98.6944 20.1523 98.5584 19.466 98.5584 18.5053H108.754V17.4073ZM98.4225 16.3094C98.4225 15.6231 98.6943 15.0742 98.8303 14.6624C99.1022 13.9762 99.6459 13.4272 100.19 13.1527C100.733 12.741 101.413 12.6037 102.093 12.6037C102.773 12.6037 103.452 12.741 103.996 13.1527C104.54 13.4272 104.948 13.9762 105.22 14.6624C105.491 15.2114 105.627 15.7604 105.627 16.4466H98.4225V16.3094Z" fill="white" fill-opacity="0.6"/>
<path d="M119.901 10.4077L116.231 22.3481H116.095L112.425 10.4077H109.162L114.464 25.0931L114.192 25.7793C113.92 26.4655 113.648 27.0145 113.24 27.1518C112.832 27.4262 112.289 27.5635 111.609 27.5635C111.473 27.5635 111.201 27.5635 111.065 27.5635C110.929 27.5635 110.793 27.5635 110.657 27.5635V29.8967C110.793 29.8967 111.065 29.8967 111.337 30.0339C111.609 30.0339 111.881 30.0339 112.153 30.0339C113.104 30.0339 113.92 29.8967 114.6 29.6222C115.279 29.3477 115.823 28.936 116.367 28.2497C116.911 27.5635 117.318 26.74 117.59 25.7793L123.028 10.4077H119.901Z" fill="white" fill-opacity="0.6"/>
<path d="M143.827 4.91772L138.39 21.6618H138.254L132.816 4.91772H129.417L136.486 25.0929H139.885L146.954 4.91772H143.827Z" fill="white" fill-opacity="0.6"/>
<path d="M151.44 5.05509C151.168 4.7806 150.624 4.5061 150.217 4.5061C149.809 4.5061 149.265 4.64335 148.993 5.05509C148.585 5.32958 148.449 5.74132 148.449 6.2903C148.449 6.70204 148.585 7.11378 148.993 7.52552C149.401 7.80001 149.809 8.0745 150.217 8.0745C150.76 8.0745 151.168 7.93726 151.44 7.52552C151.848 7.11378 151.984 6.83929 151.984 6.2903C151.984 5.87856 151.848 5.46683 151.44 5.05509ZM148.721 10.4077V25.093H151.712V10.4077H148.721Z" fill="white" fill-opacity="0.6"/>
<path d="M165.306 18.2308C164.627 17.5446 163.675 17.1329 162.18 16.7211L159.733 16.1721C158.917 16.0349 158.373 15.7604 158.101 15.4859C157.829 15.2114 157.558 14.7997 157.558 14.3879C157.558 13.9762 157.693 13.7017 157.829 13.4272C158.101 13.1527 158.373 12.8782 158.781 12.741C159.189 12.6037 159.597 12.4665 160.14 12.4665C160.956 12.4665 161.636 12.6037 162.18 13.0155C162.723 13.4272 162.995 13.9762 162.995 14.5252V14.6624H165.85V14.5252C165.85 13.7017 165.578 12.8782 165.034 12.3292C164.627 11.643 163.947 11.094 163.131 10.6823C162.316 10.2705 161.364 10.1333 160.14 10.1333C159.053 10.1333 158.101 10.2705 157.15 10.6823C156.334 11.094 155.654 11.5058 155.111 12.192C154.703 12.8782 154.431 13.7017 154.431 14.5252C154.431 15.6231 154.839 16.4466 155.518 17.1329C156.198 17.8191 157.286 18.3681 158.645 18.6426L161.092 19.1915C161.908 19.3288 162.451 19.6033 162.723 19.8778C162.995 20.1523 163.131 20.564 163.131 20.9757C163.131 21.3875 162.995 21.662 162.723 22.0737C162.451 22.3482 162.18 22.6227 161.772 22.7599C161.364 22.8972 160.82 23.0344 160.276 23.0344C159.325 23.0344 158.645 22.8972 158.101 22.4855C157.558 22.0737 157.286 21.5247 157.15 20.9757V20.8385H154.159V20.9757C154.295 21.9365 154.567 22.6227 155.111 23.3089C155.654 23.9952 156.334 24.5441 157.15 24.9559C157.965 25.3676 159.053 25.5049 160.276 25.5049C161.364 25.5049 162.451 25.3676 163.267 24.9559C164.219 24.5441 164.898 23.9952 165.306 23.3089C165.85 22.6227 166.122 21.7992 166.122 20.9757C166.258 19.7405 165.85 18.9171 165.306 18.2308Z" fill="white" fill-opacity="0.6"/>
<path d="M179.716 12.3292C179.308 11.643 178.493 11.094 177.677 10.6823C176.725 10.2705 175.774 10.1333 174.55 10.1333C173.327 10.1333 172.375 10.2705 171.424 10.6823C170.608 11.094 169.928 11.643 169.385 12.3292C168.841 13.0155 168.569 13.7017 168.569 14.6624V14.7997H171.424V14.6624C171.56 14.1134 171.831 13.5645 172.375 13.1527C172.919 12.741 173.599 12.6037 174.414 12.6037C175.366 12.6037 176.046 12.8782 176.589 13.29C177.133 13.7017 177.405 14.3879 177.405 15.2114V16.3094L173.463 16.5839C171.696 16.7211 170.472 17.1329 169.52 17.8191C168.569 18.5053 168.161 19.6033 168.161 20.8385C168.161 21.662 168.297 22.4855 168.705 23.1717C169.113 23.8579 169.656 24.4069 170.472 24.6814C171.152 25.0931 172.103 25.2304 173.055 25.2304C173.735 25.2304 174.278 25.0931 174.822 24.9559C175.366 24.6814 175.91 24.4069 176.318 24.1324C176.725 23.7207 177.133 23.3089 177.405 22.76V25.0931H180.396V14.9369C180.396 13.9762 180.124 13.1527 179.716 12.3292ZM177.405 19.6033C177.405 20.2895 177.269 20.8385 176.861 21.2502C176.589 21.7992 176.046 22.211 175.502 22.4855C174.958 22.7599 174.278 22.8972 173.599 22.8972C172.783 22.8972 172.103 22.7599 171.696 22.3482C171.152 21.9365 171.016 21.5247 171.016 20.8385C171.016 20.1523 171.288 19.7405 171.696 19.3288C172.239 18.9171 172.919 18.7798 173.735 18.6426L177.269 18.3681V19.6033H177.405Z" fill="white" fill-opacity="0.6"/>
<path d="M193.718 18.2308C193.039 17.5446 192.087 17.1329 190.592 16.7211L188.145 16.1721C187.329 16.0349 186.785 15.7604 186.513 15.4859C186.241 15.2114 185.969 14.7997 185.969 14.3879C185.969 13.9762 186.105 13.7017 186.241 13.4272C186.513 13.1527 186.785 12.8782 187.193 12.741C187.601 12.6037 188.009 12.4665 188.552 12.4665C189.368 12.4665 190.048 12.6037 190.592 13.0155C191.135 13.4272 191.407 13.9762 191.407 14.5252V14.6624H194.262V14.5252C194.262 13.7017 193.99 12.8782 193.446 12.3292C193.039 11.643 192.359 11.094 191.543 10.6823C190.727 10.2705 189.776 10.1333 188.552 10.1333C187.465 10.1333 186.513 10.2705 185.562 10.6823C184.746 11.094 184.066 11.5058 183.523 12.192C183.115 12.8782 182.843 13.7017 182.843 14.5252C182.843 15.6231 183.251 16.4466 183.93 17.1329C184.61 17.8191 185.698 18.3681 187.057 18.6426L189.504 19.1915C190.32 19.3288 190.863 19.6033 191.135 19.8778C191.407 20.1523 191.543 20.564 191.543 20.9757C191.543 21.3875 191.407 21.662 191.135 22.0737C190.863 22.3482 190.592 22.6227 190.184 22.7599C189.776 22.8972 189.232 23.0344 188.688 23.0344C187.737 23.0344 187.057 22.8972 186.513 22.4855C185.969 22.0737 185.698 21.5247 185.562 20.9757V20.8385H182.571V20.9757C182.707 21.9365 182.979 22.6227 183.523 23.3089C184.066 23.9952 184.746 24.5441 185.562 24.9559C186.377 25.3676 187.465 25.5049 188.688 25.5049C189.776 25.5049 190.863 25.3676 191.815 24.9559C192.767 24.5441 193.446 23.9952 193.854 23.3089C194.398 22.6227 194.67 21.7992 194.67 20.9757C194.67 19.7405 194.398 18.9171 193.718 18.2308Z" fill="white" fill-opacity="0.6"/>
<path d="M196.845 12.4665V10.545H196.165V10.1333H198.068V10.545H197.117V12.4665H196.845ZM198.204 12.4665V10.1333H198.748L199.292 11.9175L199.836 10.1333H200.379V12.4665H199.972V10.545L199.428 12.4665H199.02L198.476 10.545V12.4665H198.204Z" fill="white" fill-opacity="0.6"/>
<path d="M19.8476 0.525879H0V29.4848H19.8476L34.1216 15.074L19.8476 0.525879ZM12.3708 23.3087C7.88467 23.3087 4.07828 19.6031 4.07828 14.9367C4.07828 10.4076 7.74873 6.56471 12.3708 6.56471C15.0896 6.56471 17.6725 7.93717 19.1679 10.2704C17.9444 9.03514 16.1772 8.48616 14.4099 8.48616C10.8754 8.48616 8.02061 11.3683 8.02061 14.9367C8.02061 18.5051 10.8754 21.3873 14.4099 21.3873C16.1772 21.3873 17.9444 20.8383 19.1679 19.6031C17.6725 21.9363 15.0896 23.3087 12.3708 23.3087ZM21.8868 18.6424L21.343 16.1719L19.032 15.2112L21.343 14.2505V11.3683L23.3821 13.427L25.6932 12.4663L24.7416 14.7995L26.101 16.9954L23.3821 16.3092L21.8868 18.6424Z" fill="white" fill-opacity="0.6"/>
</g>
<defs>
<clipPath id="clip0_1_278">
<rect width="200.379" height="29.5079" fill="white" transform="translate(0 0.525879)"/>
</clipPath>
</defs>
</svg>
