<svg width="133" height="25" viewBox="0 0 133 25" fill="none" xmlns="http://www.w3.org/2000/svg">
<g clip-path="url(#clip0_1_516)">
<g style="mix-blend-mode:multiply">
<path d="M21.8287 3.06396L14.1941 24.5014H7.63464L0 3.06396H5.57982L10.9144 19.2561L16.2803 3.06396H21.8287Z" fill="white" fill-opacity="0.6"/>
</g>
<g style="mix-blend-mode:multiply">
<path d="M21.0159 4.88209C20.735 4.63053 20.5115 4.32179 20.3607 3.97676C20.2099 3.63174 20.1352 3.25847 20.1418 2.88222C20.1327 2.50102 20.206 2.12234 20.3569 1.77187C20.5077 1.42141 20.7325 1.10738 21.0159 0.851109C21.5987 0.311372 22.3497 0.0415039 23.269 0.0415039C24.1692 0.0415039 24.9102 0.311372 25.492 0.851109C25.7757 1.1072 26.0007 1.4212 26.1515 1.7717C26.3023 2.12221 26.3756 2.50099 26.3662 2.88222C26.3732 3.25875 26.2988 3.63238 26.148 3.97771C25.9971 4.32303 25.7734 4.63197 25.492 4.88351C24.9102 5.42325 24.1692 5.69264 23.269 5.69169C22.3497 5.69075 21.5987 5.42088 21.0159 4.88209ZM25.8756 7.46288V24.5072H20.6323V7.46288H25.8756Z" fill="white" fill-opacity="0.6"/>
</g>
<g style="mix-blend-mode:multiply">
<path d="M29.278 23.983C28.1937 23.5343 27.2445 22.8135 26.523 21.8908C25.8573 21.0301 25.4628 19.9921 25.3894 18.9081H30.5699C30.5965 19.1924 30.6843 19.4678 30.8272 19.7153C30.9702 19.9628 31.165 20.1768 31.3984 20.3427C31.9236 20.7199 32.5594 20.9132 33.2065 20.8923C33.8615 20.8923 34.3678 20.7654 34.7252 20.5117C34.8915 20.4044 35.0278 20.257 35.1215 20.0832C35.2153 19.9093 35.2634 19.7147 35.2614 19.5174C35.2614 19.0288 35.0056 18.6676 34.4942 18.4337C33.9827 18.1998 33.1552 17.9399 32.0116 17.6539C30.9699 17.425 29.9455 17.1241 28.9457 16.7534C28.1267 16.4374 27.3995 15.9234 26.8296 15.2578C26.2364 14.576 25.9403 13.6547 25.9412 12.4937C25.9334 11.5416 26.2169 10.6097 26.754 9.82205C27.294 9.01813 28.0911 8.3818 29.1454 7.91309C30.1996 7.44437 31.4512 7.21048 32.9 7.21143C35.0465 7.21143 36.7382 7.74075 37.975 8.79939C39.2118 9.85803 39.9219 11.2628 40.1054 13.0136H35.2571C35.2267 12.7396 35.142 12.4743 35.0079 12.2331C34.8738 11.992 34.6928 11.7798 34.4756 11.6089C34.0345 11.2623 33.457 11.089 32.7431 11.089C32.1299 11.089 31.6598 11.206 31.3328 11.4398C31.1764 11.5464 31.0495 11.6905 30.9638 11.8588C30.878 12.0271 30.8363 12.2142 30.8423 12.4028C30.8423 12.8905 31.1028 13.257 31.6237 13.5022C32.1447 13.7474 32.957 13.9951 34.0607 14.245C35.1116 14.5036 36.1459 14.8252 37.1579 15.2081C37.9738 15.5366 38.6954 16.0612 39.2583 16.7349C39.8601 17.4366 40.1714 18.3778 40.1924 19.5586C40.2063 20.5142 39.9135 21.4492 39.3567 22.2275C38.7949 23.0115 37.9869 23.627 36.9326 24.0739C35.8783 24.5209 34.6567 24.7443 33.2679 24.7443C31.7734 24.7453 30.4435 24.4915 29.278 23.983Z" fill="white" fill-opacity="0.6"/>
</g>
<g style="mix-blend-mode:multiply">
<path d="M39.9942 11.3405C40.5919 10.0896 41.5307 9.03143 42.7035 8.28674C43.8524 7.57309 45.1826 7.20242 46.5365 7.21863C47.639 7.19446 48.73 7.44647 49.7093 7.95154C50.5696 8.39373 51.295 9.05791 51.8097 9.8747V7.46009H57.0516V24.5044H51.8126V22.0898C51.28 22.9024 50.5463 23.5647 49.6822 24.013C48.7724 24.5016 47.7143 24.7459 46.508 24.7459C45.1622 24.7586 43.8416 24.3822 42.7063 23.6621C41.5322 22.906 40.5937 21.838 39.997 20.5785C39.3316 19.2443 38.9988 17.7018 38.9988 15.951C38.9988 14.2002 39.3306 12.6633 39.9942 11.3405ZM50.7246 12.9029C50.3817 12.5472 49.9704 12.2639 49.5153 12.0699C49.0601 11.8759 48.5704 11.7753 48.0753 11.774C47.5802 11.7726 47.0899 11.8707 46.6337 12.0622C46.1775 12.2537 45.7647 12.5348 45.42 12.8887C44.6946 13.6311 44.332 14.6537 44.332 15.9567C44.332 17.2596 44.6946 18.2932 45.42 19.0573C45.7602 19.4175 46.1705 19.7048 46.626 19.9016C47.0814 20.0985 47.5724 20.2008 48.0689 20.2022C48.5654 20.2037 49.0569 20.1043 49.5135 19.9101C49.9702 19.716 50.3822 19.4311 50.7246 19.073C51.449 18.3154 51.8116 17.2871 51.8126 15.9879C51.8135 14.6888 51.4509 13.6585 50.7246 12.8972V12.9029Z" fill="white" fill-opacity="0.6"/>
</g>
<g style="mix-blend-mode:multiply">
<path d="M65.7614 3.06396V24.5014H60.5195V3.06396H65.7614Z" fill="white" fill-opacity="0.6"/>
</g>
<g style="mix-blend-mode:multiply">
<path d="M81.4128 9.21833C82.6097 10.5109 83.2077 12.2868 83.2067 14.5461V24.5014H78.0005V15.2492C78.0005 14.1129 77.7039 13.2275 77.1107 12.5931C76.5175 11.9587 75.7208 11.6429 74.7208 11.6457C73.7197 11.6457 72.9226 11.9615 72.3294 12.5931C71.7362 13.2247 71.4401 14.1101 71.441 15.2492V24.5014H66.1906V7.45709H71.441V9.72114C71.9887 8.95335 72.7252 8.33857 73.58 7.93575C74.5279 7.48953 75.5662 7.26693 76.6145 7.28522C78.6184 7.28522 80.2179 7.92959 81.4128 9.21833Z" fill="white" fill-opacity="0.6"/>
</g>
<path d="M83.4363 11.3404C84.0347 10.09 84.9734 9.032 86.1456 8.28666C87.2943 7.57257 88.6247 7.20186 89.9786 7.21855C91.0472 7.20529 92.1035 7.44582 93.0602 7.92021C93.9455 8.34907 94.7022 9.00195 95.2547 9.81355V1.90356H100.498V24.5015H95.2547V22.057C94.7475 22.8873 94.0215 23.5633 93.1557 24.0115C92.2459 24.5001 91.1879 24.7444 89.9815 24.7444C88.6259 24.7601 87.2949 24.3837 86.1499 23.6606C85.0091 22.9391 84.106 21.9112 83.4406 20.577C82.7751 19.2428 82.4424 17.7003 82.4424 15.9495C82.4405 14.2006 82.7718 12.6642 83.4363 11.3404ZM94.1667 12.9028C93.8241 12.5469 93.413 12.2635 92.9579 12.0694C92.5028 11.8754 92.0132 11.7747 91.5181 11.7734C91.0231 11.772 90.5329 11.8701 90.0768 12.0617C89.6207 12.2534 89.2081 12.5346 88.8635 12.8886C88.1382 13.631 87.775 14.6537 87.7741 15.9566C87.7731 17.2595 88.1363 18.2931 88.8635 19.0572C89.2036 19.4174 89.6139 19.7046 90.0692 19.9015C90.5245 20.0983 91.0154 20.2006 91.5117 20.2021C92.0081 20.2035 92.4996 20.1041 92.956 19.91C93.4125 19.7158 93.8245 19.431 94.1667 19.0729C94.893 18.3153 95.2557 17.287 95.2547 15.9878C95.2538 14.6887 94.8911 13.6585 94.1667 12.8971V12.9028Z" fill="white" fill-opacity="0.6"/>
<g style="mix-blend-mode:multiply">
<path d="M116.961 17.2278H105.094C105.176 18.2874 105.518 19.097 106.122 19.6567C106.723 20.2158 107.521 20.5173 108.344 20.4961C109.653 20.4961 110.562 19.9464 111.073 18.8471H116.653C116.371 19.9576 115.842 20.9906 115.104 21.8696C114.344 22.777 113.384 23.4982 112.299 23.9774C111.112 24.499 109.825 24.7592 108.528 24.7401C106.853 24.7401 105.361 24.3841 104.052 23.672C102.755 22.9706 101.69 21.9099 100.986 20.6182C100.25 19.2926 99.882 17.7453 99.882 15.9765C99.882 14.2077 100.245 12.6604 100.971 11.3348C101.666 10.0413 102.727 8.97944 104.022 8.281C105.329 7.56798 106.831 7.21195 108.528 7.21289C110.184 7.21289 111.657 7.55851 112.948 8.24976C114.22 8.92731 115.269 9.95609 115.968 11.2126C116.694 12.4957 117.056 13.9918 117.056 15.701C117.054 16.2113 117.022 16.7211 116.961 17.2278ZM111.685 14.3275C111.685 13.4308 111.378 12.7182 110.765 12.1898C110.152 11.6615 109.386 11.3996 108.468 11.4044C107.658 11.38 106.868 11.6519 106.246 12.1685C105.642 12.677 105.269 13.3995 105.127 14.336L111.685 14.3275Z" fill="white" fill-opacity="0.6"/>
</g>
<g style="mix-blend-mode:multiply">
<path d="M126.556 24.5015L123.276 19.7688L120.517 24.5015H114.845L120.486 15.7989L114.692 7.46143H120.578L123.858 12.1657L126.617 7.46143H132.29L126.556 16.0432L132.443 24.5015H126.556Z" fill="white" fill-opacity="0.6"/>
</g>
</g>
<defs>
<clipPath id="clip0_1_516">
<rect width="132.443" height="24.7043" fill="white" transform="translate(0 0.0415039)"/>
</clipPath>
</defs>
</svg>
