<svg width="158" height="54" viewBox="0 0 158 54" fill="none" xmlns="http://www.w3.org/2000/svg">
<g clip-path="url(#clip0_1_373)">
<path d="M71.6954 19.4956L66.8216 9.64185H70.1012L73.1986 16.0604L76.2959 9.64185H79.5755L74.7473 19.4504V23.9253H71.6499V19.4956H71.6954Z" fill="white" fill-opacity="0.6"/>
<path d="M86.8635 24.0608C85.5426 24.0608 84.3127 23.7444 83.174 23.0664C82.0352 22.4336 81.1698 21.5296 80.4865 20.3996C79.8033 19.2696 79.4844 18.0943 79.4844 16.7383C79.4844 15.4275 79.8033 14.2071 80.4865 13.077C81.1698 11.947 82.0352 11.0882 83.174 10.4102C84.3127 9.73218 85.5426 9.41577 86.8635 9.41577C88.1844 9.41577 89.4143 9.73218 90.553 10.4102C91.6918 11.0882 92.5572 11.947 93.2405 13.077C93.9237 14.2071 94.2426 15.4275 94.2426 16.7383C94.2426 18.0491 93.9237 19.2696 93.2405 20.3996C92.6028 21.5296 91.6918 22.3884 90.553 23.0664C89.4143 23.6992 88.1844 24.0608 86.8635 24.0608ZM86.8635 21.2132C87.6834 21.2132 88.4122 21.0324 89.0499 20.6256C89.6876 20.2188 90.1886 19.6764 90.5986 18.9983C90.963 18.3203 91.1452 17.5971 91.1452 16.7835C91.1452 15.9699 90.963 15.2467 90.5986 14.5687C90.2342 13.8907 89.7331 13.3482 89.0499 12.9414C88.4122 12.5346 87.6834 12.3538 86.8635 12.3538C86.0892 12.3538 85.3604 12.5346 84.6771 12.9414C84.0394 13.3482 83.4928 13.8907 83.1284 14.5687C82.764 15.2467 82.5818 15.9699 82.5818 16.7835C82.5818 17.5971 82.764 18.3203 83.1284 18.9983C83.4928 19.6764 83.9939 20.2188 84.6771 20.6256C85.3604 20.9872 86.0892 21.2132 86.8635 21.2132Z" fill="white" fill-opacity="0.6"/>
<path d="M98.9798 19.4956L94.1059 9.64185H97.3855L100.483 16.0604L103.58 9.64185H106.86L102.032 19.4504V23.9253H98.9342V19.4956H98.9798Z" fill="white" fill-opacity="0.6"/>
<path d="M114.148 24.0608C112.827 24.0608 111.597 23.7444 110.458 23.0664C109.32 22.4336 108.454 21.5296 107.771 20.3996C107.088 19.2696 106.769 18.0943 106.769 16.7383C106.769 15.4275 107.088 14.2071 107.771 13.077C108.454 11.947 109.32 11.0882 110.458 10.4102C111.597 9.73218 112.827 9.41577 114.148 9.41577C115.469 9.41577 116.699 9.73218 117.837 10.4102C118.976 11.0882 119.842 11.947 120.525 13.077C121.208 14.2071 121.527 15.4275 121.527 16.7383C121.527 18.0491 121.208 19.2696 120.525 20.3996C119.887 21.5296 118.976 22.3884 117.837 23.0664C116.699 23.6992 115.469 24.0608 114.148 24.0608ZM114.148 21.2132C114.968 21.2132 115.697 21.0324 116.334 20.6256C116.972 20.2188 117.473 19.6764 117.883 18.9983C118.247 18.3203 118.43 17.5971 118.43 16.7835C118.43 15.9699 118.247 15.2467 117.883 14.5687C117.519 13.8907 117.017 13.3482 116.334 12.9414C115.697 12.5346 114.968 12.3538 114.148 12.3538C113.374 12.3538 112.645 12.5346 111.961 12.9414C111.324 13.3482 110.777 13.8907 110.413 14.5687C110.048 15.2467 109.866 15.9699 109.866 16.7835C109.866 17.5971 110.048 18.3203 110.413 18.9983C110.777 19.6764 111.278 20.2188 111.961 20.6256C112.645 20.9872 113.374 21.2132 114.148 21.2132Z" fill="white" fill-opacity="0.6"/>
<path d="M71.4221 33.1914H67.0493V30.3438H78.7101V33.1914H74.5195V44.582H71.4221V33.1914Z" fill="white" fill-opacity="0.6"/>
<path d="M80.5321 30.3438H86.8635C87.7745 30.3438 88.6399 30.5698 89.4143 31.0218C90.1886 31.4738 90.7808 32.0614 91.2818 32.8298C91.7373 33.5982 91.9651 34.4118 91.9651 35.2706C91.9651 35.9035 91.8284 36.4911 91.6007 37.0335C91.3729 37.5759 91.0085 38.1183 90.5986 38.5251C90.1431 38.9771 89.642 39.2935 89.0954 39.5195L92.1928 44.582H88.9132L86.0436 39.8811H83.6295V44.582H80.5321V30.3438ZM86.8635 37.2595C87.4557 37.2595 87.9567 37.0335 88.3666 36.6267C88.7766 36.2199 89.0043 35.7226 89.0043 35.135C89.0043 34.5474 88.7766 34.0502 88.3666 33.6434C87.9567 33.2366 87.4557 33.0558 86.8635 33.0558H83.6295V37.2143H86.8635V37.2595Z" fill="white" fill-opacity="0.6"/>
<path d="M98.0232 30.3438H102.715L107.498 44.582H104.309L103.398 41.7344H97.2944L96.3379 44.582H93.1494L98.0232 30.3438ZM102.487 38.9771L100.392 32.423L98.2054 38.9771H102.487Z" fill="white" fill-opacity="0.6"/>
<path d="M106.541 30.3438H109.912L113.556 42.2768L117.291 30.3438H120.616L115.97 44.582H111.142L106.541 30.3438Z" fill="white" fill-opacity="0.6"/>
<path d="M122.392 30.3438H132.778V33.1914H125.444V36.0843H131.958V38.8415H125.444V41.7344H132.778V44.582H122.392V30.3438Z" fill="white" fill-opacity="0.6"/>
<path d="M134.827 30.3438H137.925V41.7796H144.621V44.6272H134.827V30.3438Z" fill="white" fill-opacity="0.6"/>
<path d="M151.772 44.7627C150.815 44.7175 149.813 44.5367 148.811 44.2203C147.809 43.9039 146.853 43.4067 145.942 42.8191V39.7002C146.989 40.4234 148.082 40.9658 149.085 41.3274C150.132 41.7343 151.089 41.9151 152 41.9151C152.41 41.9151 152.774 41.8699 153.138 41.7795C153.457 41.6891 153.731 41.5535 153.867 41.3274C154.049 41.1466 154.141 40.8754 154.141 40.6042C154.141 40.1974 153.867 39.8358 153.321 39.5194C152.774 39.203 151.818 38.8866 150.36 38.525C149.312 38.2538 148.447 37.9374 147.809 37.5306C147.126 37.1238 146.67 36.6718 146.352 36.1746C146.033 35.6773 145.896 35.0897 145.896 34.4117C145.896 33.5981 146.124 32.8297 146.579 32.1969C147.035 31.5641 147.673 31.0669 148.447 30.7053C149.221 30.3436 150.132 30.1628 151.134 30.1628C152.273 30.1628 153.321 30.3436 154.232 30.6601C155.188 30.9765 155.963 31.3381 156.6 31.6997V34.8185C155.78 34.2761 154.869 33.8693 153.867 33.5529C152.865 33.2365 151.954 33.0557 151.134 33.0557C150.724 33.0557 150.314 33.1009 149.996 33.2365C149.677 33.3269 149.403 33.5077 149.221 33.6885C149.039 33.9145 148.948 34.1405 148.948 34.4117C148.948 34.7281 149.085 34.9541 149.358 35.1801C149.631 35.4061 149.996 35.5417 150.405 35.6773C150.815 35.8129 151.408 35.9938 152.182 36.1746C152.273 36.2198 152.364 36.2198 152.455 36.265C152.546 36.265 152.637 36.3102 152.729 36.3102C154.414 36.717 155.553 37.3046 156.236 38.073C156.919 38.8414 157.238 39.7002 157.238 40.6494C157.238 41.5535 157.01 42.3219 156.509 42.9547C156.008 43.5875 155.37 44.0847 154.551 44.4011C153.64 44.6271 152.729 44.7627 151.772 44.7627Z" fill="white" fill-opacity="0.6"/>
<path d="M41.9969 21.3938L17.6733 45.531L12.8906 50.2771C10.2487 52.8988 6.46807 54.0288 2.77853 53.3056L9.06441 47.0679L9.70211 46.4351L12.6173 43.5422L13.255 42.9094L31.6571 24.6483C33.7524 22.569 36.5765 21.3938 39.5828 21.3938H41.9969Z" fill="white" fill-opacity="0.6"/>
<path d="M21.3173 24.5127C23.2759 26.4563 23.2304 29.5751 21.3173 31.4736L11.1597 21.3938H18.2199L21.3173 24.5127Z" fill="white" fill-opacity="0.6"/>
<path d="M25.9178 0.691895C11.6152 0.691895 0 12.2181 0 26.4112C0 33.3269 2.77854 39.6098 7.24242 44.2203L10.7498 40.7398C7.15132 36.9882 4.96493 31.9709 4.96493 26.4112C4.96493 14.9302 14.3482 5.61878 25.9178 5.61878C37.4875 5.61878 46.8708 14.9302 46.8708 26.4112C46.8708 37.8922 37.4875 47.2035 25.9178 47.2035C23.0027 47.2035 20.1786 46.6159 17.6278 45.4859C17.3545 45.3503 17.0812 45.2599 16.8079 45.1243C15.5325 44.5367 14.3026 43.7683 13.1639 42.9095L12.5262 43.5423L9.61101 46.4351C10.7042 47.2939 11.8885 48.1076 13.0728 48.7856C13.3005 48.9212 13.5738 49.0568 13.8471 49.1924C17.4456 51.0456 21.5451 52.1304 25.8723 52.1304C40.1749 52.1304 51.7901 40.559 51.7901 26.366C51.7901 12.1729 40.2205 0.691895 25.9178 0.691895Z" fill="white" fill-opacity="0.6"/>
</g>
<defs>
<clipPath id="clip0_1_373">
<rect width="157.147" height="52.8398" fill="white" transform="translate(0 0.691895)"/>
</clipPath>
</defs>
</svg>
